<svg width="24" height="24" viewBox="0 0 24 24" fill="none" xmlns="http://www.w3.org/2000/svg">
<path fill-rule="evenodd" clip-rule="evenodd" d="M19.5002 17.0001C19.7762 17.0001 20.0002 16.7761 20.0002 16.5001V15.5001C20.0002 15.2241 19.7762 15.0001 19.5002 15.0001H18.0002V7.50012C18.0002 7.22412 17.7762 7.00012 17.5002 7.00012H16.5002C16.2242 7.00012 16.0002 7.22412 16.0002 7.50012V16.5001C16.0002 16.7761 16.2242 17.0001 16.5002 17.0001H19.5002ZM14.5002 17.0001C14.7762 17.0001 15.0002 16.7761 15.0002 16.5001V15.5001C15.0002 15.2241 14.7762 15.0001 14.5002 15.0001H13.0002V7.50012C13.0002 7.22412 12.7762 7.00012 12.5002 7.00012H11.5002C11.2242 7.00012 11.0002 7.22412 11.0002 7.50012V16.5001C11.0002 16.7761 11.2242 17.0001 11.5002 17.0001H14.5002ZM9.50024 17.0001C9.77624 17.0001 10.0002 16.7761 10.0002 16.5001V9.00012C10.0002 7.89612 9.10424 7.00012 8.00024 7.00012H6.00024C4.89624 7.00012 4.00024 7.89612 4.00024 9.00012V16.5001C4.00024 16.7761 4.22424 17.0001 4.50024 17.0001H5.50024C5.77624 17.0001 6.00024 16.7761 6.00024 16.5001V14.0001H8.00024V16.5001C8.00024 16.7761 8.22424 17.0001 8.50024 17.0001H9.50024ZM4.00024 5.00012H20.0002C21.1042 5.00012 22.0002 5.89612 22.0002 7.00012V17.0001C22.0002 18.1041 21.1042 19.0001 20.0002 19.0001H4.00024C2.89624 19.0001 2.00024 18.1041 2.00024 17.0001V7.00012C2.00024 5.89612 2.89624 5.00012 4.00024 5.00012ZM6.50024 9.00012H7.50024C7.77624 9.00012 8.00024 9.22412 8.00024 9.50012V12.0001H6.00024V9.50012C6.00024 9.22412 6.22424 9.00012 6.50024 9.00012Z" fill="#313234"/>
</svg>
