<svg width="24" height="24" viewBox="0 0 24 24" fill="none" xmlns="http://www.w3.org/2000/svg">
<path fill-rule="evenodd" clip-rule="evenodd" d="M9.50024 17C9.77624 17 10.0002 16.776 10.0002 16.5V9C10.0002 7.896 9.10424 7 8.00024 7H6.00024C4.89624 7 4.00024 7.896 4.00024 9V16.5C4.00024 16.776 4.22424 17 4.50024 17H5.50024C5.77624 17 6.00024 16.776 6.00024 16.5V14H8.00024V16.5C8.00024 16.776 8.22424 17 8.50024 17H9.50024ZM2.00024 7C2.00024 5.896 2.89624 5 4.00024 5H20.0002C21.1042 5 22.0002 5.896 22.0002 7V17C22.0002 18.104 21.1042 19 20.0002 19H4.00024C2.89624 19 2.00024 18.104 2.00024 17V7ZM6.00024 9.5C6.00024 9.224 6.22424 9 6.50024 9H7.50024C7.77624 9 8.00024 9.224 8.00024 9.5V12H6.00024V9.5ZM11 7.8C11 7.51997 11 7.37996 11.0545 7.273C11.1025 7.17892 11.179 7.10243 11.273 7.0545C11.3733 7.00341 11.5026 7.00021 11.7491 7.00001L11.8 7H11.8002H12.2002H13.8C14.9201 7 15.4802 7 15.908 7.21799C16.2843 7.40973 16.5903 7.71569 16.782 8.09202C17 8.51984 17 9.0799 17 10.2V10.8C17 11.9201 17 12.4802 16.782 12.908C16.5903 13.2843 16.2843 13.5903 15.908 13.782C15.4802 14 14.9201 14 13.8 14H13.0002V16.2C13.0002 16.48 13.0002 16.62 12.9457 16.727C12.8978 16.8211 12.8213 16.8976 12.7272 16.9455C12.6203 17 12.4803 17 12.2002 17H11.8002C11.5202 17 11.3802 17 11.2732 16.9455C11.1792 16.8976 11.1027 16.8211 11.0547 16.727C11.0002 16.62 11.0002 16.48 11.0002 16.2V13.32C11 13.2831 11 13.2432 11 13.2V7.8ZM13.0002 11.9999H14.2C14.4801 11.9999 14.6201 11.9999 14.727 11.9454C14.8211 11.8974 14.8976 11.821 14.9455 11.7269C15 11.6199 15 11.4799 15 11.1999V9.79988C15 9.51985 15 9.37984 14.9455 9.27288C14.8976 9.1788 14.8211 9.10231 14.727 9.05437C14.6201 8.99988 14.4801 8.99988 14.2 8.99988H13.0002V11.9999ZM18.0545 7.273C18 7.37996 18 7.51997 18 7.8V16.2C18 16.48 18 16.62 18.0545 16.727C18.1025 16.8211 18.179 16.8976 18.273 16.9455C18.38 17 18.52 17 18.8 17H19.2C19.4801 17 19.6201 17 19.727 16.9455C19.8211 16.8976 19.8976 16.8211 19.9455 16.727C20 16.62 20 16.48 20 16.2V7.8C20 7.51997 20 7.37996 19.9455 7.273C19.8976 7.17892 19.8211 7.10243 19.727 7.0545C19.6201 7 19.4801 7 19.2 7H18.8C18.52 7 18.38 7 18.273 7.0545C18.179 7.10243 18.1025 7.17892 18.0545 7.273Z" fill="#313234"/>
</svg>
