<svg width="24" height="24" viewBox="0 0 24 24" fill="none" xmlns="http://www.w3.org/2000/svg">
<path fill-rule="evenodd" clip-rule="evenodd" d="M22.0001 6.49924C22.0001 8.98324 19.9861 10.9972 17.5011 10.9972C15.0171 10.9972 13.0021 8.98324 13.0021 6.49924C13.0021 4.01424 15.0171 2.00024 17.5011 2.00024C19.9861 2.00024 22.0001 4.01424 22.0001 6.49924ZM12 3.00006L10.3572 3.00006C9.27341 3.00005 8.39926 3.00004 7.69138 3.05788C6.96253 3.11743 6.32234 3.24324 5.73005 3.54503C4.78924 4.0244 4.02434 4.7893 3.54497 5.73011C3.24318 6.3224 3.11737 6.96259 3.05782 7.69144C2.99998 8.39931 2.99999 9.27346 3 10.3572V10.3573V13.6429V13.6429C2.99999 14.7267 2.99998 15.6008 3.05782 16.3087C3.11737 17.0375 3.24318 17.6777 3.54497 18.27C4.02434 19.2108 4.78924 19.9757 5.73005 20.4551C6.32234 20.7569 6.96253 20.8827 7.69138 20.9422C8.39923 21.0001 9.27334 21.0001 10.3571 21.0001H10.3572H13.6428H13.6429C14.7267 21.0001 15.6008 21.0001 16.3086 20.9422C17.0375 20.8827 17.6777 20.7569 18.27 20.4551C19.2108 19.9757 19.9757 19.2108 20.455 18.27C20.7568 17.6777 20.8826 17.0375 20.9422 16.3087C21 15.6008 21 14.7267 21 13.643V13.6429V12.0001H19V13.6001C19 14.7367 18.9992 15.529 18.9488 16.1458C18.8994 16.751 18.8072 17.0987 18.673 17.362C18.3854 17.9265 17.9265 18.3855 17.362 18.6731C17.0986 18.8073 16.7509 18.8994 16.1458 18.9489C15.5289 18.9993 14.7366 19.0001 13.6 19.0001H10.4C9.2634 19.0001 8.47108 18.9993 7.85424 18.9489C7.24907 18.8994 6.90139 18.8073 6.63803 18.6731C6.07354 18.3855 5.6146 17.9265 5.32698 17.362C5.1928 17.0987 5.10062 16.751 5.05118 16.1458C5.00078 15.529 5 14.7367 5 13.6001V10.4001C5 9.26346 5.00078 8.47114 5.05118 7.8543C5.10062 7.24913 5.1928 6.90145 5.32698 6.63809C5.6146 6.0736 6.07354 5.61466 6.63803 5.32704C6.90139 5.19286 7.24907 5.10068 7.85424 5.05124C8.47108 5.00084 9.2634 5.00006 10.4 5.00006H12V3.00006Z" fill="#313234"/>
</svg>
