<svg width="24" height="24" viewBox="0 0 24 24" fill="none" xmlns="http://www.w3.org/2000/svg">
<path fill-rule="evenodd" clip-rule="evenodd" d="M3.28471 12.1634C3.66292 11.7609 4.29578 11.7413 4.69824 12.1195L11.0008 18.0423C11.0002 18.0283 10.9999 18.0142 10.9999 18.0001V4.00009C10.9999 3.4478 11.4476 3.00009 11.9999 3.00009C12.5522 3.00009 12.9999 3.4478 12.9999 4.00009V18.0001C12.9999 18.0233 12.9991 18.0463 12.9976 18.0691L19.3286 12.1195C19.7311 11.7413 20.3639 11.7609 20.7421 12.1634C21.1204 12.5658 21.1007 13.1987 20.6982 13.5769L13.0407 20.7731C12.4633 21.3157 11.5636 21.3157 10.9862 20.7731L3.32862 13.5769C2.92616 13.1987 2.9065 12.5658 3.28471 12.1634Z" fill="#313234"/>
</svg>
