<svg width="24" height="24" viewBox="0 0 24 24" fill="none" xmlns="http://www.w3.org/2000/svg">
<path fill-rule="evenodd" clip-rule="evenodd" d="M14.5002 3.02649H11.0002C10.448 3.02649 10.0002 3.4742 10.0002 4.02649C10.0002 4.57877 10.448 5.02649 11.0002 5.02649H14.5002C16.9812 5.02649 19.0002 7.04549 19.0002 9.52649C19.0002 12.0075 16.9812 14.0265 14.5002 14.0265H5.18124L8.47337 10.7335C8.86378 10.343 8.86374 9.70999 8.47328 9.31953C8.08279 8.92904 7.44968 8.92904 7.05919 9.31953L2.43924 13.9395C1.85424 14.5245 1.85424 15.4755 2.43924 16.0605L7.05924 20.6805C7.4497 21.071 8.08277 21.071 8.47324 20.6805C8.8637 20.29 8.8637 19.657 8.47324 19.2665L5.23324 16.0265H14.5002C18.0842 16.0265 21.0002 13.1105 21.0002 9.52649C21.0002 5.94249 18.0842 3.02649 14.5002 3.02649Z" fill="#313234"/>
</svg>
