<svg width="24" height="24" viewBox="0 0 24 24" fill="none" xmlns="http://www.w3.org/2000/svg">
<path fill-rule="evenodd" clip-rule="evenodd" d="M17.997 6.00016V6.00012H17.997C17.997 6.00013 17.997 6.00013 17.997 6.00014C17.997 6.00014 17.997 6.00015 17.997 6.00016ZM17.997 7.41433C17.997 7.41434 17.997 7.41434 17.997 7.41435L5.41121 20.0001C5.02068 20.3907 4.38752 20.3907 3.997 20.0001C3.60647 19.6096 3.60647 18.9764 3.99699 18.5859L16.5828 6.00014C16.5828 6.00013 16.5828 6.00013 16.5828 6.00012H4.99702C4.44473 6.00012 3.99702 5.55241 3.99702 5.00012C3.99702 4.44784 4.44473 4.00012 4.99702 4.00012H18.497C19.3254 4.00012 19.997 4.67169 19.997 5.50012V19.0001C19.997 19.5524 19.5493 20.0001 18.997 20.0001C18.4447 20.0001 17.997 19.5524 17.997 19.0001V7.41433Z" fill="#313234"/>
</svg>
