<svg width="24" height="24" viewBox="0 0 24 24" fill="none" xmlns="http://www.w3.org/2000/svg">
<path fill-rule="evenodd" clip-rule="evenodd" d="M14.5002 8.00007H5.20724L8.47337 4.73311C8.86378 4.34261 8.86374 3.70957 8.47328 3.31911C8.08279 2.92862 7.44968 2.92862 7.05919 3.31911L2.43924 7.93907C1.85424 8.52407 1.85424 9.47607 2.43924 10.0611L7.05921 14.6802C7.4497 15.0706 8.08275 15.0706 8.47321 14.6801C8.86369 14.2896 8.86369 13.6565 8.4732 13.266L5.20724 10.0001H14.5002C16.9812 10.0001 19.0002 12.0191 19.0002 14.5001C19.0002 16.9811 16.9812 19.0001 14.5002 19.0001H11.0002C10.448 19.0001 10.0002 19.4478 10.0002 20.0001C10.0002 20.5524 10.448 21.0001 11.0002 21.0001H14.5002C18.0842 21.0001 21.0002 18.0841 21.0002 14.5001C21.0002 10.9161 18.0842 8.00007 14.5002 8.00007Z" fill="#313234"/>
</svg>
