<svg width="24" height="24" viewBox="0 0 24 24" fill="none" xmlns="http://www.w3.org/2000/svg">
<path fill-rule="evenodd" clip-rule="evenodd" d="M21.7155 2.00012H14.2845C14.1275 2.00012 14.0005 2.12712 14.0005 2.28412V13.0311C14.0005 13.2751 14.2865 13.4061 14.4705 13.2461L18.0005 10.1821L21.5295 13.2461C21.7135 13.4061 22.0005 13.2751 22.0005 13.0311V2.28412C22.0005 2.12712 21.8725 2.00012 21.7155 2.00012ZM8.50022 12.6729C10.0742 12.6729 11.3492 11.3969 11.3492 9.82291C11.3492 8.24991 10.0742 6.97391 8.50022 6.97391C6.92622 6.97391 5.65022 8.24991 5.65022 9.82291C5.65022 11.3969 6.92622 12.6729 8.50022 12.6729ZM2.00022 19.5729C2.22022 16.1749 5.04622 13.4869 8.50022 13.4869C11.9542 13.4869 14.7792 16.1749 14.9992 19.5729C15.0142 19.8049 14.8192 19.9999 14.5872 19.9999H2.41322C2.18122 19.9999 1.98622 19.8049 2.00022 19.5729Z" fill="#313234"/>
</svg>
