<svg width="24" height="24" viewBox="0 0 24 24" fill="none" xmlns="http://www.w3.org/2000/svg">
<path d="M11.9999 5.5C12.5522 5.5 12.9999 5.94772 12.9999 6.5V10.268L16.263 8.38397C16.7413 8.10783 17.3529 8.27171 17.6291 8.75C17.9052 9.22829 17.7413 9.83988 17.263 10.116L13.9999 12L17.263 13.884C17.7413 14.1601 17.9052 14.7717 17.629 15.25C17.3529 15.7283 16.7413 15.8922 16.263 15.616L12.9999 13.7321V17.5C12.9999 18.0523 12.5522 18.5 11.9999 18.5C11.4476 18.5 10.9999 18.0523 10.9999 17.5V13.7321L7.73677 15.616C7.25847 15.8922 6.64688 15.7283 6.37074 15.25C6.0946 14.7717 6.25847 14.1601 6.73677 13.884L9.99989 12L6.73674 10.116C6.25845 9.83988 6.09457 9.22829 6.37071 8.75C6.64686 8.27171 7.25845 8.10783 7.73674 8.38397L10.9999 10.268V6.5C10.9999 5.94772 11.4476 5.5 11.9999 5.5Z" fill="#313234"/>
</svg>
