<svg width="24" height="24" viewBox="0 0 24 24" fill="none" xmlns="http://www.w3.org/2000/svg">
<path d="M12.0001 2.5C12.5523 2.5 13.0001 2.94772 13.0001 3.5V10.268L18.8613 6.88397C19.3396 6.60783 19.9512 6.77171 20.2273 7.25C20.5034 7.72829 20.3396 8.33988 19.8613 8.61603L14.0001 12L19.8613 15.384C20.3396 15.6601 20.5034 16.2717 20.2273 16.75C19.9512 17.2283 19.3396 17.3922 18.8613 17.116L13.0001 13.7321V20.5C13.0001 21.0523 12.5523 21.5 12.0001 21.5C11.4478 21.5 11.0001 21.0523 11.0001 20.5V13.7321L5.13885 17.116C4.66055 17.3922 4.04896 17.2283 3.77282 16.75C3.49668 16.2717 3.66055 15.6601 4.13885 15.384L10.0001 12L4.13884 8.61603C3.66055 8.33988 3.49667 7.72829 3.77281 7.25C4.04896 6.77171 4.66055 6.60783 5.13884 6.88397L11.0001 10.2679V3.5C11.0001 2.94772 11.4478 2.5 12.0001 2.5Z" fill="#313234"/>
</svg>
