<svg width="24" height="24" viewBox="0 0 24 24" fill="none" xmlns="http://www.w3.org/2000/svg">
<path fill-rule="evenodd" clip-rule="evenodd" d="M10.0184 18.1897C9.64708 18.3479 9.28485 18.4785 8.93555 18.5813C7.05642 19.134 6.04737 18.7754 5.63592 18.364C5.22448 17.9525 4.86593 16.9435 5.41861 15.0643C5.52135 14.715 5.65199 14.3528 5.8102 13.9815C6.3771 14.7531 7.02809 15.5135 7.75724 16.2427C8.48639 16.9718 9.24683 17.6228 10.0184 18.1897ZM11.9999 17.1276C11.0534 16.5175 10.0924 15.7494 9.17145 14.8284C8.25046 13.9074 7.48244 12.9465 6.87227 12C7.48244 11.0535 8.25046 10.0926 9.17146 9.17158C10.0924 8.25059 11.0534 7.48257 11.9999 6.8724C12.9464 7.48257 13.9073 8.25059 14.8283 9.17159C15.7493 10.0926 16.5173 11.0535 17.1275 12C16.5173 12.9465 15.7493 13.9074 14.8283 14.8284C13.9073 15.7494 12.9464 16.5175 11.9999 17.1276ZM11.9999 19.4506C8.86493 21.1455 5.82868 21.3852 4.22171 19.7782C2.61473 18.1712 2.85437 15.135 4.54928 12C2.85437 8.86507 2.61473 5.82882 4.22171 4.22184C5.82868 2.61486 8.86493 2.8545 11.9999 4.54941C15.1348 2.8545 18.1711 2.61485 19.7781 4.22183C21.385 5.82881 21.1454 8.86506 19.4505 12C21.1454 15.135 21.385 18.1712 19.7781 19.7782C18.1711 21.3852 15.1348 21.1455 11.9999 19.4506ZM18.1896 13.9815C18.3478 14.3528 18.4784 14.715 18.5812 15.0643C19.1338 16.9435 18.7753 17.9525 18.3638 18.364C17.9524 18.7754 16.9433 19.134 15.0642 18.5813C14.7149 18.4785 14.3527 18.3479 13.9814 18.1897C14.7529 17.6228 15.5134 16.9718 16.2425 16.2426C16.9717 15.5135 17.6227 14.7531 18.1896 13.9815ZM18.1896 10.0185C18.3478 9.64721 18.4784 9.28498 18.5812 8.93567C19.1338 7.05654 18.7753 6.04749 18.3638 5.63604C17.9524 5.2246 16.9433 4.86605 15.0642 5.41874C14.7149 5.52147 14.3527 5.65212 13.9814 5.81033C14.7529 6.37723 15.5134 7.02822 16.2425 7.75737C16.9717 8.48652 17.6227 9.24696 18.1896 10.0185ZM10.0184 5.81033C9.64707 5.65212 9.28485 5.52148 8.93555 5.41874C7.05642 4.86606 6.04736 5.22461 5.63592 5.63605C5.22448 6.0475 4.86593 7.05655 5.41861 8.93568C5.52135 9.28498 5.65199 9.64721 5.8102 10.0185C6.3771 9.24696 7.02809 8.48651 7.75724 7.75736C8.48639 7.02822 9.24683 6.37723 10.0184 5.81033ZM13.9999 12C13.9999 13.1046 13.1044 14 11.9999 14C10.8953 14 9.99988 13.1046 9.99988 12C9.99988 10.8954 10.8953 10 11.9999 10C13.1044 10 13.9999 10.8954 13.9999 12Z" fill="#313234"/>
</svg>
