<svg width="24" height="24" viewBox="0 0 24 24" fill="none" xmlns="http://www.w3.org/2000/svg">
<path fill-rule="evenodd" clip-rule="evenodd" d="M21 6.64979C21 6.2546 20.7673 5.89648 20.4061 5.73598L12.4061 2.18043C12.1476 2.06551 11.8524 2.06551 11.5939 2.18043L3.59386 5.73598C3.23273 5.89648 3 6.2546 3 6.64979V7.99992C3 8.55221 3.44772 8.99992 4 8.99992H20C20.5523 8.99992 21 8.55221 21 7.99992V6.64979ZM5.673 6.99992L12 4.18792L18.326 6.99992H5.673Z" fill="#313234"/>
<path d="M5 10.9999C5 10.4476 5.44772 9.99992 6 9.99992C6.55228 9.99992 7 10.4476 7 10.9999V16.9999C7 17.5522 6.55228 17.9999 6 17.9999C5.44772 17.9999 5 17.5522 5 16.9999V10.9999Z" fill="#313234"/>
<path d="M19 10.9999C19 10.4476 18.5523 9.99992 18 9.99992C17.4477 9.99992 17 10.4476 17 10.9999V16.9999C17 17.5522 17.4477 17.9999 18 17.9999C18.5523 17.9999 19 17.5522 19 16.9999V10.9999Z" fill="#313234"/>
<path d="M4 18.9999C3.44772 18.9999 3 19.4476 3 19.9999C3 20.5522 3.44772 20.9999 4 20.9999H20C20.5523 20.9999 21 20.5522 21 19.9999C21 19.4476 20.5523 18.9999 20 18.9999H4Z" fill="#313234"/>
<path d="M12.3247 13.2959L13.068 13.5919C13.804 13.8879 14.2433 14.3833 14.2433 15.2233C14.2433 16.0413 13.67 16.7693 12.6633 17.0019V17.9999H11.33V17.0173C10.7593 16.9033 10.1973 16.6433 9.75 16.2306L10.5573 15.2466C10.9813 15.6066 11.5327 15.8546 12.0047 15.8546C12.5327 15.8546 12.78 15.6546 12.78 15.3353C12.78 15.0145 12.4954 14.8955 12.0419 14.7057C12.009 14.692 11.9753 14.6779 11.9407 14.6633L11.1813 14.3433C10.5573 14.0959 9.974 13.5759 9.974 12.7126C9.974 11.9426 10.5087 11.2953 11.33 11.0366V9.99992H12.6633V10.9659C13.1787 11.0659 13.6807 11.3099 14.068 11.6973L13.356 12.5926C12.964 12.2966 12.596 12.1366 12.1327 12.1366C11.6927 12.1366 11.4207 12.3126 11.4207 12.6326C11.4207 12.9427 11.7569 13.0741 12.2399 13.2627C12.2677 13.2736 12.2959 13.2846 12.3247 13.2959Z" fill="#313234"/>
</svg>
