<svg width="24" height="24" viewBox="0 0 24 24" fill="none" xmlns="http://www.w3.org/2000/svg">
<path fill-rule="evenodd" clip-rule="evenodd" d="M12.0005 1.99976C6.47764 1.99976 2.00049 6.47691 2.00049 11.9998C2.00049 17.5226 6.47764 21.9998 12.0005 21.9998C17.5233 21.9998 22.0005 17.5226 22.0005 11.9998C22.0005 6.47691 17.5233 1.99976 12.0005 1.99976ZM12.0005 3.99976C10.2317 3.99976 8.5969 4.57382 7.27237 5.5458C8.95478 7.1811 9.99999 9.46852 9.99999 12.0001C9.99999 14.5314 8.95492 16.8187 7.27272 18.454C8.59718 19.4258 10.2318 19.9998 12.0005 19.9998C13.7689 19.9998 15.4033 19.426 16.7277 18.4544C15.0452 16.8191 14 14.5316 14 12.0001C14 9.4683 15.0454 7.18071 16.728 5.54539C15.4036 4.57366 13.7691 3.99976 12.0005 3.99976ZM18.1824 6.92158C16.8382 8.19714 16 10.0007 16 12.0001C16 13.9993 16.8381 15.8027 18.1821 17.0783C19.3183 15.6969 20.0005 13.928 20.0005 11.9998C20.0005 10.0717 19.3184 8.30291 18.1824 6.92158ZM4.00049 11.9998C4.00049 10.0719 4.68239 8.30337 5.81815 6.92212C7.16201 8.19764 7.99999 10.001 7.99999 12.0001C7.99999 13.999 7.16212 15.8022 5.81843 17.0777C4.6825 15.6964 4.00049 13.9277 4.00049 11.9998Z" fill="#313234"/>
</svg>
