<svg width="24" height="24" viewBox="0 0 24 24" fill="none" xmlns="http://www.w3.org/2000/svg">
<path d="M10.9999 12C10.4476 12 9.99991 12.4477 9.99991 13C9.99991 13.5523 10.4476 14 10.9999 14L10.9932 14.1166C10.9354 14.614 10.5127 15 9.99991 15L9.88329 15.0067C9.38595 15.0645 8.99991 15.4872 8.99991 16C8.99991 16.5523 9.44762 17 9.99991 17C10.7683 17 11.4692 16.7111 11.9999 16.2361C12.5307 16.7111 13.2316 17 13.9999 17C14.5522 17 14.9999 16.5523 14.9999 16C14.9999 15.4872 14.6139 15.0645 14.1165 15.0067L13.9999 15C13.4871 15 13.0644 14.614 13.0066 14.1166L12.9999 14C13.5522 14 13.9999 13.5523 13.9999 13C13.9999 12.4477 13.5522 12 12.9999 12H10.9999Z" fill="#313234"/>
<path d="M8.78625 12.6554C9.63125 12.6554 9.98425 12.0454 9.98425 10.5504C9.98425 9.0544 9.63125 8.4444 8.78625 8.4444C7.94125 8.4444 7.58725 9.0544 7.58725 10.5504C7.58725 12.0454 7.94125 12.6554 8.78625 12.6554Z" fill="#313234"/>
<path d="M16.412 10.5504C16.412 12.0454 16.059 12.6554 15.214 12.6554C14.369 12.6554 14.015 12.0454 14.015 10.5504C14.015 9.0544 14.369 8.4444 15.214 8.4444C16.059 8.4444 16.412 9.0544 16.412 10.5504Z" fill="#313234"/>
<path fill-rule="evenodd" clip-rule="evenodd" d="M16.7551 3.00741C16.1058 3.0468 15.4856 3.24228 14.9405 3.57026L14.9009 3.595L14.6251 3.49014C12.9131 2.87546 11.0549 2.88574 9.36367 3.49468L9.09889 3.595L9.05839 3.56971C8.44509 3.20102 7.73733 3 6.99989 3C4.79076 3 2.99989 4.79086 2.99989 7L3.00632 7.22781C3.05326 8.05882 3.35584 8.83948 3.85759 9.47557L3.88489 9.509L2.85463 11.4601C2.41154 12.2982 2.17993 13.232 2.17993 14.18L2.18413 14.4033C2.29293 17.288 4.50129 19.6353 7.32525 19.9613L7.56889 19.984L7.87857 20.2929C8.97162 21.3859 10.4541 22 11.9999 22L12.272 21.9937C13.7188 21.9261 15.0925 21.3216 16.1212 20.2929L16.4296 19.9833C17.2471 19.9198 18.0175 19.6966 18.7199 19.3253L18.9246 19.2118C21.6129 17.6517 22.6107 14.2324 21.1452 11.4601L20.1139 9.509L20.1422 9.47557C20.6896 8.78166 20.9999 7.91569 20.9999 7C20.9999 4.79086 19.209 3 16.9999 3L16.7551 3.00741ZM16.9999 5C18.1045 5 18.9999 5.89543 18.9999 7C18.9999 7.61162 18.7249 8.17607 18.2585 8.55441L17.6205 9.07201L19.377 12.3948C20.363 14.2599 19.6503 16.5712 17.7852 17.5572C17.3044 17.8113 16.7751 17.9598 16.2327 17.9929L15.5731 18.0126L14.707 18.8787C13.989 19.5966 13.0153 20 11.9999 20C10.9845 20 10.0108 19.5966 9.29279 18.8787L8.41411 18H7.99989C5.89019 18 4.17993 16.2897 4.17993 14.18C4.17993 13.5578 4.33195 12.9449 4.62277 12.3948L6.37928 9.07201L5.74124 8.55441C5.27486 8.17607 4.99989 7.61162 4.99989 7C4.99989 5.89543 5.89532 5 6.99989 5C7.49292 5 7.95572 5.17775 8.31842 5.49612L8.8223 5.93843L9.42283 5.64027C11.0366 4.83902 12.9365 4.82378 14.5761 5.64007L15.1776 5.93951L15.6821 5.49585C16.0437 5.1779 16.5067 5 16.9999 5Z" fill="#313234"/>
</svg>
