<svg width="24" height="24" viewBox="0 0 24 24" fill="none" xmlns="http://www.w3.org/2000/svg">
<path fill-rule="evenodd" clip-rule="evenodd" d="M11.5528 2.10558C11.8916 1.93619 12.297 1.97274 12.6001 2.20001L18.6001 6.70001C18.8519 6.88886 19.0001 7.18525 19.0001 7.50001C19.0001 7.81476 18.8519 8.11115 18.6001 8.30001L13.6667 12L18.6001 15.7C18.8519 15.8889 19.0001 16.1852 19.0001 16.5C19.0001 16.8148 18.8519 17.1112 18.6001 17.3L12.6001 21.8C12.297 22.0273 11.8916 22.0638 11.5528 21.8944C11.2141 21.725 11.0001 21.3788 11.0001 21V14L6.60006 17.3C6.15823 17.6314 5.53143 17.5418 5.20006 17.1C4.86869 16.6582 4.95823 16.0314 5.40006 15.7L10.3334 12L5.40006 8.30001C4.95823 7.96863 4.86869 7.34183 5.20006 6.90001C5.53143 6.45818 6.15823 6.36864 6.60006 6.70001L11.0001 10V3.00001C11.0001 2.62123 11.2141 2.27497 11.5528 2.10558ZM13.0001 14L16.3334 16.5L13.0001 19V14ZM13.0001 10V5.00001L16.3334 7.50001L13.0001 10Z" fill="#313234"/>
</svg>
