<svg width="24" height="24" viewBox="0 0 24 24" fill="none" xmlns="http://www.w3.org/2000/svg">
<path fill-rule="evenodd" clip-rule="evenodd" d="M6.00011 4V19.355L12.0001 14.113L18.0001 19.355V4H6.00011ZM5.46911 21.953C5.25811 21.953 5.04411 21.908 4.84111 21.815C4.30011 21.568 3.96411 21.046 3.96411 20.451C3.96411 18.9153 3.96411 8.44968 3.96411 3.99773C3.96411 2.89316 4.85954 2 5.96411 2H18.0046C19.1074 2 20.0021 2.89172 20.0046 3.99452C20.0142 8.34423 20.0361 18.4541 20.0361 20.45C20.0361 21.045 19.6991 21.568 19.1581 21.815C18.6171 22.062 18.0021 21.973 17.5521 21.584L12.0001 16.762L6.44811 21.583C6.16711 21.827 5.82111 21.953 5.46911 21.953Z" fill="#313234"/>
</svg>
