<svg width="24" height="24" viewBox="0 0 24 24" fill="none" xmlns="http://www.w3.org/2000/svg">
<path fill-rule="evenodd" clip-rule="evenodd" d="M16.0712 3.00012H20.5002C21.3285 3.00012 22.0002 3.67184 22.0002 4.50012V18.5001C22.0002 19.3284 21.3285 20.0001 20.5002 20.0001H16.0712C15.0107 20.0001 13.9927 20.4216 13.243 21.1706L12.708 21.7066C12.3176 22.0977 11.6839 22.098 11.2931 21.7072L10.7571 21.1712C10.0075 20.4216 8.98985 20.0001 7.92924 20.0001H3.50024C2.67196 20.0001 2.00024 19.3284 2.00024 18.5001V4.50012C2.00024 3.67184 2.67196 3.00012 3.50024 3.00012H7.92924C9.44078 3.00012 10.894 3.57075 11.9998 4.59215C13.1065 3.57071 14.5598 3.00012 16.0712 3.00012ZM20.0002 5.00012H16.0712C15.0107 5.00012 13.9927 5.42164 13.243 6.17057L13.0002 6.41379V18.8454C13.9215 18.2969 14.9813 18.0001 16.0712 18.0001H20.0002V5.00012ZM11.0002 18.8456V6.41434L10.7571 6.17123C10.0075 5.42164 8.98985 5.00012 7.92924 5.00012H4.00024V18.0001H7.92924C9.01939 18.0001 10.0792 18.2969 11.0002 18.8456Z" fill="#313234"/>
</svg>
