<svg width="24" height="24" viewBox="0 0 24 24" fill="none" xmlns="http://www.w3.org/2000/svg">
<path fill-rule="evenodd" clip-rule="evenodd" d="M12.4642 4.464C13.4402 3.488 14.7202 3 16.0002 3C17.2792 3 18.5592 3.488 19.5352 4.464C21.4882 6.417 21.4882 9.583 19.5352 11.536C18.5592 12.512 17.2792 13 16.0002 13C14.7202 13 13.4402 12.512 12.4642 11.536C10.5122 9.583 10.5122 6.417 12.4642 4.464ZM18.1212 5.878C17.5552 5.312 16.8012 5 16.0002 5C15.1992 5 14.4452 5.312 13.8782 5.878C13.3122 6.445 13.0002 7.199 13.0002 8C13.0002 8.801 13.3122 9.555 13.8782 10.121C14.4452 10.688 15.1992 11 16.0002 11C16.8012 11 17.5552 10.688 18.1212 10.121C18.6882 9.555 19.0002 8.801 19.0002 8C19.0002 7.199 18.6882 6.445 18.1212 5.878ZM11.5355 19.5356C9.58251 21.4886 6.41751 21.4886 4.46451 19.5356C2.51151 17.5826 2.51151 14.4166 4.46451 12.4646C6.41751 10.5116 9.58251 10.5116 11.5355 12.4646C13.4875 14.4166 13.4875 17.5826 11.5355 19.5356Z" fill="#313234"/>
</svg>
