<svg width="24" height="24" viewBox="0 0 24 24" fill="none" xmlns="http://www.w3.org/2000/svg">
<path fill-rule="evenodd" clip-rule="evenodd" d="M21.9744 9.81151C21.5493 5.31864 17.1366 2 12.0076 2C7.43737 2 3.58351 5.06374 2.38562 9.24911C2.7821 8.72518 3.20822 8.31283 3.60575 7.99438C5.2626 6.66692 7.55034 6.06639 9.57648 6.4272C12.015 6.86145 14.1265 8.57196 14.7115 10.5872C15.0649 11.8045 14.8235 12.978 14.034 13.9527C13.8416 14.1907 13.8925 14.5441 14.1428 14.7203C15.9956 16.0248 20.0775 15.4338 21.453 12.7086C21.9042 11.8158 22.0687 10.8075 21.9744 9.81151ZM7.13336 14.329C7.30106 13.0591 7.93901 11.8457 8.93037 10.9122C9.65164 10.2333 10.4986 9.77191 11.2908 9.61056C11.5479 9.53395 11.8222 9.49653 12.1067 9.50747C12.6991 9.53042 13.2425 9.76379 13.6619 10.1348C13.3653 9.5629 12.9152 9.01745 12.3472 8.55319C11.5157 7.87322 10.5088 7.41285 9.43487 7.22185C8.02127 6.96978 5.88004 7.20632 4.11022 8.62415C3.13723 9.40368 2.43713 10.4307 2.03501 11.6536C2.01383 11.7179 2.00218 11.7853 2.00112 11.8531V11.8542C1.91816 17.3758 6.44774 21.9951 11.9701 22.0152C12.0686 22.0152 12.1664 22.0141 12.2642 22.0117C10.8319 21.6551 9.82463 20.9713 9.14608 20.316C7.5895 18.8127 6.83715 16.5744 7.13336 14.329ZM9.50563 12.0077C9.50563 15.9865 15.1152 19.4983 20.042 16.8787C20.3396 16.7209 20.6541 17.0594 20.4744 17.344C19.7976 18.4158 18.9228 19.35 17.9018 20.0953C16.1486 21.3758 13.8841 21.7645 11.8375 21.0393C10.8927 20.7046 10.2001 20.2121 9.70686 19.7359C8.33316 18.4091 7.67049 16.4278 7.93351 14.4345C8.0765 13.3486 8.62725 12.3064 9.48374 11.5C9.50963 11.4756 9.53602 11.452 9.56228 11.4284C9.56717 11.424 9.57206 11.4197 9.57694 11.4153C9.53105 11.6052 9.50563 11.8036 9.50563 12.0077Z" fill="#313234"/>
</svg>
