<svg width="24" height="24" viewBox="0 0 24 24" fill="none" xmlns="http://www.w3.org/2000/svg">
<path fill-rule="evenodd" clip-rule="evenodd" d="M13.0474 7.71704C15.1334 7.71704 16.5324 9.19104 16.9514 11.197H9.29445C9.67345 9.19104 10.9604 7.71704 13.0474 7.71704ZM19.9265 4.17905C20.9415 5.23505 20.6724 7.12805 20.2145 8.01705C19.2495 6.47705 17.8025 5.27105 16.0844 4.60905C17.1664 4.10005 19.1304 3.35205 19.9265 4.17905ZM4.46045 19.3301C3.85445 18.5131 4.59545 16.6331 5.14345 15.4941C5.76245 17.1251 6.87045 18.5151 8.29045 19.4841C7.31445 19.7661 5.14945 20.2611 4.46045 19.3301ZM17.0015 13.5301H21.4345C21.4764 13.1921 21.5005 12.8471 21.5005 12.4961C21.5005 11.0281 21.1245 9.64605 20.4645 8.44205C20.9495 7.44905 21.7355 5.39105 20.8295 3.88205C19.5935 1.82405 15.1225 2.94005 13.4555 4.05405C13.3195 4.04805 13.1845 4.04405 13.0475 4.04405C8.99745 4.04405 5.61445 6.89305 4.78945 10.6961C6.87045 7.69605 9.49545 7.01205 9.49545 7.01205C7.39145 7.88205 4.59945 12.6811 4.59945 12.6811C4.59945 12.6811 4.57845 12.7131 4.54345 12.7671C3.86145 13.8051 2.99145 15.5131 2.56245 17.9371C2.19045 20.0371 3.34445 22.8701 9.45045 20.1461C10.5415 20.6601 11.7605 20.9491 13.0475 20.9491C16.7555 20.9491 19.9035 18.5611 21.0424 15.2391H16.4275C15.7544 16.4701 14.5895 17.2761 13.0475 17.2761C10.8695 17.2761 9.56245 15.6731 9.24845 13.5301H12.5525H17.0015Z" fill="#313234"/>
</svg>
