<svg width="24" height="24" viewBox="0 0 24 24" fill="none" xmlns="http://www.w3.org/2000/svg">
<path fill-rule="evenodd" clip-rule="evenodd" d="M21.659 9.34096C21.6444 9.28673 21.6294 9.2327 21.6139 9.17884C21.6117 9.171 21.6095 9.16314 21.6072 9.1553C21.5926 9.10478 21.5776 9.05444 21.5622 9.00425C21.5589 8.99332 21.5556 8.98241 21.5522 8.97149C21.5372 8.92335 21.522 8.87536 21.5063 8.82753C21.5022 8.81488 21.498 8.80225 21.4938 8.78962C21.4784 8.74307 21.4627 8.69666 21.4466 8.65041C21.4419 8.63688 21.4371 8.62339 21.4324 8.60989C21.4163 8.56427 21.4 8.51876 21.3833 8.47345C21.3784 8.46004 21.3733 8.44673 21.3683 8.43336C21.3512 8.38783 21.3341 8.34238 21.3164 8.29719C21.3118 8.28545 21.3071 8.27382 21.3025 8.26213C21.2971 8.2487 21.2918 8.23533 21.2864 8.22192C21.2731 8.18848 21.2597 8.155 21.246 8.12174C21.244 8.11695 21.242 8.1122 21.24 8.10741C21.1756 7.95212 21.1073 7.79882 21.0355 7.64758C21.0306 7.63732 21.0259 7.62699 21.021 7.61675C21.0036 7.58056 20.9858 7.54462 20.968 7.50869C20.9575 7.48742 20.9471 7.46605 20.9365 7.44488C20.9202 7.41254 20.9035 7.38041 20.8869 7.34827C20.8742 7.32373 20.8616 7.29914 20.8487 7.27472C20.8328 7.24457 20.8166 7.2146 20.8004 7.18463C20.7863 7.15846 20.7721 7.13228 20.7578 7.10624C20.742 7.07765 20.726 7.04921 20.7099 7.0208C20.6945 6.99364 20.6791 6.96653 20.6635 6.93951C20.6478 6.91222 20.6319 6.88504 20.6159 6.85791C20.5994 6.82999 20.5828 6.80216 20.566 6.77442C20.5503 6.74832 20.5345 6.72229 20.5185 6.69637C20.5009 6.66777 20.4831 6.63932 20.4652 6.61091C20.4495 6.58605 20.4339 6.56119 20.418 6.53647C20.3991 6.50699 20.3799 6.47774 20.3607 6.44849C20.3453 6.42509 20.33 6.40166 20.3145 6.3784C20.2938 6.34751 20.2728 6.31686 20.2518 6.28622C20.2372 6.26489 20.2227 6.24344 20.2079 6.22223C20.1841 6.18809 20.1599 6.15427 20.1357 6.12041C20.1232 6.10299 20.111 6.08539 20.0984 6.06803C20.0614 6.01699 20.024 5.96627 19.986 5.91597C19.6965 5.53563 19.381 5.17837 19.0432 4.8461C18.8061 4.60182 18.5542 4.37455 18.2899 4.16425C18.1365 4.03184 17.9768 3.90686 17.8123 3.78834C17.4961 3.55098 17.1499 3.33764 16.7728 3.15244C16.6857 3.10705 16.5981 3.06269 16.5098 3.01991C15.7942 2.67321 15.0469 2.3996 14.2746 2.22956C14.1719 2.20693 14.0687 2.18622 13.9652 2.16701C13.4503 2.06888 12.9259 2.01283 12.3968 2.0023C12.3222 2.00082 12.2485 2.00014 12.1754 2.00016C11.4763 1.99783 10.7867 2.06792 10.1333 2.20546C8.71257 2.50447 7.46318 3.11784 6.67305 3.88467C6.67421 3.88395 6.67541 3.88327 6.67656 3.88257C6.67527 3.88391 6.67417 3.88503 6.67333 3.88587C6.67511 3.88441 6.67714 3.88273 6.67928 3.88096C6.68341 3.87896 6.68706 3.87657 6.69113 3.87391C7.28225 3.51971 8.09787 3.23273 8.68081 3.0858C8.71297 3.07768 8.74522 3.06997 8.77744 3.06225C8.88694 3.03629 8.99979 3.01163 9.11626 2.98881C9.15223 2.9818 9.18458 2.97568 9.21716 2.96969C11.8009 2.4993 14.556 3.2707 16.4742 5.10588C16.8866 5.50051 17.2565 5.94209 17.5564 6.42846C18.7803 8.41347 18.6645 10.909 17.7103 12.3808C17.0014 13.4742 15.4834 14.4999 14.0671 14.4887C14.0957 14.4902 14.1242 14.4914 14.1528 14.4926C14.1338 14.4922 14.1149 14.4916 14.0959 14.4909C14.0668 14.4898 14.0377 14.4886 14.0085 14.4869C13.3046 14.4446 12.6995 14.2752 12.1937 14.017C10.002 12.8979 9.67532 10.1101 11.2612 8.76197C10.7346 8.64881 9.74503 8.87035 9.05606 9.898C8.43798 10.8199 8.47278 12.2445 8.85414 13.2547C8.62221 12.7682 8.45213 12.2736 8.36342 11.6757C7.88473 8.4501 9.97318 5.68448 11.9728 4.87567C11.9869 4.86994 12.001 4.86471 12.0152 4.85919C12.0332 4.8521 12.0514 4.84482 12.0695 4.83806C12.1016 4.82605 12.1338 4.81453 12.1659 4.80356C11.7154 4.41101 10.9894 4.18875 10.1475 4.16495C8.98625 4.13213 7.60451 4.47699 6.42079 5.27317C6.35013 5.32068 6.28014 5.36968 6.211 5.42042C6.16828 5.45177 6.12612 5.48371 6.08428 5.516C6.07113 5.52613 6.05816 5.53647 6.04509 5.5467C6.01626 5.56929 5.98761 5.59204 5.9592 5.61504C5.94441 5.62705 5.92967 5.63912 5.91498 5.65124C5.88779 5.67366 5.86085 5.69633 5.83403 5.71918C5.82013 5.73103 5.80616 5.74282 5.79235 5.75477C5.76069 5.78221 5.72936 5.80998 5.69827 5.838C5.69019 5.84526 5.68195 5.85238 5.67391 5.8597C5.6359 5.89426 5.59837 5.9293 5.56124 5.9647C5.54803 5.97729 5.53508 5.99008 5.52197 6.00275C5.49755 6.02641 5.47323 6.05017 5.44918 6.0742C5.43384 6.08952 5.41864 6.10498 5.40343 6.12045C5.38174 6.14254 5.36023 6.16478 5.33888 6.18717C5.32348 6.20329 5.30808 6.21941 5.29283 6.23572C5.2709 6.25916 5.24926 6.28286 5.22767 6.30661C5.21394 6.32173 5.20005 6.3367 5.18644 6.35194C5.15398 6.38832 5.12192 6.42507 5.09025 6.46216C5.07493 6.48014 5.05992 6.49841 5.04476 6.51653C5.02682 6.538 5.00888 6.55947 4.9912 6.58116C4.97448 6.60169 4.95798 6.62242 4.9415 6.64315C4.9259 6.66275 4.91042 6.68242 4.89505 6.70221C4.87807 6.72402 4.86119 6.74591 4.84447 6.76796C4.83029 6.78669 4.8163 6.80561 4.80229 6.8245C4.78513 6.84765 4.76787 6.87072 4.75099 6.89412C4.74118 6.90769 4.73164 6.9215 4.72194 6.93516C4.68575 6.98606 4.65021 7.03752 4.61533 7.08952C4.60538 7.10438 4.5953 7.11915 4.58544 7.13409C4.56745 7.16137 4.54977 7.18892 4.53213 7.2165C4.52227 7.23194 4.5124 7.24739 4.50264 7.26293C4.48486 7.29124 4.46724 7.31965 4.44984 7.34827C4.44138 7.36215 4.43306 7.37614 4.42468 7.39011C4.40627 7.42086 4.38789 7.45164 4.36991 7.48273C4.36818 7.48574 4.36648 7.48878 4.36474 7.49181C4.31993 7.56954 4.27645 7.64832 4.23439 7.72811C4.21434 7.76612 4.19634 7.8014 4.17844 7.83677C4.17318 7.84719 4.16787 7.85758 4.16264 7.86802C4.14534 7.90266 4.1283 7.93748 4.1115 7.97247C4.10679 7.98229 4.10213 7.99217 4.09744 8.00204C4.02064 8.16386 3.94929 8.32947 3.88348 8.49869C3.88125 8.50446 3.87895 8.5102 3.87672 8.51599C3.86145 8.55555 3.84653 8.59532 3.83186 8.63525C3.82897 8.64319 3.82608 8.65111 3.8232 8.65905C3.80834 8.69991 3.79373 8.7409 3.77953 8.78216C3.77909 8.78342 3.77867 8.78471 3.77823 8.78597C3.74708 8.8765 3.71729 8.96784 3.68926 9.06022C3.7247 8.61549 3.83051 8.05474 4.01908 7.43534C4.02026 7.43147 4.02142 7.42764 4.02259 7.42379C4.03197 7.39308 4.04163 7.36219 4.05142 7.33121C4.05382 7.32363 4.05619 7.31606 4.05861 7.30846C4.06761 7.28025 4.07684 7.25187 4.08616 7.22346C4.08959 7.21303 4.09301 7.20263 4.09646 7.19218C4.10518 7.1659 4.11408 7.13952 4.1231 7.11306C4.12747 7.10023 4.13185 7.08738 4.1363 7.07451C4.14476 7.04995 4.15336 7.02533 4.16208 7.00067C4.16737 6.9857 4.17272 6.97072 4.17809 6.95571C4.18637 6.93259 4.19477 6.90942 4.20325 6.88618C4.20937 6.86948 4.21558 6.85276 4.2218 6.836C4.22994 6.81411 4.23814 6.79216 4.24648 6.77019C4.25343 6.75188 4.26047 6.73352 4.26755 6.71516C4.27556 6.69443 4.28356 6.67368 4.29174 6.65289C4.29952 6.63306 4.30746 6.61316 4.3154 6.59327C4.32324 6.57364 4.33106 6.55402 4.33907 6.53435C4.34772 6.51302 4.35656 6.49165 4.36538 6.47028C4.37303 6.45182 4.38061 6.43339 4.38837 6.41489C4.39803 6.39193 4.40788 6.3689 4.41774 6.34586C4.42508 6.32874 4.43233 6.31164 4.43977 6.2945C4.45046 6.26991 4.46138 6.24525 4.47229 6.22059C4.47929 6.20477 4.48622 6.18897 4.49332 6.17312C4.50533 6.14637 4.5176 6.11953 4.52991 6.09271C4.53622 6.07893 4.54243 6.06518 4.54881 6.05139C4.56294 6.02088 4.57738 5.9903 4.59191 5.95973C4.59676 5.94949 4.60147 5.93932 4.60637 5.9291C4.62463 5.89089 4.64323 5.85266 4.6621 5.81439C4.66342 5.8117 4.6647 5.80898 4.66603 5.80629C4.68664 5.76457 4.70759 5.72281 4.72892 5.68099C4.51262 5.79264 4.27783 5.97978 4.04396 6.21628C4.02058 6.23993 3.99719 6.26407 3.97385 6.28867C3.48349 6.80551 3.0057 7.5285 2.72007 8.2156C2.23661 9.37875 1.99466 10.7174 2.00005 12.0563C2.00165 12.4549 2.02491 12.8535 2.07056 13.2475C2.073 13.2683 2.07535 13.2891 2.07771 13.3098C2.0892 13.4111 2.10041 13.512 2.11342 13.6126C2.11434 13.6197 2.11516 13.6268 2.1161 13.6338C2.9212 18.3571 7.03354 21.953 11.9863 21.953C17.5167 21.953 22 17.4697 22 11.9393C22 11.043 21.8817 10.1744 21.6607 9.3477C21.6601 9.34545 21.6596 9.34319 21.659 9.34096Z" fill="#313234"/>
</svg>
