<svg width="24" height="24" viewBox="0 0 24 24" fill="none" xmlns="http://www.w3.org/2000/svg">
<path fill-rule="evenodd" clip-rule="evenodd" d="M6.55278 4.53078C6.17291 4.60508 5.75472 4.81446 5.40714 5.16205C4.92662 5.64256 4.50982 6.775 4.90907 8.55348C5.3015 10.3016 6.47335 12.5615 8.95804 15.0462C11.4427 17.5309 13.7027 18.7027 15.4507 19.0951C17.2292 19.4944 18.3616 19.0776 18.8422 18.5971C19.1897 18.2495 19.3991 17.8313 19.4734 17.4514C19.5493 17.0636 19.4745 16.792 19.3733 16.6462L19.368 16.6385L19.3628 16.6308C19.1947 16.3786 18.8076 15.9831 18.3057 15.6512C17.7952 15.3136 17.3132 15.1392 16.9668 15.1392C16.7193 15.1392 16.403 15.3057 15.9071 15.7191C15.8496 15.767 15.7832 15.8239 15.7125 15.8845C15.5475 16.0259 15.3584 16.1879 15.2001 16.3065C15.0057 16.4522 14.577 16.7637 14.0417 16.7531C13.4871 16.7421 12.749 16.4751 12.0434 16.1025C11.2959 15.7078 10.4488 15.1227 9.66515 14.3391C8.88148 13.5554 8.29637 12.7083 7.90167 11.9608C7.5291 11.2553 7.26212 10.5171 7.25113 9.9625C7.24053 9.42721 7.55198 8.99847 7.69767 8.80409C7.81631 8.64581 7.97835 8.4567 8.1197 8.29175C8.18034 8.22098 8.23717 8.15465 8.28513 8.09711C8.69847 7.60125 8.86499 7.28487 8.86499 7.03742C8.86499 6.69097 8.69063 6.20897 8.353 5.69847C8.02112 5.19665 7.62562 4.8095 7.37342 4.64136L7.36566 4.63619L7.358 4.63087C7.21225 4.52973 6.94062 4.45491 6.55278 4.53078ZM8.49037 2.98231C7.79372 2.50267 6.93906 2.41731 6.16883 2.56797C5.38771 2.72077 4.61377 3.12699 3.99292 3.74783C2.85939 4.88136 2.46917 6.81562 2.95764 8.99156C3.45294 11.1979 4.86357 13.7801 7.54383 16.4604C10.2241 19.1406 12.8063 20.5513 15.0127 21.0466C17.1886 21.535 19.1229 21.1448 20.2564 20.0113C20.8772 19.3904 21.2834 18.6165 21.4362 17.8354C21.5869 17.0652 21.5015 16.2106 21.022 15.5139C20.6729 14.9934 20.0755 14.4238 19.409 13.983C18.7481 13.5459 17.8743 13.1392 16.9668 13.1392C15.923 13.1392 15.1026 13.786 14.6265 14.1828C14.5125 14.2779 14.4193 14.358 14.3376 14.4283C14.2086 14.5392 14.1084 14.6254 14.0006 14.7062C13.9872 14.7162 13.9749 14.7252 13.9637 14.7331C13.903 14.7192 13.8268 14.698 13.7358 14.6674C13.5289 14.598 13.2698 14.4884 12.9773 14.334C12.3916 14.0247 11.7099 13.5554 11.0794 12.9248C10.4488 12.2943 9.97952 11.6126 9.67024 11.0269C9.51577 10.7344 9.40623 10.4753 9.33679 10.2685C9.30623 10.1774 9.28501 10.1012 9.27108 10.0405C9.27901 10.0293 9.28796 10.017 9.29804 10.0036C9.37884 9.8958 9.46497 9.79565 9.57595 9.6666C9.64617 9.58495 9.72634 9.49173 9.8214 9.37769C10.2182 8.90164 10.865 8.0812 10.865 7.03742C10.865 6.12995 10.4583 5.25615 10.0212 4.59521C9.58044 3.9288 9.01088 3.33141 8.49037 2.98231ZM9.2153 10.1283C9.21525 10.1283 9.21582 10.1271 9.21717 10.1245C9.21604 10.127 9.21536 10.1283 9.2153 10.1283ZM13.8759 14.7889C13.8759 14.7888 13.8772 14.7882 13.8798 14.787C13.8771 14.7884 13.8759 14.789 13.8759 14.7889Z" fill="#313234"/>
</svg>
