<svg width="24" height="24" viewBox="0 0 24 24" fill="none" xmlns="http://www.w3.org/2000/svg">
<path d="M19.071 6.34309C19.4615 5.95257 19.4615 5.3194 19.071 4.92888C18.6805 4.53836 18.0473 4.53835 17.6568 4.92888L12 10.5857L6.34311 4.92888C5.95259 4.53836 5.31942 4.53836 4.9289 4.92888C4.53837 5.3194 4.53837 5.95257 4.9289 6.34309L10.5857 11.9999L4.92888 17.6568C4.53836 18.0473 4.53836 18.6805 4.92888 19.071C5.3194 19.4615 5.95257 19.4615 6.34309 19.071L12 13.4142L17.6568 19.071C18.0473 19.4615 18.6805 19.4615 19.071 19.071C19.4616 18.6805 19.4616 18.0473 19.071 17.6568L13.4142 11.9999L19.071 6.34309Z" fill="#313234"/>
</svg>
