<svg width="24" height="24" viewBox="0 0 24 24" fill="none" xmlns="http://www.w3.org/2000/svg">
<path fill-rule="evenodd" clip-rule="evenodd" d="M4.00024 12.0001C4.00024 16.4111 7.58924 20.0001 12.0002 20.0001C16.4112 20.0001 20.0002 16.4111 20.0002 12.0001C20.0002 7.58912 16.4112 4.00012 12.0002 4.00012C7.58924 4.00012 4.00024 7.58912 4.00024 12.0001ZM12.0002 22.0001C6.47724 22.0001 2.00024 17.5231 2.00024 12.0001C2.00024 6.47712 6.47724 2.00012 12.0002 2.00012C17.5232 2.00012 22.0002 6.47712 22.0002 12.0001C22.0002 17.5231 17.5232 22.0001 12.0002 22.0001ZM11.9997 13.4165L15.4407 16.8575L16.8567 15.4415L13.4157 12.0005L16.8567 8.55952L15.4407 7.14352L11.9997 10.5845L8.55865 7.14352L7.14265 8.55952L10.5837 12.0005L7.14365 15.4405L8.55965 16.8565L11.9997 13.4165Z" fill="#313234"/>
</svg>
