<svg width="24" height="24" viewBox="0 0 24 24" fill="none" xmlns="http://www.w3.org/2000/svg">
<path fill-rule="evenodd" clip-rule="evenodd" d="M16.9499 8.46442C17.3403 8.07395 17.3403 7.44088 16.9499 7.05042C16.5594 6.65995 15.9263 6.65995 15.5359 7.05042L11.9999 10.5864L8.46487 7.05058C8.07442 6.66004 7.44128 6.66 7.05078 7.0505C6.66035 7.44093 6.66031 8.07394 7.0507 8.46442L10.5859 12.0004L7.05087 15.5354C6.6604 15.9259 6.6604 16.559 7.05087 16.9494C7.44133 17.3399 8.0744 17.3399 8.46487 16.9494L11.9999 13.4144L15.5359 16.9496C15.9263 17.34 16.5594 17.3399 16.9498 16.9495C17.3403 16.559 17.3402 15.9259 16.9497 15.5354L13.4139 12.0004L16.9499 8.46442Z" fill="#313234"/>
</svg>
