<svg width="24" height="24" viewBox="0 0 24 24" fill="none" xmlns="http://www.w3.org/2000/svg">
<path d="M4.92896 4.92896C4.34318 5.51475 4.34318 6.4645 4.92896 7.05028L9.87871 12L4.92896 16.9498C4.34318 17.5356 4.34318 18.4853 4.92896 19.0711C5.51475 19.6569 6.4645 19.6569 7.05028 19.0711L12 14.1214L16.9498 19.0711C17.5356 19.6569 18.4853 19.6569 19.0711 19.0711C19.6569 18.4853 19.6569 17.5356 19.0711 16.9498L14.1214 12L19.0711 7.05028C19.6569 6.4645 19.6569 5.51475 19.0711 4.92896C18.4853 4.34318 17.5356 4.34318 16.9498 4.92896L12 9.87871L7.05028 4.92896C6.4645 4.34318 5.51475 4.34318 4.92896 4.92896Z" fill="#313234"/>
</svg>
