<svg width="24" height="24" viewBox="0 0 24 24" fill="none" xmlns="http://www.w3.org/2000/svg">
<path fill-rule="evenodd" clip-rule="evenodd" d="M2.00012 5H4.77483L5.71034 13.4406C5.93491 15.4668 7.64738 17 9.68599 17H16.315C18.3532 17 20.0654 15.4675 20.2905 13.4417L20.4507 12H18.4384L18.3028 13.2209C18.1902 14.2337 17.3341 15 16.315 15H9.68599C8.66668 15 7.81045 14.2334 7.69816 13.2203L7.11958 8H10.0001V6H6.89791L6.76266 4.77968C6.65037 3.76658 5.79414 3 4.77483 3H2.00012V5ZM5.99973 20C5.99973 18.899 6.89973 18 7.99973 18C9.09973 18 9.99973 18.899 9.99973 20C9.99973 21.1 9.09973 22 7.99973 22C6.89973 22 5.99973 21.1 5.99973 20ZM15.9997 20C15.9997 18.899 16.8997 18 17.9997 18C19.0997 18 19.9997 18.899 19.9997 20C19.9997 21.1 19.0997 22 17.9997 22C16.8997 22 15.9997 21.1 15.9997 20ZM16.3009 11.5986C16.1109 11.7706 15.8259 11.7706 15.6359 11.5986C14.5439 10.6126 12.7459 8.9346 11.6849 7.6596C10.6989 6.4746 10.7239 4.8366 11.8009 3.7606C12.0039 3.5576 12.2709 3.3946 12.5589 3.2636C13.7549 2.7236 15.3199 3.1176 15.9689 4.3426C16.6169 3.1176 18.1819 2.7236 19.3779 3.2636C19.6659 3.3946 19.9329 3.5576 20.1359 3.7606C21.2129 4.8366 21.2379 6.4746 20.2529 7.6596C19.1909 8.9346 17.3929 10.6126 16.3009 11.5986Z" fill="#313234"/>
</svg>
