<svg width="24" height="24" viewBox="0 0 24 24" fill="none" xmlns="http://www.w3.org/2000/svg">
<path fill-rule="evenodd" clip-rule="evenodd" d="M15.2135 10.8077C14.3685 10.8077 14.0145 10.1967 14.0145 8.70269C14.0145 7.20769 14.3685 6.59769 15.2135 6.59769C16.0585 6.59769 16.4115 7.20769 16.4115 8.70269C16.4115 10.1967 16.0585 10.8077 15.2135 10.8077ZM8.78653 10.8077C7.94153 10.8077 7.58853 10.1967 7.58853 8.70269C7.58853 7.20769 7.94153 6.59769 8.78653 6.59769C9.63153 6.59769 9.98453 7.20769 9.98453 8.70269C9.98453 10.1967 9.63153 10.8077 8.78653 10.8077ZM20.7235 18.1877C20.5575 17.6917 20.5765 17.1417 20.8225 16.6807C21.8605 14.7327 22.2815 12.4067 21.7875 9.95269C20.9825 5.95169 17.6925 2.78669 13.6645 2.13569C6.83753 1.03069 1.02353 6.84569 2.12953 13.6727C2.78253 17.7007 5.94653 20.9897 9.94653 21.7937C12.4025 22.2877 14.7295 21.8667 16.6785 20.8267C17.1375 20.5817 17.6805 20.5617 18.1745 20.7267C18.7115 20.9057 19.4285 21.1447 20.0975 21.3677C20.8795 21.6287 21.6225 20.8847 21.3615 20.1027L20.7235 18.1877Z" fill="#313234"/>
</svg>
