<svg width="24" height="24" viewBox="0 0 24 24" fill="none" xmlns="http://www.w3.org/2000/svg">
<path fill-rule="evenodd" clip-rule="evenodd" d="M7.00024 7.50012H3.50024C3.22424 7.50012 3.00024 7.27612 3.00024 7.00012V3.50012C3.00024 3.22412 3.22424 3.00012 3.50024 3.00012H7.00024C7.27624 3.00012 7.50024 3.22412 7.50024 3.50012V7.00012C7.50024 7.27612 7.27624 7.50012 7.00024 7.50012ZM13.7502 7.50012H10.2502C9.97424 7.50012 9.75024 7.27612 9.75024 7.00012V3.50012C9.75024 3.22412 9.97424 3.00012 10.2502 3.00012H13.7502C14.0262 3.00012 14.2502 3.22412 14.2502 3.50012V7.00012C14.2502 7.27612 14.0262 7.50012 13.7502 7.50012ZM17.0002 7.50012H20.5002C20.7762 7.50012 21.0002 7.27612 21.0002 7.00012V3.50012C21.0002 3.22412 20.7762 3.00012 20.5002 3.00012H17.0002C16.7242 3.00012 16.5002 3.22412 16.5002 3.50012V7.00012C16.5002 7.27612 16.7242 7.50012 17.0002 7.50012ZM7.00024 14.2501H3.50024C3.22424 14.2501 3.00024 14.0261 3.00024 13.7501V10.2501C3.00024 9.97412 3.22424 9.75012 3.50024 9.75012H7.00024C7.27624 9.75012 7.50024 9.97412 7.50024 10.2501V13.7501C7.50024 14.0261 7.27624 14.2501 7.00024 14.2501ZM10.2502 14.2501H13.7502C14.0262 14.2501 14.2502 14.0261 14.2502 13.7501V10.2501C14.2502 9.97412 14.0262 9.75012 13.7502 9.75012H10.2502C9.97424 9.75012 9.75024 9.97412 9.75024 10.2501V13.7501C9.75024 14.0261 9.97424 14.2501 10.2502 14.2501ZM20.5002 14.2501H17.0002C16.7242 14.2501 16.5002 14.0261 16.5002 13.7501V10.2501C16.5002 9.97412 16.7242 9.75012 17.0002 9.75012H20.5002C20.7762 9.75012 21.0002 9.97412 21.0002 10.2501V13.7501C21.0002 14.0261 20.7762 14.2501 20.5002 14.2501ZM3.50024 21.0001H7.00024C7.27624 21.0001 7.50024 20.7761 7.50024 20.5001V17.0001C7.50024 16.7241 7.27624 16.5001 7.00024 16.5001H3.50024C3.22424 16.5001 3.00024 16.7241 3.00024 17.0001V20.5001C3.00024 20.7761 3.22424 21.0001 3.50024 21.0001ZM13.7502 21.0001H10.2502C9.97424 21.0001 9.75024 20.7761 9.75024 20.5001V17.0001C9.75024 16.7241 9.97424 16.5001 10.2502 16.5001H13.7502C14.0262 16.5001 14.2502 16.7241 14.2502 17.0001V20.5001C14.2502 20.7761 14.0262 21.0001 13.7502 21.0001ZM17.0002 21.0001H20.5002C20.7762 21.0001 21.0002 20.7761 21.0002 20.5001V17.0001C21.0002 16.7241 20.7762 16.5001 20.5002 16.5001H17.0002C16.7242 16.5001 16.5002 16.7241 16.5002 17.0001V20.5001C16.5002 20.7761 16.7242 21.0001 17.0002 21.0001Z" fill="#313234"/>
</svg>
