<svg width="24" height="24" viewBox="0 0 24 24" fill="none" xmlns="http://www.w3.org/2000/svg">
<path fill-rule="evenodd" clip-rule="evenodd" d="M6.34864 6.33711C7.87164 4.81811 9.87664 4.00011 11.9976 4.00011C12.4426 4.00011 12.8926 4.03611 13.3446 4.10911C16.5796 4.63211 19.1866 7.14211 19.8336 10.3541C20.2106 12.2281 19.9436 14.0931 19.0596 15.7481C18.7166 16.3921 18.6486 17.1071 18.8666 17.7631L19.4186 19.4181L17.7626 18.8671C17.1046 18.6481 16.3906 18.7181 15.7476 19.0601C14.2376 19.8671 12.5336 20.1621 10.8216 19.9151C7.40864 19.4221 4.64764 16.7131 4.10564 13.3271C3.68964 10.7231 4.50764 8.17511 6.34864 6.33711ZM10.5356 21.8941C11.0246 21.9651 11.5136 22.0001 11.9996 22.0001C13.6346 22.0001 15.2336 21.6021 16.6906 20.8241C16.7786 20.7771 16.9556 20.7061 17.1296 20.7641L19.7346 21.6321C20.2756 21.8121 20.8656 21.6741 21.2696 21.2701C21.6746 20.8651 21.8126 20.2771 21.6326 19.7351L20.7646 17.1311C20.7056 16.9551 20.7766 16.7781 20.8246 16.6891C21.9286 14.6211 22.2646 12.2941 21.7946 9.95911C20.9846 5.93511 17.7166 2.79111 13.6636 2.13511C10.4206 1.61011 7.23664 2.62511 4.93564 4.92211C2.63464 7.21811 1.61264 10.3971 2.13164 13.6431C2.80964 17.8841 6.26564 21.2771 10.5356 21.8941ZM9.92303 9.07695C9.92303 10.224 9.62014 11.1539 8.71149 11.1539C7.80283 11.1539 7.49994 10.224 7.49994 9.07695C7.49994 7.92989 7.80283 7.00002 8.71149 7.00002C9.62014 7.00002 9.92303 7.92989 9.92303 9.07695ZM12 13.9232C10.6004 13.9232 9.87992 12.7914 9.6554 11.9922C9.58072 11.7264 9.80077 11.5001 10.0769 11.5001H13.9231C14.1992 11.5001 14.4193 11.7264 14.3446 11.9922C14.1201 12.7914 13.3996 13.9232 12 13.9232ZM16.4999 9.07695C16.4999 10.224 16.1971 11.1539 15.2884 11.1539C14.3797 11.1539 14.0768 10.224 14.0768 9.07695C14.0768 7.92989 14.3797 7.00002 15.2884 7.00002C16.1971 7.00002 16.4999 7.92989 16.4999 9.07695Z" fill="#313234"/>
</svg>
