<svg width="24" height="24" viewBox="0 0 24 24" fill="none" xmlns="http://www.w3.org/2000/svg">
<path fill-rule="evenodd" clip-rule="evenodd" d="M11.9976 4.00011C9.87665 4.00011 7.87165 4.81811 6.34865 6.33711C4.50765 8.17511 3.68965 10.7231 4.10565 13.3271C4.64765 16.7131 7.40865 19.4221 10.8216 19.9151C12.5336 20.1621 14.2376 19.8671 15.7476 19.0601C16.3896 18.7181 17.1046 18.6481 17.7626 18.8671L19.4186 19.4181L18.8666 17.7631C18.6486 17.1071 18.7166 16.3921 19.0596 15.7481C19.9436 14.0931 20.2106 12.2281 19.8336 10.3541C19.1866 7.14211 16.5796 4.63211 13.3446 4.10911C12.8926 4.03611 12.4426 4.00011 11.9976 4.00011ZM11.9996 22.0001C11.5136 22.0001 11.0246 21.9651 10.5356 21.8941C6.26564 21.2771 2.80964 17.8841 2.13164 13.6431C1.61264 10.3971 2.63464 7.21811 4.93564 4.92211C7.23764 2.62511 10.4186 1.61011 13.6636 2.13511C17.7166 2.79111 20.9846 5.93511 21.7946 9.95911C22.2646 12.2941 21.9286 14.6211 20.8246 16.6891C20.7766 16.7781 20.7056 16.9551 20.7646 17.1311L21.6326 19.7351C21.8126 20.2771 21.6746 20.8651 21.2696 21.2701C20.8646 21.6741 20.2756 21.8121 19.7346 21.6321L17.1296 20.7641C16.9556 20.7061 16.7786 20.7771 16.6906 20.8241C15.2336 21.6021 13.6346 22.0001 11.9996 22.0001ZM8.78624 10.8072C7.94124 10.8072 7.58824 10.1962 7.58824 8.70221C7.58824 7.20721 7.94124 6.59721 8.78624 6.59721C9.63124 6.59721 9.98524 7.20721 9.98524 8.70221C9.98524 10.1962 9.63124 10.8072 8.78624 10.8072ZM14.0145 8.70221C14.0145 10.1962 14.3685 10.8072 15.2135 10.8072C16.0584 10.8072 16.4115 10.1962 16.4115 8.70221C16.4115 7.20721 16.0584 6.59721 15.2135 6.59721C14.3685 6.59721 14.0145 7.20721 14.0145 8.70221Z" fill="#313234"/>
</svg>
