<svg width="24" height="24" viewBox="0 0 24 24" fill="none" xmlns="http://www.w3.org/2000/svg">
<path fill-rule="evenodd" clip-rule="evenodd" d="M13.6644 2.13518C13.7769 2.15339 13.8888 2.17352 14 2.19553V4.2444C13.7847 4.19028 13.566 4.14507 13.3444 4.10918C12.8934 4.03618 12.4434 4.00018 11.9984 4.00018C9.87737 4.00018 7.87137 4.81818 6.34937 6.33818C4.50837 8.17518 3.69037 10.7232 4.10637 13.3272C4.64837 16.7132 7.40937 19.4222 10.8224 19.9152C12.5334 20.1622 14.2384 19.8662 15.7484 19.0612C16.3904 18.7172 17.1054 18.6482 17.7634 18.8672L19.4194 19.4192L18.8674 17.7642C18.6494 17.1082 18.7174 16.3922 19.0604 15.7482C19.6844 14.5799 20.001 13.3069 20.0006 12H22V11.8069C22.0342 13.5076 21.638 15.1684 20.8254 16.6892C20.7774 16.7782 20.7064 16.9562 20.7654 17.1322L21.6334 19.7352C21.8134 20.2782 21.6754 20.8662 21.2704 21.2702C20.8664 21.6752 20.2774 21.8112 19.7354 21.6332L17.1304 20.7652C16.9564 20.7062 16.7794 20.7762 16.6904 20.8242C15.2344 21.6022 13.6364 22.0002 12.0004 22.0002C11.5144 22.0002 11.0254 21.9652 10.5364 21.8942C6.26638 21.2782 2.81038 17.8842 2.13238 13.6432C1.61338 10.3972 2.63538 7.21918 4.93638 4.92218C7.23738 2.62518 10.4154 1.61118 13.6644 2.13518ZM19 8.77508V7H17.9C16.2984 7 15 8.29837 15 9.9V10C15 10.5523 14.5523 11 14 11C13.4477 11 13 10.5523 13 10V9.9C13 7.1938 15.1938 5 17.9 5H19V3.22492C19 2.58038 19.7517 2.25759 20.1913 2.71335L22.7446 5.36054C23.0852 5.7137 23.0852 6.2863 22.7446 6.63946L20.1913 9.28665C19.7517 9.74241 19 9.41962 19 8.77508Z" fill="#313234"/>
</svg>
