<svg width="24" height="24" viewBox="0 0 24 24" fill="none" xmlns="http://www.w3.org/2000/svg">
<path fill-rule="evenodd" clip-rule="evenodd" d="M20.7234 18.19C20.5574 17.694 20.5764 17.144 20.8224 16.683C21.8614 14.734 22.2814 12.409 21.7874 9.95399C20.9824 5.95399 17.6934 2.78899 13.6644 2.13699C6.83741 1.03299 1.02341 6.84799 2.12941 13.675C2.78241 17.703 5.94641 20.991 9.94741 21.796C12.4034 22.29 14.7294 21.868 16.6784 20.829C17.1374 20.584 17.6814 20.565 18.1744 20.729C18.7114 20.908 19.4294 21.147 20.0974 21.37C20.8794 21.63 21.6224 20.886 21.3614 20.105L20.7234 18.19ZM15.9693 11.135L13.4273 10.547L14.6533 6.37901C14.7393 6.08601 14.3773 5.87201 14.1623 6.08801L8.08626 12.181C7.92326 12.345 8.00326 12.623 8.22826 12.676L10.7703 13.264L9.54526 17.432C9.45926 17.725 9.82026 17.939 10.0353 17.723L16.1113 11.63C16.2743 11.466 16.1943 11.188 15.9693 11.135Z" fill="#313234"/>
</svg>
