<svg width="24" height="24" viewBox="0 0 24 24" fill="none" xmlns="http://www.w3.org/2000/svg">
<path fill-rule="evenodd" clip-rule="evenodd" d="M20.7234 18.19C20.5574 17.694 20.5764 17.144 20.8224 16.683C21.8614 14.734 22.2814 12.409 21.7874 9.95399C20.9824 5.95399 17.6934 2.78899 13.6644 2.13699C6.83741 1.03299 1.02341 6.84799 2.12941 13.675C2.78241 17.703 5.94641 20.991 9.94741 21.796C12.4034 22.29 14.7294 21.868 16.6784 20.829C17.1374 20.584 17.6814 20.565 18.1744 20.729L18.728 20.9135C19.1584 21.0568 19.6396 21.2172 20.0974 21.37C20.8794 21.63 21.6224 20.886 21.3614 20.105L20.7234 18.19ZM11.9334 15.5953C11.2034 15.5953 10.6114 16.1873 10.6114 16.9183C10.6114 17.6483 11.2034 18.2403 11.9334 18.2403C12.6634 18.2403 13.2564 17.6483 13.2564 16.9183C13.2564 16.1873 12.6634 15.5953 11.9334 15.5953ZM13.1474 5.97989L13.0144 13.9869H10.8524L10.7204 5.97989H13.1474Z" fill="#313234"/>
</svg>
