<svg width="24" height="24" viewBox="0 0 24 24" fill="none" xmlns="http://www.w3.org/2000/svg">
<path fill-rule="evenodd" clip-rule="evenodd" d="M20.8224 16.683C20.5764 17.144 20.5574 17.694 20.7234 18.19L21.3614 20.105C21.6224 20.886 20.8794 21.63 20.0974 21.37C19.6396 21.2172 19.1584 21.0568 18.728 20.9135C18.5303 20.8476 18.3434 20.7853 18.1744 20.729C17.6814 20.565 17.1374 20.584 16.6784 20.829C14.7294 21.868 12.4034 22.29 9.94741 21.796C5.94641 20.991 2.78241 17.703 2.12941 13.675C1.02341 6.84799 6.83741 1.03299 13.6644 2.13699C17.6934 2.78899 20.9824 5.95399 21.7874 9.95399C22.2814 12.409 21.8614 14.734 20.8224 16.683ZM12.8309 14.541H10.93V13.8327C10.93 12.6772 11.5553 11.5937 12.6018 10.9334C13.4691 10.3871 13.9394 9.99396 13.9394 9.48573C13.9394 8.47228 12.9389 7.92503 11.9985 7.92503C10.964 7.92503 10.0576 8.65436 10.0576 9.48573H8.15677C8.15677 7.60989 9.91555 6.02419 11.9985 6.02419C14.1524 6.02419 15.8402 7.54486 15.8402 9.48573C15.8402 11.1395 14.4476 12.0179 13.6152 12.5411C13.3791 12.6902 12.8309 13.1144 12.8309 13.8327V14.541ZM13.185 16.9288C13.185 17.6161 12.6288 18.1723 11.9415 18.1723C11.2552 18.1723 10.6979 17.6161 10.6979 16.9288C10.6979 16.2414 11.2552 15.6852 11.9415 15.6852C12.6288 15.6852 13.185 16.2414 13.185 16.9288Z" fill="#313234"/>
</svg>
