<svg width="24" height="24" viewBox="0 0 24 24" fill="none" xmlns="http://www.w3.org/2000/svg">
<path fill-rule="evenodd" clip-rule="evenodd" d="M20.8224 16.683C20.5764 17.144 20.5574 17.694 20.7234 18.19L21.3614 20.105C21.6224 20.886 20.8794 21.63 20.0974 21.37C19.6396 21.2172 19.1584 21.0568 18.728 20.9135L18.1744 20.729C17.6814 20.565 17.1374 20.584 16.6784 20.829C14.7294 21.868 12.4034 22.29 9.94741 21.796C5.94641 20.991 2.78241 17.703 2.12941 13.675C1.02341 6.84799 6.83741 1.03299 13.6644 2.13699C17.6934 2.78899 20.9824 5.95399 21.7874 9.95399C22.2814 12.409 21.8614 14.734 20.8224 16.683ZM6.20639 11.9928C6.20639 12.7374 6.81486 13.3459 7.55944 13.3459C8.30402 13.3459 8.9125 12.7374 8.9125 11.9928C8.9125 11.2493 8.30402 10.6408 7.55944 10.6408C6.81486 10.6408 6.20639 11.2493 6.20639 11.9928ZM12.04 13.3459C11.2965 13.3459 10.687 12.7374 10.687 11.9928C10.687 11.2493 11.2965 10.6408 12.04 10.6408C12.7846 10.6408 13.3931 11.2493 13.3931 11.9928C13.3931 12.7374 12.7846 13.3459 12.04 13.3459ZM15.168 11.9928C15.168 12.7374 15.7764 13.3459 16.521 13.3459C17.2646 13.3459 17.8741 12.7374 17.8741 11.9928C17.8741 11.2493 17.2646 10.6408 16.521 10.6408C15.7764 10.6408 15.168 11.2493 15.168 11.9928Z" fill="#313234"/>
</svg>
