<svg width="24" height="24" viewBox="0 0 24 24" fill="none" xmlns="http://www.w3.org/2000/svg">
<path fill-rule="evenodd" clip-rule="evenodd" d="M13.3592 1.25924C12.5923 0.548758 11.4076 0.548758 10.6407 1.25924L9.58611 2.23631C9.26896 2.53013 8.84045 2.67282 8.41047 2.6278L6.998 2.47989C5.97765 2.37304 5.04194 3.05557 4.83202 4.05979L4.50743 5.61256C4.42226 6.02003 4.17159 6.37378 3.81538 6.58919L2.48326 7.39477C1.63202 7.90955 1.28851 8.97172 1.67713 9.88747L2.32494 11.414C2.48386 11.7885 2.48386 12.2115 2.32494 12.5859L1.67713 14.1125C1.28851 15.0282 1.63201 16.0904 2.48326 16.6052L3.81538 17.4108C4.17159 17.6262 4.42226 17.9799 4.50743 18.3874L4.83202 19.9402C5.04194 20.9444 5.97765 21.6269 6.998 21.5201L8.41047 21.3722C8.84045 21.3271 9.26896 21.4698 9.58611 21.7637L10.6407 22.7407C11.4076 23.4512 12.5923 23.4512 13.3592 22.7407L14.4138 21.7637C14.731 21.4698 15.1595 21.3271 15.5895 21.3722L17.0019 21.5201C18.0223 21.6269 18.958 20.9444 19.1679 19.9402L19.4925 18.3874C19.5777 17.9799 19.8284 17.6262 20.1846 17.4108L21.5167 16.6052C22.3679 16.0904 22.7114 15.0282 22.3228 14.1125L21.675 12.586C21.5161 12.2115 21.5161 11.7885 21.675 11.414L22.3228 9.88747C22.7114 8.97172 22.3679 7.90955 21.5167 7.39477L20.1846 6.58919C19.8284 6.37378 19.5777 6.02003 19.4925 5.61256L19.1679 4.05979C18.958 3.05557 18.0223 2.37304 17.0019 2.47989L15.5895 2.6278C15.1595 2.67282 14.731 2.53013 14.4138 2.23631L13.3592 1.25924ZM6.65518 12.4164L10.8092 16.4044L17.8442 9.79438L16.4752 8.33738L10.8242 13.6464L8.04018 10.9734L6.65518 12.4164Z" fill="#313234"/>
</svg>
