<svg width="24" height="24" viewBox="0 0 24 24" fill="none" xmlns="http://www.w3.org/2000/svg">
<path fill-rule="evenodd" clip-rule="evenodd" d="M7.00024 3.00012H17.0002C19.2092 3.00012 21.0002 4.79112 21.0002 7.00012V17.0001C21.0002 19.2091 19.2092 21.0001 17.0002 21.0001H7.00024C4.79124 21.0001 3.00024 19.2091 3.00024 17.0001V7.00012C3.00024 4.79112 4.79124 3.00012 7.00024 3.00012ZM19.0002 7.00012C19.0002 5.89712 18.1032 5.00012 17.0002 5.00012H7.00024C5.89724 5.00012 5.00024 5.89712 5.00024 7.00012V17.0001C5.00024 18.1031 5.89724 19.0001 7.00024 19.0001H17.0002C18.1032 19.0001 19.0002 18.1031 19.0002 17.0001V7.00012ZM6.58603 12.1392L8.00049 10.7252L10.8604 13.5861L17.0002 7.44621L18.4145 8.86042L10.8601 16.4148L6.58603 12.1392Z" fill="#313234"/>
</svg>
