<svg width="24" height="24" viewBox="0 0 24 24" fill="none" xmlns="http://www.w3.org/2000/svg">
<path d="M4.34923 17.2407C3.9299 17.6001 3.88134 18.2314 4.24076 18.6508C4.60018 19.0701 5.23148 19.1187 5.65081 18.7592L12 13.3171L18.3492 18.7592C18.7686 19.1187 19.3999 19.0701 19.7593 18.6508C20.1187 18.2314 20.0701 17.6001 19.6508 17.2407L12.6508 11.2407C12.2763 10.9197 11.7237 10.9197 11.3492 11.2407L4.34923 17.2407Z" fill="#313234"/>
<path d="M4.34923 9.24073C3.9299 9.60015 3.88134 10.2314 4.24076 10.6508C4.60018 11.0701 5.23148 11.1187 5.65081 10.7592L12 5.31706L18.3492 10.7592C18.7686 11.1187 19.3999 11.0701 19.7593 10.6508C20.1187 10.2314 20.0701 9.60015 19.6508 9.24073L12.6508 3.24072C12.2763 2.91973 11.7237 2.91973 11.3492 3.24072L4.34923 9.24073Z" fill="#313234"/>
</svg>
