<svg width="24" height="24" viewBox="0 0 24 24" fill="none" xmlns="http://www.w3.org/2000/svg">
<path d="M19.6508 6.75927C20.0701 6.39985 20.1187 5.76855 19.7592 5.34923C19.3998 4.9299 18.7685 4.88134 18.3492 5.24076L12 10.6829L5.65077 5.24076C5.23145 4.88134 4.60015 4.9299 4.24073 5.34923C3.8813 5.76855 3.92986 6.39985 4.34919 6.75927L11.3492 12.7593C11.7237 13.0803 12.2763 13.0803 12.6508 12.7593L19.6508 6.75927Z" fill="#313234"/>
<path d="M19.6508 14.7593C20.0701 14.3999 20.1187 13.7686 19.7592 13.3492C19.3998 12.9299 18.7685 12.8813 18.3492 13.2408L12 18.6829L5.65077 13.2408C5.23145 12.8813 4.60015 12.9299 4.24073 13.3492C3.8813 13.7686 3.92986 14.3999 4.34919 14.7593L11.3492 20.7593C11.7237 21.0803 12.2763 21.0803 12.6508 20.7593L19.6508 14.7593Z" fill="#313234"/>
</svg>
