<svg width="24" height="24" viewBox="0 0 24 24" fill="none" xmlns="http://www.w3.org/2000/svg">
<path d="M6.75927 4.34923C6.39985 3.9299 5.76855 3.88134 5.34923 4.24076C4.9299 4.60018 4.88134 5.23148 5.24076 5.65081L10.6829 12L5.24076 18.3492C4.88134 18.7686 4.9299 19.3999 5.34923 19.7593C5.76855 20.1187 6.39985 20.0701 6.75927 19.6508L12.7593 12.6508C13.0803 12.2763 13.0803 11.7237 12.7593 11.3492L6.75927 4.34923Z" fill="#313234"/>
<path d="M14.7593 4.34923C14.3999 3.9299 13.7686 3.88134 13.3492 4.24076C12.9299 4.60018 12.8813 5.23148 13.2408 5.65081L18.6829 12L13.2408 18.3492C12.8813 18.7686 12.9299 19.3999 13.3492 19.7593C13.7686 20.1187 14.3999 20.0701 14.7593 19.6508L20.7593 12.6508C21.0803 12.2763 21.0803 11.7237 20.7593 11.3492L14.7593 4.34923Z" fill="#313234"/>
</svg>
