<svg width="24" height="24" viewBox="0 0 24 24" fill="none" xmlns="http://www.w3.org/2000/svg">
<path fill-rule="evenodd" clip-rule="evenodd" d="M9.78116 16.9624C9.44114 16.3646 9.20085 15.7028 9.08292 14.9994C9.02843 14.6744 9.00006 14.3405 9.00006 14C9.00006 10.714 11.6417 8.0449 14.9172 8.00056C14.9448 8.00019 14.9724 8 15.0001 8C15.6911 8 16.3548 8.11681 16.9725 8.33177C19.3173 9.14762 21.0001 11.3773 21.0001 14C21.0001 15.2561 20.6141 16.422 19.9543 17.3856L21.0001 20L18.3857 18.9542C17.422 19.614 16.2561 20 15.0001 20C12.7637 20 10.8131 18.7765 9.78116 16.9624ZM7.00006 14C7.00006 9.84526 10.1672 6.43026 14.219 6.03765C13.187 4.2235 11.2364 3 9.00006 3C5.68635 3 3.00006 5.68629 3.00006 9C3.00006 10.2561 3.38602 11.422 4.04581 12.3856L3.00006 15L5.61445 13.9542C6.04796 14.2511 6.5224 14.4925 7.02757 14.6682C7.00935 14.4479 7.00006 14.225 7.00006 14ZM9.00006 1C12.4088 1 15.3196 3.1319 16.4718 6.13509C20.1871 6.82596 23.0001 10.0845 23.0001 14C23.0001 15.2712 22.7023 16.4764 22.1726 17.5462L22.857 19.2572C23.1541 20.0001 22.98 20.8485 22.4143 21.4142C21.8485 21.9799 21.0001 22.1541 20.2573 21.857L18.5463 21.1725C17.4764 21.7022 16.2713 22 15.0001 22C11.5912 22 8.68034 19.8679 7.52819 16.8646C6.79746 16.7284 6.1009 16.4929 5.45386 16.1725L3.74284 16.857C3.00001 17.1541 2.15157 16.9799 1.58585 16.4142C1.02012 15.8485 0.845971 15.0001 1.1431 14.2572L1.82751 12.5462C1.29784 11.4764 1.00006 10.2712 1.00006 9C1.00006 4.58172 4.58178 1 9.00006 1ZM13.0001 14C13.0001 14.5523 12.5523 15 12.0001 15C11.4478 15 11.0001 14.5523 11.0001 14C11.0001 13.4477 11.4478 13 12.0001 13C12.5523 13 13.0001 13.4477 13.0001 14ZM15.0001 15C15.5523 15 16.0001 14.5523 16.0001 14C16.0001 13.4477 15.5523 13 15.0001 13C14.4478 13 14.0001 13.4477 14.0001 14C14.0001 14.5523 14.4478 15 15.0001 15ZM18.0001 15C18.5523 15 19.0001 14.5523 19.0001 14C19.0001 13.4477 18.5523 13 18.0001 13C17.4478 13 17.0001 13.4477 17.0001 14C17.0001 14.5523 17.4478 15 18.0001 15Z" fill="#313234"/>
</svg>
