<svg width="24" height="24" viewBox="0 0 24 24" fill="none" xmlns="http://www.w3.org/2000/svg">
<path fill-rule="evenodd" clip-rule="evenodd" d="M19.9394 4.05705C19.5489 3.66653 18.9157 3.66653 18.5252 4.05705L14.7929 7.78929L14.1852 7.1815C13.4998 6.49609 13.1571 6.15339 12.8628 6.13024C12.6075 6.11015 12.358 6.21349 12.1917 6.40821C12.0001 6.63264 12.0001 7.11729 12.0001 8.08659V10.3964C12.0001 10.9565 12.0001 11.2365 12.1091 11.4504C12.2049 11.6386 12.3579 11.7915 12.5461 11.8874C12.76 11.9964 13.04 11.9964 13.6001 11.9964H15.9099C16.8792 11.9964 17.3638 11.9964 17.5882 11.8047C17.783 11.6384 17.8863 11.3889 17.8662 11.1336C17.8431 10.8394 17.5004 10.4967 16.815 9.81133L16.815 9.81131L16.815 9.8113L16.2072 9.20351L19.9394 5.47127C20.3299 5.08074 20.3299 4.44758 19.9394 4.05705ZM11.9965 15.9097C11.9965 16.8791 11.9965 17.3637 11.8048 17.5881C11.6385 17.7829 11.389 17.8862 11.1337 17.8661C10.8395 17.8429 10.4968 17.5002 9.81142 16.8148L9.20362 16.207L5.47139 19.9393C5.08086 20.3298 4.4477 20.3298 4.05718 19.9393C3.66665 19.5487 3.66665 18.9156 4.05718 18.5251L7.7894 14.7928L7.18161 14.185C6.49621 13.4996 6.15351 13.1569 6.13035 12.8627C6.11026 12.6074 6.2136 12.3579 6.40833 12.1916C6.63275 11.9999 7.1174 11.9999 8.08671 11.9999H10.3965C10.9566 11.9999 11.2366 11.9999 11.4505 12.1089C11.6387 12.2048 11.7917 12.3578 11.8875 12.546C11.9965 12.7599 11.9965 13.0399 11.9965 13.5999V15.9097Z" fill="#313234"/>
</svg>
