<svg width="24" height="24" viewBox="0 0 24 24" fill="none" xmlns="http://www.w3.org/2000/svg">
<path fill-rule="evenodd" clip-rule="evenodd" d="M4.00464 11.9995C4.00464 16.4105 7.59364 19.9995 12.0046 19.9995C16.4156 19.9995 20.0046 16.4105 20.0046 11.9995C20.0046 11.7695 19.9936 11.5385 19.9716 11.3025C16.1546 10.8925 13.1116 7.84951 12.7016 4.03251C12.4666 4.01051 12.2346 3.99951 12.0046 3.99951C7.59364 3.99951 4.00464 7.58851 4.00464 11.9995ZM21.6776 9.34951L21.8286 10.1665C21.9466 10.8015 22.0046 11.4015 22.0046 11.9995C22.0046 17.5135 17.5186 21.9995 12.0046 21.9995C6.49064 21.9995 2.00464 17.5135 2.00464 11.9995C2.00464 6.48551 6.49064 1.99951 12.0046 1.99951C12.5956 1.99951 13.2126 2.05951 13.8376 2.17451L14.6546 2.32651V3.15751C14.6576 6.56851 17.4356 9.34651 20.8466 9.34951H21.6776ZM10.0002 7C10.9662 7 11.7502 7.783 11.7502 8.75C11.7502 9.716 10.9662 10.5 10.0002 10.5C9.03324 10.5 8.25024 9.716 8.25024 8.75C8.25024 7.783 9.03324 7 10.0002 7ZM15.0002 11.5C14.0332 11.5 13.2502 12.283 13.2502 13.25C13.2502 14.216 14.0332 15 15.0002 15C15.9662 15 16.7502 14.216 16.7502 13.25C16.7502 12.283 15.9662 11.5 15.0002 11.5ZM10.2502 16.75C10.2502 15.783 11.0332 15 12.0002 15C12.9662 15 13.7502 15.783 13.7502 16.75C13.7502 17.716 12.9662 18.5 12.0002 18.5C11.0332 18.5 10.2502 17.716 10.2502 16.75Z" fill="#313234"/>
</svg>
