<svg width="24" height="24" viewBox="0 0 24 24" fill="none" xmlns="http://www.w3.org/2000/svg">
<path fill-rule="evenodd" clip-rule="evenodd" d="M3.49997 5H20.5C21.327 5 22 5.673 22 6.5V9H20V7H3.99997V16.9999H14L13.9998 18.9999L0.999887 19C0.447563 19 -0.000172629 18.5522 -0.000122066 17.9999C-7.15041e-05 17.4476 0.447592 17 0.999817 16.9999L1.99997 16.9999V6.5C1.99997 5.673 2.67297 5 3.49997 5ZM20.006 19.9999H17.006V11.9999H20.006V19.9999ZM15.506 9.99988H21.506C21.782 9.99988 22.006 10.2239 22.006 10.4999V21.4999C22.006 21.7759 21.782 21.9999 21.506 21.9999H15.506C15.229 21.9999 15.006 21.7759 15.006 21.4999V10.4999C15.006 10.2239 15.229 9.99988 15.506 9.99988Z" fill="#313234"/>
</svg>
