<svg width="24" height="24" viewBox="0 0 24 24" fill="none" xmlns="http://www.w3.org/2000/svg">
<path fill-rule="evenodd" clip-rule="evenodd" d="M3.50007 4.99997H20.5C21.327 4.99997 22 5.67297 22 6.49997V8.99995H20V6.99996H4.00007V16.9998H14L13.9998 18.9998L1 18.9999C0.447683 18.9999 -5.0558e-05 18.5521 4.28206e-09 17.9998C5.0566e-05 17.4476 0.447712 16.9999 0.999934 16.9999L2.00008 16.9998V6.49997C2.00008 5.67297 2.67308 4.99997 3.50007 4.99997ZM20.006 19.9998H17.006V11.9998H20.006V19.9998ZM15.506 9.99983H21.506C21.782 9.99983 22.006 10.2238 22.006 10.4998V21.4998C22.006 21.7758 21.782 21.9998 21.506 21.9998H15.506C15.229 21.9998 15.006 21.7758 15.006 21.4998V10.4998C15.006 10.2238 15.229 9.99983 15.506 9.99983Z" fill="#313234"/>
</svg>
