<svg width="24" height="24" viewBox="0 0 24 24" fill="none" xmlns="http://www.w3.org/2000/svg">
<path d="M17.0001 8.25C17.0001 9.492 18.0072 10.5 19.2501 10.5C20.493 10.5 21.5001 9.492 21.5001 8.25C21.5001 7.0071 20.493 6 19.2501 6C18.0072 6 17.0001 7.0071 17.0001 8.25Z" fill="#313234"/>
<path d="M17.0001 15.7502C17.0001 16.9922 18.0072 18.0002 19.2501 18.0002C20.493 18.0002 21.5001 16.9922 21.5001 15.7502C21.5001 14.5073 20.493 13.5002 19.2501 13.5002C18.0072 13.5002 17.0001 14.5073 17.0001 15.7502Z" fill="#313234"/>
<path d="M12.0001 10.5C10.7572 10.5 9.75009 9.492 9.75009 8.25C9.75009 7.0071 10.7572 6 12.0001 6C13.243 6 14.2501 7.0071 14.2501 8.25C14.2501 9.492 13.243 10.5 12.0001 10.5Z" fill="#313234"/>
<path d="M9.75009 15.7502C9.75009 16.9922 10.7572 18.0002 12.0001 18.0002C13.243 18.0002 14.2501 16.9922 14.2501 15.7502C14.2501 14.5073 13.243 13.5002 12.0001 13.5002C10.7572 13.5002 9.75009 14.5073 9.75009 15.7502Z" fill="#313234"/>
<path d="M4.75 10.5C3.5071 10.5 2.5 9.492 2.5 8.25C2.5 7.0071 3.5071 6 4.75 6C5.9929 6 7 7.0071 7 8.25C7 9.492 5.9929 10.5 4.75 10.5Z" fill="#313234"/>
<path d="M2.5 15.7502C2.5 16.9922 3.5071 18.0002 4.75 18.0002C5.9929 18.0002 7 16.9922 7 15.7502C7 14.5073 5.9929 13.5002 4.75 13.5002C3.5071 13.5002 2.5 14.5073 2.5 15.7502Z" fill="#313234"/>
</svg>
