<svg width="24" height="24" viewBox="0 0 24 24" fill="none" xmlns="http://www.w3.org/2000/svg">
<path fill-rule="evenodd" clip-rule="evenodd" d="M2.00158 9.43906C1.99933 9.47614 1.99917 9.51318 2.00105 9.55C1.99997 9.81424 1.99997 10.0969 1.99997 10.4V13.6C1.99997 15.8402 1.99997 16.9603 2.43594 17.816C2.81944 18.5686 3.43136 19.1805 4.18401 19.564C5.03965 20 6.15976 20 8.39997 20H15.6C17.8402 20 18.9603 20 19.8159 19.564C20.5686 19.1805 21.1805 18.5686 21.564 17.816C22 16.9603 22 15.8402 22 13.6V10.4C22 10.0969 22 9.81438 21.9989 9.5502C22.0008 9.51325 22.0006 9.47608 21.9984 9.43886C21.9896 7.82004 21.9326 6.90751 21.564 6.18404C21.1805 5.43139 20.5686 4.81947 19.8159 4.43597C18.9603 4 17.8402 4 15.6 4H8.39997C6.15976 4 5.03965 4 4.18401 4.43597C3.43136 4.81947 2.81944 5.43139 2.43594 6.18404C2.0673 6.90754 2.01037 7.82012 2.00158 9.43906ZM8.39997 6H15.6C16.7531 6 17.4976 6.00156 18.0643 6.04785C18.6076 6.09225 18.8091 6.1676 18.908 6.21799C19.2843 6.40973 19.5902 6.71569 19.782 7.09202C19.8324 7.19091 19.9077 7.39235 19.9521 7.93567C19.9741 8.20423 19.9859 8.51274 19.9924 8.88576L12.4472 12.6584C12.1657 12.7991 11.8343 12.7991 11.5528 12.6584L4.00755 8.88575C4.01399 8.51274 4.02588 8.20423 4.04782 7.93567C4.09222 7.39235 4.16757 7.19091 4.21796 7.09202C4.4097 6.71569 4.71566 6.40973 5.09199 6.21799C5.19088 6.1676 5.39231 6.09225 5.93564 6.04785C6.50232 6.00156 7.24686 6 8.39997 6ZM20 11.118V13.6C20 14.7531 19.9984 15.4977 19.9521 16.0643C19.9077 16.6077 19.8324 16.8091 19.782 16.908C19.5902 17.2843 19.2843 17.5903 18.908 17.782C18.8091 17.8324 18.6076 17.9078 18.0643 17.9521C17.4976 17.9984 16.7531 18 15.6 18H8.39997C7.24686 18 6.50232 17.9984 5.93564 17.9521C5.39231 17.9078 5.19088 17.8324 5.09199 17.782C4.71566 17.5903 4.4097 17.2843 4.21796 16.908C4.16757 16.8091 4.09222 16.6077 4.04782 16.0643C4.00152 15.4977 3.99997 14.7531 3.99997 13.6V11.118L10.6583 14.4472C11.5029 14.8695 12.497 14.8695 13.3416 14.4472L20 11.118Z" fill="#313234"/>
</svg>
