<svg width="24" height="24" viewBox="0 0 24 24" fill="none" xmlns="http://www.w3.org/2000/svg">
<path fill-rule="evenodd" clip-rule="evenodd" d="M15.6 4C16.4169 4 17.0848 4 17.6453 4.02114C17.0176 4.53687 16.5319 5.21921 16.2558 6.00056C16.0528 6.00006 15.8349 6 15.6 6H8.39997C7.24686 6 6.50232 6.00156 5.93564 6.04785C5.39231 6.09225 5.19088 6.1676 5.09199 6.21799C4.71566 6.40973 4.4097 6.71569 4.21796 7.09202C4.16757 7.19091 4.09222 7.39235 4.04782 7.93567C4.02588 8.20423 4.01399 8.51274 4.00755 8.88575L11.5528 12.6584C11.8343 12.7991 12.1657 12.7991 12.4472 12.6584L17.0309 10.3665C17.5132 10.9495 18.1397 11.409 18.8557 11.6902L13.3416 14.4472C12.497 14.8695 11.5029 14.8695 10.6583 14.4472L3.99997 11.118V13.6C3.99997 14.7531 4.00152 15.4977 4.04782 16.0643C4.09222 16.6077 4.16757 16.8091 4.21796 16.908C4.4097 17.2843 4.71566 17.5903 5.09199 17.782C5.19088 17.8324 5.39231 17.9078 5.93564 17.9521C6.50232 17.9984 7.24686 18 8.39997 18H15.6C16.7531 18 17.4976 17.9984 18.0643 17.9521C18.6076 17.9078 18.8091 17.8324 18.908 17.782C19.2843 17.5903 19.5902 17.2843 19.782 16.908C19.8324 16.8091 19.9077 16.6077 19.9521 16.0643C19.9984 15.4977 20 14.7531 20 13.6V11.9725C20.1641 11.9907 20.3309 12 20.4999 12C21.0259 12 21.5308 11.9098 22 11.7439V13.6C22 15.8402 22 16.9603 21.564 17.816C21.1805 18.5686 20.5686 19.1805 19.8159 19.564C18.9603 20 17.8402 20 15.6 20H8.39997C6.15976 20 5.03965 20 4.18401 19.564C3.43136 19.1805 2.81944 18.5686 2.43594 17.816C1.99997 16.9603 1.99997 15.8402 1.99997 13.6V10.4C1.99997 10.0969 1.99997 9.81424 2.00105 9.55C1.99917 9.51318 1.99933 9.47614 2.00158 9.43906C2.01037 7.82012 2.0673 6.90754 2.43594 6.18404C2.81944 5.43139 3.43136 4.81947 4.18401 4.43597C5.03965 4 6.15976 4 8.39997 4H15.6ZM20.4999 10C21.8807 10 22.9999 8.88071 22.9999 7.5C22.9999 6.11929 21.8807 5 20.4999 5C19.1192 5 17.9999 6.11929 17.9999 7.5C17.9999 8.88071 19.1192 10 20.4999 10Z" fill="#313234"/>
</svg>
