<svg width="24" height="24" viewBox="0 0 24 24" fill="none" xmlns="http://www.w3.org/2000/svg">
<path fill-rule="evenodd" clip-rule="evenodd" d="M11.9998 2.00012C6.48576 2.00012 1.99976 6.48612 1.99976 12.0001C1.99976 17.5141 6.48576 22.0001 11.9998 22.0001C17.5148 22.0001 21.9998 17.5141 21.9998 12.0001C21.9998 6.48612 17.5148 2.00012 11.9998 2.00012ZM11.9334 15.5953C11.2034 15.5953 10.6114 16.1873 10.6114 16.9183C10.6114 17.6483 11.2034 18.2403 11.9334 18.2403C12.6634 18.2403 13.2564 17.6483 13.2564 16.9183C13.2564 16.1873 12.6634 15.5953 11.9334 15.5953ZM13.1474 5.97992L13.0144 13.9869H10.8524L10.7204 5.97992H13.1474Z" fill="#313234"/>
</svg>
