<svg width="24" height="24" viewBox="0 0 24 24" fill="none" xmlns="http://www.w3.org/2000/svg">
<path fill-rule="evenodd" clip-rule="evenodd" d="M8.98682 4.09933C10.3415 1.80673 13.6586 1.80674 15.0133 4.09933L21.8797 15.7195C23.2584 18.0526 21.5765 21 18.8665 21H5.13363C2.42358 21 0.741704 18.0526 2.12039 15.7194L8.98682 4.09933ZM12.0006 18.8C11.2278 18.8 10.6001 18.1733 10.6001 17.4005C10.6001 16.6267 11.2278 16 12.0006 16C12.7734 16 13.4001 16.6267 13.4001 17.4005C13.4001 18.1733 12.7734 18.8 12.0006 18.8ZM12.0001 6C11.4478 6 11.0001 6.44771 11.0001 7V13C11.0001 13.5523 11.4478 14 12.0001 14C12.5523 14 13.0001 13.5523 13.0001 13V7C13.0001 6.44771 12.5523 6 12.0001 6Z" fill="#313234"/>
</svg>
