<svg width="24" height="24" viewBox="0 0 24 24" fill="none" xmlns="http://www.w3.org/2000/svg">
<path fill-rule="evenodd" clip-rule="evenodd" d="M6.34312 4.65683C8.32321 2.67675 9.31325 1.6867 10.4549 1.31576C11.4591 0.989472 12.5408 0.989472 13.5451 1.31576C14.6867 1.6867 15.6767 2.67675 17.6568 4.65683L19.3431 6.34312C21.3232 8.3232 22.3132 9.31325 22.6842 10.4549C23.0105 11.4591 23.0105 12.5408 22.6842 13.5451C22.3132 14.6867 21.3232 15.6767 19.3431 17.6568L17.6568 19.3431C15.6768 21.3232 14.6867 22.3132 13.5451 22.6842C12.5408 23.0105 11.4591 23.0105 10.4549 22.6842C9.31325 22.3132 8.32321 21.3232 6.34312 19.3431L4.65683 17.6568C2.67675 15.6767 1.6867 14.6867 1.31576 13.5451C0.989472 12.5408 0.989472 11.4591 1.31576 10.4549C1.6867 9.31325 2.67674 8.32321 4.65682 6.34313L6.34312 4.65683ZM12.0005 18.8C11.2277 18.8 10.6 18.1733 10.6 17.4005C10.6 16.6267 11.2277 16 12.0005 16C12.7733 16 13.4 16.6267 13.4 17.4005C13.4 18.1733 12.7733 18.8 12.0005 18.8ZM12 5.99998C11.1872 5.99998 10.5429 6.6858 10.5936 7.49706L10.9376 13.0019C10.9727 13.5629 11.4379 14 12 14C12.5621 14 13.0273 13.5629 13.0624 13.0019L13.4064 7.49706C13.4571 6.6858 12.8128 5.99998 12 5.99998Z" fill="#313234"/>
</svg>
