<svg width="24" height="24" viewBox="0 0 24 24" fill="none" xmlns="http://www.w3.org/2000/svg">
<path fill-rule="evenodd" clip-rule="evenodd" d="M20.1578 16.7369L13.2913 5.11679C12.7107 4.13424 11.2891 4.13425 10.7086 5.11679L3.84212 16.7369C3.25125 17.7368 3.97206 19 5.13351 19H18.8664C20.0278 19 20.7486 17.7368 20.1578 16.7369ZM15.0132 4.09933C13.6585 1.80674 10.3414 1.80673 8.9867 4.09933L2.12026 15.7194C0.741582 18.0526 2.42346 21 5.13351 21H18.8664C21.5764 21 23.2583 18.0526 21.8796 15.7195L15.0132 4.09933ZM12.0005 17.8C11.2277 17.8 10.5999 17.1733 10.5999 16.4005C10.5999 15.6267 11.2277 15 12.0005 15C12.7733 15 13.3999 15.6267 13.3999 16.4005C13.3999 17.1733 12.7733 17.8 12.0005 17.8ZM11.9999 7C11.4477 7 10.9999 7.44771 10.9999 8V13C10.9999 13.5523 11.4477 14 11.9999 14C12.5522 14 12.9999 13.5523 12.9999 13V8C12.9999 7.44771 12.5522 7 11.9999 7Z" fill="#313234"/>
</svg>
