<svg width="24" height="24" viewBox="0 0 24 24" fill="none" xmlns="http://www.w3.org/2000/svg">
<path fill-rule="evenodd" clip-rule="evenodd" d="M2.00024 12.0001C2.00024 6.47812 6.47724 2.00012 12.0002 2.00012C17.5222 2.00012 22.0002 6.47812 22.0002 12.0001C22.0002 17.5221 17.5222 22.0001 12.0002 22.0001C6.47724 22.0001 2.00024 17.5221 2.00024 12.0001ZM20.0002 12.0001C20.0002 7.58912 16.4112 4.00012 12.0002 4.00012C7.58824 4.00012 4.00024 7.58912 4.00024 12.0001C4.00024 16.4111 7.58824 20.0001 12.0002 20.0001C16.4112 20.0001 20.0002 16.4111 20.0002 12.0001ZM11.9904 17.7081H11.9944C16.3114 17.7081 17.5004 14.2491 17.5484 14.1021C17.7214 13.5771 17.4364 13.0121 16.9114 12.8391C16.3864 12.6651 15.8224 12.9521 15.6494 13.4771L15.649 13.4781C15.6288 13.5349 14.8578 15.7081 11.9944 15.7081H11.9914C9.16837 15.7061 8.38336 13.5681 8.34836 13.4691C8.17236 12.9501 7.61036 12.6651 7.08937 12.8391C6.56436 13.0111 6.27836 13.5761 6.45136 14.1011C6.49936 14.2481 7.68336 17.7041 11.9904 17.7081ZM8.78634 11.8253C7.94134 11.8253 7.58734 11.2153 7.58734 9.72032C7.58734 8.22532 7.94134 7.61432 8.78634 7.61432C9.63134 7.61432 9.98434 8.22532 9.98434 9.72032C9.98434 11.2153 9.63134 11.8253 8.78634 11.8253ZM14.015 9.72032C14.015 11.2153 14.368 11.8253 15.214 11.8253C16.059 11.8253 16.412 11.2153 16.412 9.72032C16.412 8.22532 16.059 7.61432 15.214 7.61432C14.368 7.61432 14.015 8.22532 14.015 9.72032Z" fill="#313234"/>
</svg>
