<svg width="24" height="24" viewBox="0 0 24 24" fill="none" xmlns="http://www.w3.org/2000/svg">
<path fill-rule="evenodd" clip-rule="evenodd" d="M4.00024 12.0001C4.00024 16.4111 7.58924 20.0001 12.0002 20.0001C16.4112 20.0001 20.0002 16.4111 20.0002 12.0001C20.0002 7.58912 16.4112 4.00012 12.0002 4.00012C7.58924 4.00012 4.00024 7.58912 4.00024 12.0001ZM2.00024 12.0001C2.00024 6.47812 6.47724 2.00012 12.0002 2.00012C17.5222 2.00012 22.0002 6.47812 22.0002 12.0001C22.0002 17.5221 17.5222 22.0001 12.0002 22.0001C6.47724 22.0001 2.00024 17.5221 2.00024 12.0001ZM6.28606 13.4698H17.7141C17.9641 13.4698 18.1581 13.7158 18.0811 13.9538C17.2531 16.5298 14.8471 18.4038 12.0001 18.4038C9.15306 18.4038 6.74706 16.5298 5.91906 13.9538C5.84206 13.7158 6.03506 13.4698 6.28606 13.4698ZM8.78634 11.6555C9.63134 11.6555 9.98434 11.0455 9.98434 9.55046C9.98434 8.05446 9.63134 7.44446 8.78634 7.44446C7.94134 7.44446 7.58734 8.05446 7.58734 9.55046C7.58734 11.0455 7.94134 11.6555 8.78634 11.6555ZM16.412 9.55046C16.412 11.0455 16.059 11.6555 15.214 11.6555C14.369 11.6555 14.015 11.0455 14.015 9.55046C14.015 8.05446 14.369 7.44446 15.214 7.44446C16.059 7.44446 16.412 8.05446 16.412 9.55046Z" fill="#313234"/>
</svg>
