<svg width="24" height="24" viewBox="0 0 24 24" fill="none" xmlns="http://www.w3.org/2000/svg">
<path fill-rule="evenodd" clip-rule="evenodd" d="M4.00024 12.0001C4.00024 16.4111 7.58924 20.0001 12.0002 20.0001C16.4112 20.0001 20.0002 16.4111 20.0002 12.0001C20.0002 7.58912 16.4112 4.00012 12.0002 4.00012C7.58924 4.00012 4.00024 7.58912 4.00024 12.0001ZM2.00024 12.0001C2.00024 6.47812 6.47724 2.00012 12.0002 2.00012C17.5222 2.00012 22.0002 6.47812 22.0002 12.0001C22.0002 17.5221 17.5222 22.0001 12.0002 22.0001C6.47724 22.0001 2.00024 17.5221 2.00024 12.0001ZM9.81763 10.9257V10.9347C9.81763 12.5427 9.43763 13.1997 8.52863 13.1997C7.61963 13.1997 7.23963 12.5427 7.23963 10.9347C7.23963 10.4047 7.28563 9.98674 7.37463 9.65274L6.13263 9.00474C5.64363 8.74974 5.45363 8.14574 5.70863 7.65674C5.96363 7.16574 6.56763 6.97674 7.05763 7.23174L10.8246 9.19574C11.3146 9.45074 11.5046 10.0547 11.2496 10.5437C11.0706 10.8867 10.7226 11.0817 10.3616 11.0817C10.2056 11.0817 10.0476 11.0457 9.90063 10.9687L9.81763 10.9257ZM12.006 13.7081H12.004C9.77204 13.7081 8.66604 15.0341 8.36404 15.8181C8.17004 16.3231 8.42004 16.8781 8.92004 17.0861C9.42004 17.2981 10 17.0531 10.222 16.5591C10.261 16.4721 10.643 15.7081 12.003 15.7081H12.005C13.344 15.7091 13.73 16.4541 13.776 16.5551C13.933 16.9401 14.306 17.1771 14.702 17.1771C14.821 17.1771 14.942 17.1551 15.06 17.1101C15.575 16.9131 15.833 16.3351 15.635 15.8191C15.336 15.0361 14.234 13.7101 12.006 13.7081ZM16.9422 7.23133C17.4322 6.97533 18.0362 7.16533 18.2912 7.65633C18.5462 8.14533 18.3562 8.75033 17.8672 9.00533L16.5982 9.66633C16.6842 9.99833 16.7292 10.4113 16.7292 10.9343C16.7292 12.5433 16.3492 13.1993 15.4402 13.1993C14.5332 13.1993 14.1532 12.5443 14.1522 10.9413L14.1002 10.9693C13.9522 11.0463 13.7942 11.0823 13.6382 11.0823C13.2772 11.0823 12.9292 10.8863 12.7502 10.5443C12.4952 10.0543 12.6852 9.45033 13.1752 9.19533L16.9422 7.23133Z" fill="#313234"/>
</svg>
