<svg width="24" height="24" viewBox="0 0 24 24" fill="none" xmlns="http://www.w3.org/2000/svg">
<path fill-rule="evenodd" clip-rule="evenodd" d="M12.0002 20.0001C7.58924 20.0001 4.00024 16.4111 4.00024 12.0001C4.00024 7.58912 7.58924 4.00012 12.0002 4.00012C16.4112 4.00012 20.0002 7.58912 20.0002 12.0001C20.0002 16.4111 16.4112 20.0001 12.0002 20.0001ZM12.0002 2.00012C6.47724 2.00012 2.00024 6.47812 2.00024 12.0001C2.00024 17.5221 6.47724 22.0001 12.0002 22.0001C17.5222 22.0001 22.0002 17.5221 22.0002 12.0001C22.0002 6.47812 17.5222 2.00012 12.0002 2.00012ZM8.78634 8.98254C7.94134 8.98254 7.58734 9.59254 7.58734 11.0875C7.58734 12.5835 7.94134 13.1935 8.78634 13.1935C9.63134 13.1935 9.98434 12.5835 9.98434 11.0875C9.98434 9.59254 9.63134 8.98254 8.78634 8.98254ZM14.015 11.0875C14.015 9.59254 14.369 8.98254 15.214 8.98254C16.059 8.98254 16.412 9.59254 16.412 11.0875C16.412 12.5835 16.059 13.1935 15.214 13.1935C14.369 13.1935 14.015 12.5835 14.015 11.0875Z" fill="#313234"/>
</svg>
