<svg width="24" height="24" viewBox="0 0 24 24" fill="none" xmlns="http://www.w3.org/2000/svg">
<path d="M14.015 9.72032C14.015 11.2153 14.368 11.8253 15.214 11.8253C16.059 11.8253 16.412 11.2153 16.412 9.72032C16.412 8.22532 16.059 7.61432 15.214 7.61432C14.368 7.61432 14.015 8.22532 14.015 9.72032Z" fill="#313234"/>
<path fill-rule="evenodd" clip-rule="evenodd" d="M12.0002 2.00012C6.47724 2.00012 2.00024 6.47812 2.00024 12.0001C2.00024 17.5221 6.47724 22.0001 12.0002 22.0001C17.5222 22.0001 22.0002 17.5221 22.0002 12.0001C22.0002 6.47812 17.5222 2.00012 12.0002 2.00012ZM12.0002 4.00012C16.4112 4.00012 20.0002 7.58912 20.0002 12.0001C20.0002 16.4111 16.4112 20.0001 12.0002 20.0001C11.2978 20.0001 10.6162 19.9091 9.96667 19.7383C10.0386 19.6786 10.1084 19.615 10.1758 19.5476C10.6704 19.053 10.9682 18.4206 11.0517 17.7596C12.3995 18.0489 13.853 17.714 14.9562 16.7546C15.373 16.3922 15.4171 15.7606 15.0547 15.3438C14.6923 14.9271 14.0606 14.883 13.6439 15.2454C12.7107 16.0569 11.3267 16.065 10.3845 15.2696L8.65103 11.8197C8.69466 11.8235 8.73975 11.8253 8.78634 11.8253C9.63134 11.8253 9.98434 11.2153 9.98434 9.72032C9.98434 8.22532 9.63134 7.61432 8.78634 7.61432C7.94134 7.61432 7.58734 8.22532 7.58734 9.72032C7.58734 10.2818 7.63727 10.7184 7.74437 11.0447L5.25699 15.9951C5.22787 16.0531 5.20073 16.1117 5.17556 16.1708C4.43024 14.9556 4.00024 13.5271 4.00024 12.0001C4.00024 7.58912 7.58824 4.00012 12.0002 4.00012ZM6.88524 16.8626L8.00211 14.638L9.12099 16.8631C9.36286 17.3451 9.26895 17.9278 8.88783 18.3089C8.3999 18.7962 7.60612 18.7962 7.1178 18.3085C6.73706 17.9278 6.64316 17.3451 6.88524 16.8626Z" fill="#313234"/>
</svg>
