<svg width="24" height="24" viewBox="0 0 24 24" fill="none" xmlns="http://www.w3.org/2000/svg">
<path fill-rule="evenodd" clip-rule="evenodd" d="M12.0002 18.0001C9.79424 18.0001 8.00024 16.2061 8.00024 14.0001C8.00024 13.1251 8.18824 12.5061 8.61124 11.8941C8.78924 12.3361 9.01924 12.7641 9.30024 13.1681C10.5372 14.9501 12.6452 16.0571 14.8012 16.0571C15.0202 16.0571 15.2362 16.0461 15.4492 16.0251C14.7522 17.2061 13.4672 18.0001 12.0002 18.0001ZM20.0002 14.0001C20.0002 9.24412 17.0002 5.95412 17.0002 5.95412C17.6372 8.33112 17.4812 9.88112 16.9342 10.8841C15.7432 13.0641 12.3482 11.3961 13.2102 9.06612C14.8012 4.76612 13.6412 4.09312 12.0002 1.00012C12.0002 1.00012 12.1512 2.72412 8.59424 6.25512C8.36024 6.48812 8.12224 6.70912 7.88224 6.92412C5.95924 8.65812 4.00024 10.0241 4.00024 14.0001C4.00024 18.4111 7.58924 22.0001 12.0002 22.0001C16.4112 22.0001 20.0002 18.4111 20.0002 14.0001Z" fill="#313234"/>
</svg>
