<svg width="24" height="24" viewBox="0 0 24 24" fill="none" xmlns="http://www.w3.org/2000/svg">
<path fill-rule="evenodd" clip-rule="evenodd" d="M20.0002 8.5C20.0002 8.776 19.7762 9 19.5002 9H16.0002V11H18.5002C18.7762 11 19.0002 11.224 19.0002 11.5V12.5C19.0002 12.776 18.7762 13 18.5002 13H16.0002V16.5C16.0002 16.776 15.7762 17 15.5002 17H14.5002C14.2242 17 14.0002 16.776 14.0002 16.5V13V11V9V7.5C14.0002 7.224 14.2242 7 14.5002 7H16.0002H19.5002C19.7762 7 20.0002 7.224 20.0002 7.5V8.5ZM13.0002 16.5C13.0002 16.776 12.7762 17 12.5002 17H11.5002C11.2242 17 11.0002 16.776 11.0002 16.5V7.5C11.0002 7.224 11.2242 7 11.5002 7H12.5002C12.7762 7 13.0002 7.224 13.0002 7.5V16.5ZM10.0002 8.5C10.0002 8.776 9.77624 9 9.50024 9H6.00024V15H8.00024V12.5C8.00024 12.224 8.22424 12 8.50024 12H9.50024C9.77624 12 10.0002 12.224 10.0002 12.5V16.5C10.0002 16.776 9.77624 17 9.50024 17H6.00024C4.89624 17 4.00024 16.104 4.00024 15V9C4.00024 7.896 4.89624 7 6.00024 7H9.50024C9.77624 7 10.0002 7.224 10.0002 7.5V8.5ZM20.0002 5H4.00024C2.89624 5 2.00024 5.896 2.00024 7V17C2.00024 18.104 2.89624 19 4.00024 19H20.0002C21.1042 19 22.0002 18.104 22.0002 17V7C22.0002 5.896 21.1042 5 20.0002 5Z" fill="#313234"/>
</svg>
