<svg width="24" height="24" viewBox="0 0 24 24" fill="none" xmlns="http://www.w3.org/2000/svg">
<path fill-rule="evenodd" clip-rule="evenodd" d="M15.3335 19.2628C16.1525 17.5718 16.6315 15.2968 16.7385 12.9998H19.9305C19.5805 15.7878 17.7925 18.1288 15.3335 19.2628ZM4.06949 12.9998H7.26249C7.37049 15.2968 7.84949 17.5728 8.66849 19.2638C6.20849 18.1308 4.41949 15.7878 4.06949 12.9998ZM8.66849 4.73576C7.84949 6.42676 7.37049 8.70176 7.26249 10.9998H4.06949C4.41949 8.21076 6.20849 5.86876 8.66849 4.73576ZM9.26249 10.9998C9.46649 6.69676 10.9535 4.00076 12.0005 4.00076C13.0485 4.00076 14.5345 6.69676 14.7385 10.9998H9.26249ZM12.0005 19.9988C10.9535 19.9988 9.46649 17.3028 9.26249 12.9998H14.7385C14.5345 17.3028 13.0485 19.9988 12.0005 19.9988ZM19.9305 10.9998H16.7385C16.6315 8.70276 16.1525 6.42776 15.3335 4.73676C17.7925 5.87076 19.5805 8.21176 19.9305 10.9998ZM12.0005 1.99976C6.48549 1.99976 2.00049 6.48576 2.00049 11.9998C2.00049 17.5138 6.48549 21.9998 12.0005 21.9998C17.5145 21.9998 22.0005 17.5138 22.0005 11.9998C22.0005 6.48576 17.5145 1.99976 12.0005 1.99976Z" fill="#313234"/>
</svg>
