<svg width="24" height="24" viewBox="0 0 24 24" fill="none" xmlns="http://www.w3.org/2000/svg">
<path d="M12.0002 20.0001V22.0001C13.9601 22.0001 15.7902 21.4333 17.3351 20.4551L15.8766 18.9966C14.7275 19.6358 13.4056 20.0001 12.0002 20.0001Z" fill="#313234"/>
<path fill-rule="evenodd" clip-rule="evenodd" d="M19.6465 18.4381C21.1145 16.6973 22.0002 14.4502 22.0002 12.0001C22.0002 6.48612 17.5142 2.00012 12.0002 2.00012C9.55011 2.00012 7.303 2.88581 5.56222 4.35383L4.12129 2.91291C3.73077 2.52238 3.0976 2.52238 2.70708 2.91291C2.31656 3.30343 2.31656 3.9366 2.70708 4.32712L19.6776 21.2977C20.0682 21.6882 20.7013 21.6882 21.0919 21.2977C21.4824 20.9072 21.4824 20.274 21.0919 19.8835L19.6465 18.4381ZM6.98228 5.7739C8.3556 4.66491 10.1018 4.00012 12.0002 4.00012C16.4112 4.00012 20.0002 7.58912 20.0002 12.0001C20.0002 13.8985 19.3354 15.6447 18.2264 17.018L6.98228 5.7739Z" fill="#313234"/>
<path d="M3.5452 6.66525L5.00369 8.12373C4.36451 9.27275 4.00017 10.5947 4.00017 12.0001H2.00017C2.00017 10.0402 2.56695 8.21013 3.5452 6.66525Z" fill="#313234"/>
<path d="M7.99998 17.4142L11.1471 14.2671L9.73287 12.8529L6.58576 16H4.91419C4.64897 16 4.39462 16.1054 4.20708 16.2929L1.92675 18.5732C1.76926 18.7307 1.8808 19 2.10353 19H4.99997V21.8965C4.99997 22.1192 5.26926 22.2307 5.42675 22.0732L7.70708 19.7929C7.89462 19.6054 7.99998 19.351 7.99998 19.0858V17.4142Z" fill="#313234"/>
</svg>
