<svg width="24" height="24" viewBox="0 0 24 24" fill="none" xmlns="http://www.w3.org/2000/svg">
<path d="M12.0002 20.0001V22.0001C17.5142 22.0001 22.0002 17.5141 22.0002 12.0001C22.0002 6.48612 17.5142 2.00012 12.0002 2.00012C6.48617 2.00012 2.00017 6.48612 2.00017 12.0001H4.00017C4.00017 7.58912 7.58917 4.00012 12.0002 4.00012C16.4112 4.00012 20.0002 7.58912 20.0002 12.0001C20.0002 16.4111 16.4112 20.0001 12.0002 20.0001Z" fill="#313234"/>
<path d="M12.0002 9.99911C10.8962 9.99911 10.0002 10.8951 10.0002 11.9991C10.0002 12.1785 10.0238 12.3523 10.0681 12.5177L6.58576 16H4.91419C4.64897 16 4.39462 16.1054 4.20708 16.2929L1.92675 18.5732C1.76926 18.7307 1.8808 19 2.10353 19H4.99997V21.8965C4.99997 22.1192 5.26926 22.2307 5.42675 22.0732L7.70708 19.7929C7.89462 19.6054 7.99998 19.351 7.99998 19.0858V17.4142L11.4827 13.9315C11.6478 13.9756 11.8212 13.9991 12.0002 13.9991C13.1042 13.9991 14.0002 13.1041 14.0002 11.9991C14.0002 10.8951 13.1042 9.99911 12.0002 9.99911Z" fill="#313234"/>
</svg>
