<svg width="24" height="24" viewBox="0 0 24 24" fill="none" xmlns="http://www.w3.org/2000/svg">
<path fill-rule="evenodd" clip-rule="evenodd" d="M13.7755 21H10.2245C9.9625 21 9.7505 20.787 9.7505 20.525V3.475C9.7505 3.212 9.9625 3 10.2245 3H13.7755C14.0375 3 14.2505 3.212 14.2505 3.475V20.525C14.2505 20.787 14.0375 21 13.7755 21ZM20.5255 21H16.9745C16.7125 21 16.5005 20.787 16.5005 20.525V8.475C16.5005 8.212 16.7125 8 16.9745 8H20.5255C20.7875 8 21.0005 8.212 21.0005 8.475V20.525C21.0005 20.787 20.7875 21 20.5255 21ZM3.52 21H6.98C7.267 21 7.5 20.768 7.5 20.48V15.52C7.5 15.232 7.267 15 6.98 15H3.52C3.232 15 3 15.232 3 15.52V20.48C3 20.768 3.232 21 3.52 21Z" fill="#313234"/>
</svg>
