<svg width="24" height="24" viewBox="0 0 24 24" fill="none" xmlns="http://www.w3.org/2000/svg">
<path fill-rule="evenodd" clip-rule="evenodd" d="M9.00014 4.00012C10.1031 4.00012 11.0001 4.89712 11.0001 6.00012C11.0001 7.10312 10.1031 8.00012 9.00014 8.00012C7.89714 8.00012 7.00014 7.10312 7.00014 6.00012C7.00014 4.89712 7.89714 4.00012 9.00014 4.00012ZM9.00014 10.0001C11.2061 10.0001 13.0001 8.20612 13.0001 6.00012C13.0001 3.79412 11.2061 2.00012 9.00014 2.00012C6.79414 2.00012 5.00014 3.79412 5.00014 6.00012C5.00014 8.20612 6.79414 10.0001 9.00014 10.0001ZM17.9342 19.0001C17.7482 17.3261 17.1072 15.7961 16.1342 14.5311C16.1785 14.5282 16.2241 14.5224 16.2697 14.5166L16.2697 14.5166C16.334 14.5083 16.3983 14.5001 16.4592 14.5001C19.1192 14.5001 21.3932 16.4351 21.8682 19.0001H17.9342ZM14.9401 19.0001H2.07013C2.55813 15.5941 5.50313 13.0001 9.00013 13.0001C12.4971 13.0001 15.4411 15.5941 15.9291 19.0001H14.9401ZM16.4591 12.5001C16.0201 12.5001 15.5791 12.5421 15.1101 12.6271L14.3361 12.7681C12.8371 11.6601 10.9901 11.0001 9.00014 11.0001C4.26914 11.0001 0.324136 14.6941 0.0181363 19.4121C-0.00686369 19.8181 0.139136 20.2231 0.420136 20.5211C0.705136 20.8261 1.10714 21.0001 1.52314 21.0001H14.9401H16.4771H22.4361C22.8571 21.0001 23.2621 20.8231 23.5471 20.5131C23.8271 20.2101 23.9681 19.8031 23.9351 19.3981C23.6271 15.5301 20.3441 12.5001 16.4591 12.5001ZM20.7266 10.7266C20.3621 11.0911 19.7711 11.0911 19.4066 10.7266L17.4999 8.81993L15.5932 10.7266C15.2288 11.0911 14.6378 11.0911 14.2733 10.7266C13.9088 10.3621 13.9088 9.77119 14.2733 9.4067L16.18 7.5L14.2733 5.5933C13.9088 5.22881 13.9088 4.63786 14.2733 4.27337C14.6378 3.90888 15.2287 3.90888 15.5932 4.27337L17.4999 6.18007L19.4066 4.27337C19.7711 3.90888 20.3621 3.90888 20.7266 4.27337C21.0911 4.63786 21.0911 5.22881 20.7266 5.5933L18.8199 7.5L20.7266 9.4067C21.0911 9.77119 21.0911 10.3621 20.7266 10.7266Z" fill="#313234"/>
</svg>
