<svg width="24" height="24" viewBox="0 0 24 24" fill="none" xmlns="http://www.w3.org/2000/svg">
<path fill-rule="evenodd" clip-rule="evenodd" d="M8.98432 11.1998C10.9723 11.1998 12.5843 9.58776 12.5843 7.59976C12.5843 5.61176 10.9723 3.99976 8.98432 3.99976C6.99632 3.99976 5.38432 5.61176 5.38432 7.59976C5.38432 9.58776 6.99632 11.1998 8.98432 11.1998ZM19.4093 9.92515C19.4093 11.5402 18.0993 12.8502 16.4843 12.8502C14.8683 12.8502 13.5593 11.5402 13.5593 9.92515C13.5593 8.30915 14.8683 7.00015 16.4843 7.00015C18.0993 7.00015 19.4093 8.30915 19.4093 9.92515ZM15.3143 13.6111C15.6943 13.5421 16.0843 13.5001 16.4843 13.5001C19.8983 13.5001 22.6973 16.1311 22.9633 19.4771C22.9853 19.7611 22.7463 20.0001 22.4613 20.0001H18.4643C18.1953 20.0001 17.9853 19.7871 17.9713 19.5191C17.8493 17.2141 16.8543 15.1371 15.3143 13.6111ZM1.00132 19.4761C1.27132 15.3021 4.74232 12.0001 8.98432 12.0001C13.2263 12.0001 16.6973 15.3021 16.9673 19.4761C16.9853 19.7601 16.7463 20.0001 16.4613 20.0001H1.50732C1.22232 20.0001 0.983321 19.7601 1.00132 19.4761Z" fill="#313234"/>
</svg>
