<svg width="24" height="24" viewBox="0 0 24 24" fill="none" xmlns="http://www.w3.org/2000/svg">
<path fill-rule="evenodd" clip-rule="evenodd" d="M11.0001 6.00012C11.0001 4.89712 10.1031 4.00012 9.00014 4.00012C7.89714 4.00012 7.00014 4.89712 7.00014 6.00012C7.00014 7.10312 7.89714 8.00012 9.00014 8.00012C10.1031 8.00012 11.0001 7.10312 11.0001 6.00012ZM13.0001 6.00012C13.0001 8.20612 11.2061 10.0001 9.00014 10.0001C6.79414 10.0001 5.00014 8.20612 5.00014 6.00012C5.00014 3.79412 6.79414 2.00012 9.00014 2.00012C11.2061 2.00012 13.0001 3.79412 13.0001 6.00012ZM16.5001 7.50012C17.0511 7.50012 17.5001 7.94912 17.5001 8.50012C17.5001 9.05112 17.0511 9.50012 16.5001 9.50012C15.9491 9.50012 15.5001 9.05112 15.5001 8.50012C15.5001 7.94912 15.9491 7.50012 16.5001 7.50012ZM16.5001 11.5001C18.1541 11.5001 19.5001 10.1541 19.5001 8.50012C19.5001 6.84612 18.1541 5.50012 16.5001 5.50012C14.8461 5.50012 13.5001 6.84612 13.5001 8.50012C13.5001 10.1541 14.8461 11.5001 16.5001 11.5001ZM17.9342 19.0001C17.7482 17.3261 17.1072 15.7961 16.1342 14.5311C16.1785 14.5282 16.2241 14.5224 16.2697 14.5166L16.2697 14.5166C16.334 14.5083 16.3983 14.5001 16.4592 14.5001C19.1192 14.5001 21.3932 16.4351 21.8682 19.0001H17.9342ZM14.9401 19.0001H2.07013C2.55813 15.5941 5.50313 13.0001 9.00013 13.0001C12.4971 13.0001 15.4411 15.5941 15.9291 19.0001H14.9401ZM16.4591 12.5001C16.0201 12.5001 15.5791 12.5421 15.1101 12.6271L14.3361 12.7681C12.8371 11.6601 10.9901 11.0001 9.00014 11.0001C4.26914 11.0001 0.324136 14.6941 0.0181363 19.4121C-0.00686369 19.8181 0.139136 20.2231 0.420136 20.5211C0.705136 20.8261 1.10714 21.0001 1.52314 21.0001H14.9401H16.4771H22.4361C22.8571 21.0001 23.2621 20.8231 23.5471 20.5131C23.8271 20.2101 23.9681 19.8031 23.9351 19.3981C23.6271 15.5301 20.3441 12.5001 16.4591 12.5001Z" fill="#313234"/>
</svg>
