<svg width="24" height="24" viewBox="0 0 24 24" fill="none" xmlns="http://www.w3.org/2000/svg">
<path d="M16.7771 2.56444C16.4066 2.19392 15.9662 2.05005 15.537 2.05005C15.1091 2.05005 14.6668 2.19544 14.3001 2.56217L8.83015 8.03108L8.62767 8.24311C7.5772 9.39512 6.99996 10.8817 6.99996 12.451V13.227L7.00508 13.4828C7.10388 15.9454 8.62423 18.1084 10.9285 19.0306C11.7753 19.3683 12.6655 19.54 13.573 19.54H16.25L16.4418 19.5343C17.7138 19.4587 18.8406 18.6352 19.2922 17.4324L21.5421 11.4316L21.611 11.2289C21.9002 10.2782 21.7429 9.26368 21.1702 8.43776L21.0432 8.26612C20.4284 7.48845 19.504 7.04005 18.5 7.04005L14.7708 7.0393L16.7748 5.03693L16.888 4.91188C17.4539 4.22349 17.4163 3.20692 16.7771 2.56444Z" fill="#313234"/>
<path d="M3.05425 9.27307C2.99976 9.38002 2.99976 9.52003 2.99976 9.80006V18.2001C2.99976 18.4801 2.99976 18.6201 3.05425 18.7271C3.10219 18.8211 3.17868 18.8976 3.27276 18.9456C3.37972 19.0001 3.51973 19.0001 3.79976 19.0001H5.19976C5.47978 19.0001 5.6198 19.0001 5.72675 18.9456C5.82083 18.8976 5.89732 18.8211 5.94526 18.7271C5.99976 18.6201 5.99976 18.4801 5.99976 18.2001V9.80006C5.99976 9.52003 5.99976 9.38002 5.94526 9.27307C5.89732 9.17898 5.82083 9.10249 5.72675 9.05456C5.6198 9.00006 5.47978 9.00006 5.19976 9.00006H3.79976C3.51973 9.00006 3.37972 9.00006 3.27276 9.05456C3.17868 9.10249 3.10219 9.17898 3.05425 9.27307Z" fill="#313234"/>
</svg>
