<svg width="24" height="24" viewBox="0 0 24 24" fill="none" xmlns="http://www.w3.org/2000/svg">
<path fill-rule="evenodd" clip-rule="evenodd" d="M18.2502 18C19.5612 18 20.7902 17.357 21.5382 16.278C22.2852 15.2 22.4552 13.823 21.9952 12.595L19.7452 6.595C19.1632 5.043 17.6582 4 16.0002 4H13.3232C12.3182 4 11.3352 4.19 10.4002 4.563C7.72716 5.632 6.00016 8.184 6.00016 11.063V11.839C6.00016 13.708 6.72816 15.467 8.05016 16.789L13.5192 22.258C14.4642 23.203 16.1112 23.203 17.0552 22.258C18.0292 21.283 18.0292 19.698 17.0552 18.723L16.3322 18H18.2502ZM17.8722 7.297L20.1222 13.298C20.3562 13.921 20.2732 14.592 19.8932 15.14C19.5152 15.687 18.9152 16 18.2502 16H14.1592C13.7142 16 13.3152 16.266 13.1442 16.677C12.9732 17.088 13.0652 17.559 13.3792 17.875L15.6412 20.137C15.8352 20.332 15.8352 20.649 15.6412 20.844C15.5132 20.972 15.3652 20.99 15.2872 20.99C15.2102 20.99 15.0612 20.971 14.9342 20.844L9.46416 15.375C8.52016 14.431 8.00016 13.175 8.00016 11.839V11.063C8.00016 9.006 9.23416 7.184 11.1432 6.42C11.8402 6.142 12.5732 6 13.3232 6H16.0002C16.8292 6 17.5812 6.522 17.8722 7.297Z" fill="#313234"/>
<path d="M2.05425 14.727C1.99976 14.6201 1.99976 14.48 1.99976 14.2V5.80001C1.99976 5.51999 1.99976 5.37997 2.05425 5.27302C2.10219 5.17894 2.17868 5.10245 2.27276 5.05451C2.37972 5.00001 2.51973 5.00001 2.79976 5.00001H4.19976C4.47978 5.00001 4.6198 5.00001 4.72675 5.05451C4.82083 5.10245 4.89732 5.17894 4.94526 5.27302C4.99976 5.37997 4.99976 5.51999 4.99976 5.80001V14.2C4.99976 14.48 4.99976 14.6201 4.94526 14.727C4.89732 14.8211 4.82083 14.8976 4.72675 14.9455C4.6198 15 4.47978 15 4.19976 15H2.79976C2.51973 15 2.37972 15 2.27276 14.9455C2.17868 14.8976 2.10219 14.8211 2.05425 14.727Z" fill="#313234"/>
</svg>
