<svg width="24" height="24" viewBox="0 0 24 24" fill="none" xmlns="http://www.w3.org/2000/svg">
<path fill-rule="evenodd" clip-rule="evenodd" d="M18.2502 5.96675C19.5612 5.96675 20.7902 6.60975 21.5382 7.68875C22.2852 8.76675 22.4552 10.1438 21.9952 11.3717L19.7452 17.3717C19.1632 18.9237 17.6582 19.9667 16.0002 19.9667H13.3232C12.3182 19.9667 11.3352 19.7767 10.4002 19.4037C7.72724 18.3347 6.00024 15.7828 6.00024 12.9038V12.1278C6.00024 10.2587 6.72824 8.49975 8.05024 7.17775L13.5192 1.70875C14.4642 0.76375 16.1112 0.76375 17.0552 1.70875C18.0292 2.68375 18.0292 4.26875 17.0552 5.24375L16.3322 5.96675H18.2502ZM20.1222 10.6987L17.8722 16.6997C17.5812 17.4747 16.8292 17.9967 16.0002 17.9967H13.3232C12.5732 17.9967 11.8402 17.8547 11.1432 17.5767C9.23424 16.8127 8.00024 14.9907 8.00024 12.9337V12.1577C8.00024 10.8217 8.52024 9.56574 9.46424 8.62174L14.9342 3.15274C15.0612 3.02574 15.2102 3.00674 15.2872 3.00674C15.3652 3.00674 15.5132 3.02474 15.6412 3.15274C15.8352 3.34774 15.8352 3.66474 15.6412 3.85974L13.3792 6.12174C13.0652 6.43774 12.9732 6.90874 13.1442 7.31974C13.3152 7.73074 13.7142 7.99674 14.1592 7.99674H18.2502C18.9152 7.99674 19.5152 8.30974 19.8932 8.85674C20.2732 9.40474 20.3562 10.0757 20.1222 10.6987ZM2.00024 9.8C2.00024 9.51997 2.00024 9.37996 2.05474 9.273C2.10268 9.17892 2.17917 9.10243 2.27325 9.0545C2.3802 9 2.52022 9 2.80024 9H4.20024C4.48027 9 4.62028 9 4.72724 9.0545C4.82132 9.10243 4.89781 9.17892 4.94575 9.273C5.00024 9.37996 5.00024 9.51997 5.00024 9.8V18.2C5.00024 18.48 5.00024 18.62 4.94575 18.727C4.89781 18.8211 4.82132 18.8976 4.72724 18.9455C4.62028 19 4.48027 19 4.20024 19H2.80024C2.52022 19 2.3802 19 2.27325 18.9455C2.17917 18.8976 2.10268 18.8211 2.05474 18.727C2.00024 18.62 2.00024 18.48 2.00024 18.2V9.8Z" fill="#313234"/>
</svg>
