<svg width="24" height="24" viewBox="0 0 24 24" fill="none" xmlns="http://www.w3.org/2000/svg">
<path d="M6.43855 2.74174C8.75955 0.420744 12.5386 0.418744 14.8616 2.74174C16.7366 4.61674 17.1056 7.50074 15.8806 9.77574L13.9806 9.05974C14.9556 7.51774 14.7586 5.46774 13.4476 4.15574C11.9036 2.61174 9.39455 2.61274 7.85255 4.15574C6.46255 5.54574 6.30755 7.77274 7.49155 9.33774C7.60055 9.48274 7.72055 9.61974 7.85155 9.75074L6.43955 11.1667C6.24055 10.9697 6.05955 10.7607 5.89555 10.5437C4.11255 8.18874 4.34555 4.83474 6.43855 2.74174Z" fill="#313234"/>
<path fill-rule="evenodd" clip-rule="evenodd" d="M8.40635 7.11475C8.40635 5.93985 9.31688 4.97777 10.4715 4.89633L10.6304 4.89075C11.8584 4.89075 12.8544 5.88669 12.8544 7.11475L12.854 10.369L18.4968 12.4949C19.8193 12.9898 20.7159 14.2194 20.7947 15.617L20.8004 15.8177V16.4157C20.8004 17.3002 20.6309 18.1785 20.3021 19.0017C19.3617 21.3551 17.0829 22.8977 14.5484 22.8977H13.8624C12.2191 22.8977 10.642 22.2442 9.48002 21.0822L4.65034 16.2535C3.78269 15.3842 3.78269 13.9783 4.65157 13.1077C5.5209 12.2401 6.9278 12.2401 7.79775 13.1084L8.40595 13.717L8.40635 7.11475ZM11.0543 7.11473C11.0543 6.88079 10.8643 6.69073 10.6304 6.69073C10.3959 6.69073 10.2063 6.88034 10.2063 7.11473V15.6767C10.2063 16.5614 9.1329 17.0003 8.51895 16.3751L6.52557 14.3817C6.3589 14.2154 6.0898 14.2154 5.92436 14.3805C5.75801 14.5472 5.75801 14.8153 5.92368 14.9813L10.7527 19.8093C11.5773 20.6339 12.6966 21.0977 13.8623 21.0977H14.5484C16.3468 21.0977 17.9634 20.0034 18.6306 18.3339C18.8746 17.7229 19.0003 17.0711 19.0003 16.4157V15.8177C19.0003 15.0887 18.548 14.4359 17.864 14.1799L11.0543 11.6144V7.11473Z" fill="#313234"/>
</svg>
