<svg width="24" height="24" viewBox="0 0 24 24" fill="none" xmlns="http://www.w3.org/2000/svg">
<path d="M16.7771 20.9756C16.4066 21.3461 15.9662 21.49 15.537 21.49C15.1091 21.49 14.6668 21.3446 14.3001 20.9779L8.83015 15.509L8.62767 15.2969C7.5772 14.1449 6.99996 12.6584 6.99996 11.089V10.313L7.00508 10.0572C7.10388 7.5946 8.62423 5.43168 10.9285 4.50949C11.7753 4.17175 12.6655 4 13.573 4H16.25L16.4418 4.0057C17.7138 4.08139 18.8406 4.90481 19.2922 6.1076L21.5421 12.1085L21.611 12.3111C21.9002 13.2618 21.7429 14.2764 21.1702 15.1023L21.0432 15.2739C20.4284 16.0516 19.504 16.5 18.5 16.5L14.7708 16.5007L16.7748 18.5031L16.888 18.6282C17.4539 19.3166 17.4163 20.3331 16.7771 20.9756Z" fill="#313234"/>
<path d="M3.05425 14.727C2.99976 14.62 2.99976 14.48 2.99976 14.2V5.80001C2.99976 5.51998 2.99976 5.37997 3.05425 5.27301C3.10219 5.17893 3.17868 5.10244 3.27276 5.05451C3.37972 5.00001 3.51973 5.00001 3.79976 5.00001H5.19976C5.47978 5.00001 5.6198 5.00001 5.72675 5.05451C5.82083 5.10244 5.89732 5.17893 5.94526 5.27301C5.99976 5.37997 5.99976 5.51998 5.99976 5.80001V14.2C5.99976 14.48 5.99976 14.62 5.94526 14.727C5.89732 14.8211 5.82083 14.8976 5.72675 14.9455C5.6198 15 5.47978 15 5.19976 15H3.79976C3.51973 15 3.37972 15 3.27276 14.9455C3.17868 14.8976 3.10219 14.8211 3.05425 14.727Z" fill="#313234"/>
</svg>
