<svg width="24" height="24" viewBox="0 0 24 24" fill="none" xmlns="http://www.w3.org/2000/svg">
<path fill-rule="evenodd" clip-rule="evenodd" d="M4.50928 12.213C4.38128 12.213 4.25328 12.262 4.15528 12.359C4.02828 12.487 4.00928 12.636 4.00928 12.713C4.00928 12.79 4.02828 12.939 4.15528 13.067L9.62528 18.535C10.5693 19.48 11.8243 20 13.1603 20H13.9373C15.9933 20 17.8163 18.767 18.5803 16.858C18.8583 16.16 19.0003 15.427 19.0003 14.677V14C19.0003 13.171 18.4783 12.419 17.7023 12.128L10.0003 9.225V3.5C10.0003 3.225 9.77628 3 9.50028 3C9.22428 3 9.00028 3.225 9.00028 3.5V13.841C9.00028 14.286 8.73428 14.685 8.32328 14.856C7.91128 15.028 7.44128 14.936 7.12428 14.621L4.86328 12.359C4.76528 12.262 4.63728 12.213 4.50928 12.213ZM13.9373 22H13.1603C11.2903 22 9.53228 21.272 8.21028 19.949L2.74128 14.481C2.26928 14.008 2.00928 13.381 2.00928 12.713C2.00928 12.044 2.26928 11.416 2.74228 10.944C3.71628 9.972 5.30228 9.971 6.27728 10.945L7.00028 11.668V3.5C7.00028 2.121 8.12128 1 9.50028 1C10.8783 1 12.0003 2.121 12.0003 3.5V7.842L18.4053 10.256C19.9563 10.836 21.0003 12.342 21.0003 14V14.677C21.0003 15.683 20.8103 16.666 20.4363 17.6C19.3673 20.273 16.8163 22 13.9373 22Z" fill="#313234"/>
</svg>
