<svg width="24" height="24" viewBox="0 0 24 24" fill="none" xmlns="http://www.w3.org/2000/svg">
<path fill-rule="evenodd" clip-rule="evenodd" d="M18.5803 16.8575C17.8163 18.7665 15.9943 20.0005 13.9373 20.0005H13.1583C11.8243 20.0005 10.5693 19.4805 9.62526 18.5375L4.12426 13.0435C4.00626 12.9255 3.98926 12.7895 3.98926 12.7175C3.98926 12.6455 4.00626 12.5085 4.15126 12.3645C4.24826 12.2665 4.37726 12.2125 4.51226 12.2115C4.64526 12.2115 4.77026 12.2645 4.86526 12.3585L7.12526 14.6225C7.44226 14.9345 7.91126 15.0285 8.32326 14.8565C8.73426 14.6855 9.00026 14.2865 9.00026 13.8405V4.50049C9.00026 4.22449 9.22426 4.00049 9.50026 4.00049C9.77626 4.00049 10.0003 4.22449 10.0003 4.50049V13.4955C10.0003 14.8765 11.1223 16.0005 12.5003 16.0005C13.0653 16.0005 13.5813 15.8035 14.0003 15.4865C14.4193 15.8035 14.9353 16.0005 15.5003 16.0005C16.8783 16.0005 18.0003 14.8765 18.0003 13.4955V10.9955L18.0073 7.47049C18.0083 7.20849 18.2233 6.99349 18.4863 6.99349C18.7683 6.99349 18.9983 7.22149 18.9983 7.50349L19.0003 14.6775C19.0003 15.4265 18.8593 16.1605 18.5803 16.8575ZM12.5003 10.0005C12.7763 10.0005 13.0003 10.2265 13.0003 10.5045V13.4955C13.0003 13.7735 12.7763 14.0005 12.5003 14.0005C12.2243 14.0005 12.0003 13.7735 12.0003 13.4955V10.5045C12.0003 10.2265 12.2243 10.0005 12.5003 10.0005ZM15.5003 10.0005C15.7763 10.0005 16.0003 10.2265 16.0003 10.5045V13.4955C16.0003 13.7735 15.7763 14.0005 15.5003 14.0005C15.2243 14.0005 15.0003 13.7735 15.0003 13.4955V10.5045C15.0003 10.2265 15.2243 10.0005 15.5003 10.0005ZM20.9983 7.50349C20.9983 6.11949 19.8723 4.99349 18.4863 4.99349C17.1223 4.99349 16.0113 6.10249 16.0073 7.46649L16.0063 8.05149C15.8433 8.01749 15.6733 8.00049 15.5003 8.00049C14.9353 8.00049 14.4193 8.19649 14.0003 8.51349C13.5813 8.19649 13.0653 8.00049 12.5003 8.00049C12.3293 8.00049 12.1623 8.01749 12.0003 8.05049V4.50049C12.0003 3.12149 10.8783 2.00049 9.50026 2.00049C8.12226 2.00049 7.00026 3.12149 7.00026 4.50049V11.6665L6.28126 10.9465C5.80926 10.4725 5.18126 10.2115 4.51426 10.2115H4.50926C3.84126 10.2135 3.21226 10.4755 2.70926 10.9765C2.24526 11.4425 1.98926 12.0605 1.98926 12.7175C1.98926 13.3765 2.24626 13.9945 2.71126 14.4595L8.21126 19.9525C9.53326 21.2725 11.2903 22.0005 13.1583 22.0005H13.9373C16.8163 22.0005 19.3673 20.2725 20.4363 17.5995C20.8103 16.6665 21.0003 15.6825 21.0003 14.6775L20.9983 7.50349Z" fill="#313234"/>
</svg>
