<svg width="24" height="24" viewBox="0 0 24 24" fill="none" xmlns="http://www.w3.org/2000/svg">
<path d="M18.0002 3.00012V1.00012C20.7572 1.00012 23.0002 3.23912 23.0002 5.99212H21.0002C21.0002 4.34312 19.6542 3.00012 18.0002 3.00012Z" fill="#313234"/>
<path fill-rule="evenodd" clip-rule="evenodd" d="M15.7213 4.74823C15.2493 5.22023 14.9913 5.84823 14.9923 6.51523V7.53223L9.92534 2.46523C8.95034 1.49023 7.36534 1.49023 6.39034 2.46523C6.16734 2.68723 6.00134 2.94423 5.88034 3.21723C5.07134 3.03423 4.18934 3.25123 3.56134 3.88023C3.08834 4.35123 2.82834 4.98023 2.83034 5.65023C2.83034 5.83823 2.85634 6.02123 2.89634 6.20023C2.62534 6.32123 2.36934 6.48623 2.14734 6.70823C1.17234 7.68323 1.17434 9.26923 2.15034 10.2472L2.53034 10.6272C2.39734 10.7162 2.27034 10.8182 2.15234 10.9352C1.67834 11.4102 1.41534 12.0402 1.41534 12.7102C1.41434 13.3812 1.67534 14.0122 2.14934 14.4872L7.22234 19.5612C7.93234 20.2712 8.76134 20.8332 9.68634 21.2292C10.5843 21.6142 11.5253 21.8022 12.4563 21.8022C14.2713 21.8022 16.0483 21.0912 17.3933 19.7452L17.9453 19.1942C19.2663 17.8732 19.9943 16.1172 19.9953 14.2492L20.0003 6.47523C20.0003 5.81623 19.7453 5.19823 19.2793 4.73223C18.3643 3.81623 16.6843 3.78423 15.7213 4.74823ZM17.9953 14.2472C17.9943 15.5822 17.4743 16.8372 16.5313 17.7802L15.9793 18.3312C14.5253 19.7852 12.3653 20.2012 10.4743 19.3922C9.78434 19.0962 9.16534 18.6772 8.63734 18.1472L3.56434 13.0742C3.46834 12.9772 3.41434 12.8492 3.41534 12.7132C3.41534 12.5762 3.46934 12.4482 3.56634 12.3502C3.75234 12.1642 4.05534 12.1632 4.24234 12.3502L6.74034 14.8372L7.45034 15.5472L8.86434 14.1332L3.56534 8.83323C3.36834 8.63623 3.36634 8.31723 3.56134 8.12223C3.68734 7.99623 3.83534 7.97623 3.91334 7.97623C4.04834 7.97723 4.17634 8.03023 4.27234 8.12623L9.57234 13.4262L10.9863 12.0122L4.97934 6.00523C4.84934 5.87523 4.83034 5.72523 4.83034 5.64623C4.83034 5.56923 4.84934 5.42123 4.97534 5.29423C5.17034 5.10023 5.48934 5.10123 5.68634 5.29723L6.38834 5.99823C6.38834 5.99923 6.38934 6.00023 6.39034 6.00123L11.6933 11.3042L13.1073 9.89023L7.80334 4.58523C7.60934 4.39023 7.60934 4.07423 7.80334 3.88023C7.99834 3.68523 8.31634 3.68423 8.51134 3.87923L15.1183 10.4872C15.4353 10.8022 15.9053 10.8952 16.3173 10.7222C16.7273 10.5512 16.9933 10.1522 16.9933 9.70723L16.9923 6.51223C16.9923 6.37923 17.0433 6.25523 17.1363 6.16123C17.3233 5.97423 17.7603 6.04323 17.8653 6.14623C17.9153 6.19723 18.0003 6.30723 18.0003 6.47323L17.9953 14.2472Z" fill="#313234"/>
<path d="M3.00024 17.004H1.00024C1.00024 19.757 3.23924 21.996 5.99224 21.996V19.996C4.34224 19.996 3.00024 18.653 3.00024 17.004Z" fill="#313234"/>
</svg>
