<svg width="24" height="24" viewBox="0 0 24 24" fill="none" xmlns="http://www.w3.org/2000/svg">
<path fill-rule="evenodd" clip-rule="evenodd" d="M18.5803 16.8575C17.8163 18.7665 15.9943 20.0005 13.9373 20.0005H13.1583C11.8243 20.0005 10.5693 19.4805 9.62526 18.5375L4.12426 13.0435C4.00626 12.9255 3.98926 12.7895 3.98926 12.7175C3.98926 12.6455 4.00626 12.5085 4.15026 12.3645C4.24826 12.2665 4.37726 12.2125 4.51226 12.2115C4.64526 12.2115 4.77026 12.2645 4.86526 12.3585L7.12526 14.6225C7.44226 14.9345 7.91126 15.0285 8.32326 14.8565C8.73426 14.6855 9.00026 14.2865 9.00026 13.8405V4.50049C9.00026 4.22449 9.22426 4.00049 9.50026 4.00049C9.77626 4.00049 10.0003 4.22449 10.0003 4.50049V12.0005H12.0003V3.50449C12.0003 3.22649 12.2243 3.00049 12.5003 3.00049C12.7763 3.00049 13.0003 3.22649 13.0003 3.50449V12.0005H15.0003V4.50449C15.0003 4.22649 15.2243 4.00049 15.5003 4.00049C15.7763 4.00049 16.0003 4.22649 16.0003 4.50449V12.0005H18.0003V10.9955L18.0073 7.47049C18.0083 7.20849 18.2233 6.99349 18.4863 6.99349C18.7683 6.99349 18.9983 7.22149 18.9983 7.50349L19.0003 14.6775C19.0003 15.4265 18.8583 16.1605 18.5803 16.8575ZM20.9983 7.50349C20.9983 6.11949 19.8723 4.99349 18.4863 4.99349C18.3203 4.99349 18.1573 5.01049 18.0003 5.04249V4.50449C18.0003 3.12449 16.8783 2.00049 15.5003 2.00049C15.1853 2.00049 14.8863 2.06549 14.6083 2.17149C14.1653 1.47049 13.3893 1.00049 12.5003 1.00049C11.6123 1.00049 10.8353 1.46949 10.3923 2.17149C10.1143 2.06449 9.81526 2.00049 9.50026 2.00049C8.12226 2.00049 7.00026 3.12149 7.00026 4.50049V11.6665L6.28126 10.9465C5.80926 10.4725 5.18126 10.2115 4.51326 10.2115H4.50826C3.84026 10.2135 3.21126 10.4755 2.71026 10.9765C2.24526 11.4415 1.98926 12.0605 1.98926 12.7175C1.98926 13.3765 2.24626 13.9945 2.71126 14.4595L8.21126 19.9525C9.53326 21.2725 11.2903 22.0005 13.1583 22.0005H13.9373C16.8163 22.0005 19.3673 20.2725 20.4363 17.5995C20.8103 16.6665 21.0003 15.6825 21.0003 14.6775L20.9983 7.50349Z" fill="#313234"/>
</svg>
