<svg width="24" height="24" viewBox="0 0 24 24" fill="none" xmlns="http://www.w3.org/2000/svg">
<path fill-rule="evenodd" clip-rule="evenodd" d="M10.1843 3.01706C10.7271 3.11884 11.0847 3.6414 10.9829 4.18422L10.4549 6.99994H15.4201L16.0171 3.81565C16.1189 3.27282 16.6415 2.91528 17.1843 3.01706C17.7271 3.11884 18.0847 3.6414 17.9829 4.18422L17.4549 6.99994H20C20.5523 6.99994 21 7.44765 21 7.99994C21 8.55222 20.5523 8.99994 20 8.99994H17.0799L15.9549 14.9999H19C19.5523 14.9999 20 15.4476 20 15.9999C20 16.5522 19.5523 16.9999 19 16.9999H15.5799L14.9829 20.1842C14.8811 20.727 14.3585 21.0846 13.8157 20.9828C13.2729 20.881 12.9153 20.3585 13.0171 19.8156L13.5451 16.9999H8.57993L7.98287 20.1842C7.88109 20.727 7.35854 21.0846 6.81571 20.9828C6.27289 20.881 5.91535 20.3585 6.01713 19.8156L6.54507 16.9999H4C3.44772 16.9999 3 16.5522 3 15.9999C3 15.4476 3.44772 14.9999 4 14.9999H6.92007L8.04507 8.99994H5C4.44772 8.99994 4 8.55222 4 7.99994C4 7.44765 4.44772 6.99994 5 6.99994H8.42007L9.01713 3.81565C9.11891 3.27282 9.64146 2.91528 10.1843 3.01706ZM13.9201 14.9999L15.0451 8.99994H10.0799L8.95493 14.9999H13.9201Z" fill="#313234"/>
</svg>
