<svg width="24" height="24" viewBox="0 0 24 24" fill="none" xmlns="http://www.w3.org/2000/svg">
<path fill-rule="evenodd" clip-rule="evenodd" d="M10.6789 5.51606C11.2223 5.61486 11.5827 6.13544 11.4839 6.67881L11.2437 7.99994H14.2109L14.5161 6.32104C14.6149 5.77767 15.1355 5.41726 15.6789 5.51606C16.2223 5.61486 16.5827 6.13544 16.4839 6.67881L16.2437 7.99994H17.5C18.0523 7.99994 18.5 8.44765 18.5 8.99994C18.5 9.55222 18.0523 9.99994 17.5 9.99994H15.88L15.1527 13.9999H16.5C17.0523 13.9999 17.5 14.4477 17.5 14.9999C17.5 15.5522 17.0523 15.9999 16.5 15.9999H14.7891L14.4839 17.6788C14.3851 18.2222 13.8645 18.5826 13.3211 18.4838C12.7777 18.385 12.4173 17.8644 12.5161 17.321L12.7563 15.9999H9.78911L9.48386 17.6788C9.38506 18.2222 8.86448 18.5826 8.3211 18.4838C7.77773 18.385 7.41732 17.8644 7.51612 17.321L7.75632 15.9999H6.5C5.94772 15.9999 5.5 15.5522 5.5 14.9999C5.5 14.4477 5.94772 13.9999 6.5 13.9999H8.11996L8.84723 9.99994H7.5C6.94772 9.99994 6.5 9.55222 6.5 8.99994C6.5 8.44765 6.94772 7.99994 7.5 7.99994H9.21087L9.51612 6.32104C9.61492 5.77767 10.1355 5.41726 10.6789 5.51606ZM13.12 13.9999L13.8472 9.99994H10.88L10.1527 13.9999H13.12Z" fill="#313234"/>
</svg>
