<svg width="24" height="24" viewBox="0 0 24 24" fill="none" xmlns="http://www.w3.org/2000/svg">
<path fill-rule="evenodd" clip-rule="evenodd" d="M17.996 10.2532C17.996 6.94416 15.305 4.25316 11.996 4.25316C10.372 4.25316 8.909 4.91316 7.829 5.96516L14.996 13.1322V11.7532C14.996 10.9262 15.669 10.2532 16.496 10.2532H17.996ZM19.996 17.2532C19.996 17.4982 19.898 17.7142 19.752 17.8882L21.5416 19.6771C21.9322 20.0676 21.932 20.7012 21.5414 21.0917C21.1509 21.4823 20.5174 21.4826 20.1269 21.092L3.157 4.12125C2.76651 3.73074 2.76652 3.09762 3.15702 2.70711C3.54747 2.31666 4.18051 2.3166 4.57104 2.70698L6.40896 4.54417C7.84996 3.12917 9.82096 2.25317 11.996 2.25317C16.407 2.25317 19.996 5.84217 19.996 10.2532V17.2532ZM5.99598 18.2532V19.2532C5.99598 19.8042 6.44498 20.2532 6.99598 20.2532H10.996C11.5483 20.2532 11.996 20.7009 11.996 21.2532C11.996 21.8055 11.5483 22.2532 10.996 22.2532H6.99598C5.34198 22.2532 3.99598 20.9072 3.99598 19.2532V10.2532C3.99598 9.11319 4.23898 8.03119 4.67098 7.04919L6.23098 8.60919C6.08098 9.13218 5.99598 9.68219 5.99598 10.2532H7.49598C8.32298 10.2532 8.99598 10.9262 8.99598 11.7532V16.7532C8.99598 17.5802 8.32298 18.2532 7.49598 18.2532H5.99598Z" fill="#313234"/>
</svg>
