<svg width="24" height="24" viewBox="0 0 24 24" fill="none" xmlns="http://www.w3.org/2000/svg">
<path d="M16.7824 8.46298C16.4484 6.14698 15.0794 4.17598 13.0254 3.05598C10.5344 1.69698 7.44342 1.90098 5.15442 3.58098L3.40942 4.85998L4.59242 6.47398L6.33642 5.19398C8.00342 3.97198 10.2534 3.82198 12.0674 4.81198C13.5624 5.62698 14.5594 7.06298 14.8034 8.74798C15.0454 10.435 14.4934 12.093 13.2894 13.298C12.4584 14.128 12.0014 15.233 12.0014 16.407V17C12.0014 17.94 11.5524 18.836 10.8014 19.401C9.74142 20.195 8.26142 20.195 7.20142 19.401C6.44942 18.836 6.00142 17.94 6.00142 17V16H4.00142V17C4.00142 18.566 4.74842 20.061 6.00142 21C6.88442 21.662 7.94242 21.993 9.00142 21.993C10.0594 21.993 11.1184 21.662 12.0024 21C13.2534 20.061 14.0014 18.565 14.0014 17V16.407C14.0014 15.767 14.2504 15.165 14.7034 14.712C16.3584 13.057 17.1154 10.779 16.7824 8.46298Z" fill="#313234"/>
<path d="M20.7414 7.89267C20.4834 6.10367 19.8374 4.45767 18.8204 3.00267L17.1804 4.14967C18.0164 5.34567 18.5494 6.70167 18.7624 8.17767C19.1734 11.0387 18.2684 13.8757 16.2774 15.9617L17.7244 17.3427C20.1414 14.8097 21.2414 11.3657 20.7414 7.89267Z" fill="#313234"/>
<path d="M10.4181 8.31278C10.0411 8.02178 9.56812 7.92878 9.08512 8.05378C8.59612 8.18078 8.18212 8.59478 8.05512 9.08378C7.93012 9.56778 8.02312 10.0408 8.31412 10.4168C8.60112 10.7868 9.03412 10.9998 9.50112 10.9998V12.9998C8.41012 12.9998 7.40112 12.5048 6.73312 11.6418C6.06412 10.7788 5.84012 9.66378 6.11912 8.58378C6.42712 7.39378 7.39512 6.42578 8.58512 6.11778C9.66412 5.83578 10.7791 6.06178 11.6431 6.73178C12.5061 7.40078 13.0011 8.40878 13.0011 9.49978H11.0011C11.0011 9.03278 10.7891 8.59978 10.4181 8.31278Z" fill="#313234"/>
</svg>
