<svg width="24" height="24" viewBox="0 0 24 24" fill="none" xmlns="http://www.w3.org/2000/svg">
<path fill-rule="evenodd" clip-rule="evenodd" d="M21.9999 11.9998C21.9999 17.5227 17.5225 21.9998 11.9999 21.9998C6.47659 21.9998 1.99988 17.523 1.99988 11.9998C1.99988 6.47647 6.47659 1.99976 11.9999 1.99976C17.5225 1.99976 21.9999 6.4768 21.9999 11.9998ZM19.9999 11.9998C19.9999 7.5814 16.418 3.99976 11.9999 3.99976C7.58116 3.99976 3.99988 7.58104 3.99988 11.9998C3.99988 16.4185 7.58116 19.9998 11.9999 19.9998C16.418 19.9998 19.9999 16.4181 19.9999 11.9998ZM10.9331 14.4921H12.834V13.7838C12.834 13.0655 13.3822 12.6413 13.6183 12.4923C14.4507 11.969 15.8433 11.0906 15.8433 9.43689C15.8433 7.49602 14.1556 5.97534 12.0016 5.97534C9.91867 5.97534 8.15988 7.56105 8.15988 9.43689H10.0607C10.0607 8.60552 10.9671 7.87619 12.0016 7.87619C12.942 7.87619 13.9425 8.42344 13.9425 9.43689C13.9425 9.94511 13.4723 10.3383 12.6049 10.8845C11.5584 11.5448 10.9331 12.6283 10.9331 13.7838V14.4921ZM11.9445 18.1236C12.6318 18.1236 13.188 17.5673 13.188 16.88C13.188 16.1927 12.6318 15.6365 11.9445 15.6365C11.2581 15.6365 10.7009 16.1927 10.7009 16.88C10.7009 17.5673 11.2581 18.1236 11.9445 18.1236Z" fill="#313234"/>
</svg>
