<svg width="24" height="24" viewBox="0 0 24 24" fill="none" xmlns="http://www.w3.org/2000/svg">
<path fill-rule="evenodd" clip-rule="evenodd" d="M13 2.57728C12.3812 2.22001 11.6188 2.22001 11 2.57728L4 6.61873C3.3812 6.97599 3 7.63625 3 8.35078V16.4337C3 17.1482 3.3812 17.8085 4 18.1657L11 22.2072C11.6188 22.5644 12.3812 22.5644 13 22.2072L20 18.1657C20.6188 17.8085 21 17.1482 21 16.4337V8.35078C21 7.63625 20.6188 6.97599 20 6.61873L13 2.57728ZM10.4935 12.8951C10.8067 13.0727 11.0002 13.405 11.0002 13.765V19.0002C11.0002 19.5525 11.4479 20.0002 12.0002 20.0002C12.5525 20.0002 13.0002 19.5525 13.0002 19.0002V13.7648C13.0002 13.4048 13.1937 13.0726 13.5069 12.8949L18.5262 10.0484C19.0103 9.77392 19.177 9.15699 18.8972 8.676C18.6217 8.20248 18.0164 8.03888 17.5399 8.30913L12.4934 11.1711C12.1874 11.3446 11.8127 11.3446 11.5067 11.171L6.45537 8.30616C5.97882 8.03589 5.37352 8.19949 5.09801 8.67303C4.81817 9.15402 4.98491 9.77092 5.46895 10.0454L10.4935 12.8951Z" fill="#313234"/>
</svg>
