<svg width="24" height="24" viewBox="0 0 24 24" fill="none" xmlns="http://www.w3.org/2000/svg">
<path fill-rule="evenodd" clip-rule="evenodd" d="M17.0002 6.55282C17.0002 6.93382 16.8552 7.30682 16.5822 7.63082L13.6872 11.0698C13.2332 11.6088 13.2332 12.3918 13.6872 12.9318L16.5832 16.3688C16.8552 16.6938 17.0002 17.0658 17.0002 17.4478V19.9998H7.00024V17.4478C7.00024 17.0668 7.14524 16.6938 7.41824 16.3688L10.3132 12.9308C10.7672 12.3918 10.7672 11.6088 10.3132 11.0688L7.41824 7.63082C7.14524 7.30682 7.00024 6.93382 7.00024 6.55182V3.99982H17.0002V6.55282ZM19.0002 6.55282V3.99982C19.0002 2.89782 18.1032 1.99982 17.0002 1.99982H7.00024C5.89724 1.99982 5.00024 2.89782 5.00024 3.99982V6.55182C5.00024 7.41082 5.30724 8.22982 5.88824 8.91982L8.48224 11.9998L5.88924 15.0798C5.30724 15.7708 5.00024 16.5888 5.00024 17.4478V19.9998C5.00024 21.1028 5.89724 21.9998 7.00024 21.9998H17.0002C18.1032 21.9998 19.0002 21.1028 19.0002 19.9998V17.4478C19.0002 16.5998 18.6842 15.7588 18.1122 15.0798L15.5182 11.9998L18.1112 8.91982C18.6932 8.22982 19.0002 7.41082 19.0002 6.55282ZM16.2272 6.50002H15.1522H8.84725H7.77225L8.46525 7.32202L11.2352 10.611C11.4252 10.838 11.7042 10.967 12.0002 10.967C12.2952 10.967 12.5742 10.838 12.7652 10.611L15.5352 7.32202L16.2272 6.50002ZM10.5692 15.3895C10.9912 15.0945 11.4852 14.9395 12.0002 14.9395C12.5142 14.9395 13.0092 15.0945 13.4312 15.3895C15.7199 16.9895 15.9696 17.1641 15.9969 17.3684C16.0002 17.3934 16.0002 17.4189 16.0002 17.4475V18.5005V19.0005H15.5002H8.50024H8.00024V18.5005V17.4475C8.00024 17.4189 8.00024 17.3934 8.00358 17.3684C8.03084 17.1641 8.2806 16.9895 10.5692 15.3895Z" fill="#313234"/>
</svg>
