<svg width="24" height="24" viewBox="0 0 24 24" fill="none" xmlns="http://www.w3.org/2000/svg">
<path fill-rule="evenodd" clip-rule="evenodd" d="M17.0002 6.55282C17.0002 6.93382 16.8552 7.30682 16.5822 7.63082L13.6882 11.0678C13.2322 11.6088 13.2322 12.3918 13.6872 12.9318L16.5822 16.3688C16.8552 16.6938 17.0002 17.0668 17.0002 17.4478V19.9998H7.00024V17.4478C7.00024 17.0668 7.14524 16.6938 7.41824 16.3688L10.3132 12.9308C10.7672 12.3918 10.7672 11.6088 10.3132 11.0688L7.41824 7.63182C7.14524 7.30682 7.00024 6.93382 7.00024 6.55182V3.99982H17.0002V6.55282ZM19.0002 6.55282V3.99982C19.0002 2.89782 18.1032 1.99982 17.0002 1.99982H7.00024C5.89724 1.99982 5.00024 2.89782 5.00024 3.99982V6.55182C5.00024 7.40982 5.30724 8.22982 5.88824 8.91982L8.48224 11.9998L5.88924 15.0798C5.30724 15.7708 5.00024 16.5888 5.00024 17.4478V19.9998C5.00024 21.1028 5.89724 21.9998 7.00024 21.9998H17.0002C18.1032 21.9998 19.0002 21.1028 19.0002 19.9998V17.4478C19.0002 16.6008 18.6852 15.7598 18.1122 15.0798L15.5182 11.9998L18.1122 8.91882C18.6932 8.22882 19.0002 7.40982 19.0002 6.55282ZM12.0002 13.0352C11.7032 13.0352 11.4242 13.1652 11.2332 13.3932C8.14516 17.0869 8.00674 17.2524 8.00054 17.4228C8.00024 17.4308 8.00024 17.4388 8.00024 17.4472V18.5002V19.0002H8.50024H15.5002H16.0002V18.5002V17.4472C16.0002 17.4388 16.0002 17.4308 16 17.4228C15.9937 17.2524 15.8553 17.0869 12.7662 13.3932C12.5762 13.1662 12.2962 13.0352 12.0002 13.0352ZM9.30684 8.32202L9.03584 8.00002H14.9638L14.6928 8.32202L12.7648 10.611C12.5748 10.838 12.2958 10.967 11.9998 10.967C11.7038 10.967 11.4258 10.838 11.2348 10.611L9.30684 8.32202Z" fill="#313234"/>
</svg>
