<svg width="24" height="24" viewBox="0 0 24 24" fill="none" xmlns="http://www.w3.org/2000/svg">
<path fill-rule="evenodd" clip-rule="evenodd" d="M18.9859 18.9991H7.10892L8.10892 17.9991H17.9859V11.9991L15.4029 10.7061L18.9859 7.12213V18.9991ZM20.8249 2.4541L20.1299 3.1501C20.1293 3.14953 20.1291 3.14928 20.1288 3.14918L20.1279 3.1491L18.2779 4.9991H18.2799L16.5719 6.7071L12.5699 10.7101L12.5649 10.7121L5.98592 17.2911V17.2941L4.98592 18.2931V18.2911L3.13592 20.1411C3.13592 20.1421 3.13692 20.1431 3.13692 20.1431L2.44092 20.8391L3.85492 22.2531L5.10892 20.9991H19.4859C20.3129 20.9991 20.9859 20.3261 20.9859 19.4991V5.1221L22.2399 3.8681L20.8249 2.4541ZM7.98592 9.99908C9.08992 9.99908 9.98592 9.10308 9.98592 7.99908C9.98592 6.89508 9.08992 5.99908 7.98592 5.99908C6.88192 5.99908 5.98592 6.89508 5.98592 7.99908C5.98592 9.10308 6.88192 9.99908 7.98592 9.99908ZM16.8639 4.99908H4.98592V16.8771L2.98592 18.8771V4.49908C2.98592 3.67208 3.65892 2.99908 4.48592 2.99908H18.8639L16.8639 4.99908Z" fill="#313234"/>
</svg>
