<svg width="24" height="24" viewBox="0 0 24 24" fill="none" xmlns="http://www.w3.org/2000/svg">
<path fill-rule="evenodd" clip-rule="evenodd" d="M19.0002 7.50012H14.5002C14.5002 8.88012 13.3812 10.0001 12.0002 10.0001C10.6192 10.0001 9.50024 8.88012 9.50024 7.50012H5.00024V5.00012H19.0002V7.50012ZM19.0002 14.5001H14.5002C14.5002 15.8801 13.3812 17.0001 12.0002 17.0001C10.6192 17.0001 9.50024 15.8801 9.50024 14.5001H5.00024V12.0001H19.0002V14.5001ZM19.5002 3.00012H4.50024C3.67324 3.00012 3.00024 3.67312 3.00024 4.50012V19.5001C3.00024 20.3271 3.67324 21.0001 4.50024 21.0001H19.5002C20.3272 21.0001 21.0002 20.3271 21.0002 19.5001V4.50012C21.0002 3.67312 20.3272 3.00012 19.5002 3.00012Z" fill="#313234"/>
</svg>
