<svg width="24" height="24" viewBox="0 0 24 24" fill="none" xmlns="http://www.w3.org/2000/svg">
<path fill-rule="evenodd" clip-rule="evenodd" d="M11.9998 9.00012C11.1718 9.00012 10.4998 8.32812 10.4998 7.50012C10.4998 6.67112 11.1718 6.00012 11.9998 6.00012C12.8288 6.00012 13.4998 6.67112 13.4998 7.50012C13.4998 8.32812 12.8288 9.00012 11.9998 9.00012ZM10.9998 18.0001H12.9998V10.0001H10.9998V18.0001ZM11.9998 2.00012C6.48576 2.00012 1.99976 6.48612 1.99976 12.0001C1.99976 17.5141 6.48576 22.0001 11.9998 22.0001C17.5148 22.0001 21.9998 17.5141 21.9998 12.0001C21.9998 6.48612 17.5148 2.00012 11.9998 2.00012Z" fill="#313234"/>
</svg>
