<svg width="24" height="24" viewBox="0 0 24 24" fill="none" xmlns="http://www.w3.org/2000/svg">
<path fill-rule="evenodd" clip-rule="evenodd" d="M12.9578 11.0403C11.9818 10.0643 11.9818 8.48127 12.9578 7.50527C13.9348 6.52827 15.5168 6.52827 16.4938 7.50527C17.4698 8.48127 17.4698 10.0643 16.4938 11.0403C15.5168 12.0173 13.9338 12.0173 12.9578 11.0403ZM18.9708 5.02727C16.6268 2.68427 12.8288 2.68427 10.4858 5.02727C8.63876 6.87427 8.25376 9.62227 9.31776 11.8523L1.99976 19.1693V21.9983H4.82876L5.53576 21.2913V19.1693H7.65676L8.36376 18.4623V16.3413H10.4858L12.1458 14.6803C14.3758 15.7443 17.1248 15.3593 18.9708 13.5133C21.3138 11.1693 21.3138 7.37127 18.9708 5.02727Z" fill="#313234"/>
</svg>
