<svg width="24" height="24" viewBox="0 0 24 24" fill="none" xmlns="http://www.w3.org/2000/svg">
<path fill-rule="evenodd" clip-rule="evenodd" d="M11.9995 3.13635C17.5134 3.13635 21.9991 6.77664 21.9991 11.2511C21.9991 13.0422 21.3055 14.6542 19.8565 16.2438C17.7589 18.6582 13.068 21.5993 12.0005 22.0491C10.9617 22.4873 11.0831 21.8008 11.1308 21.5309C11.1321 21.5237 11.1333 21.5168 11.1344 21.5102C11.1598 21.3603 11.2769 20.6545 11.2769 20.6545C11.3097 20.3986 11.3453 20.0031 11.2441 19.7501C11.1316 19.4717 10.6883 19.3274 10.3631 19.2571C5.5578 18.6216 2 15.2625 2 11.2511C2 6.77664 6.48568 3.13635 11.9995 3.13635ZM8.43747 13.7956C8.53799 13.7956 8.62057 13.714 8.62057 13.6125V12.9331C8.62057 12.8326 8.53799 12.75 8.43747 12.75H6.60916V9.43263C6.60916 9.33211 6.52658 9.24953 6.42605 9.24953H5.74661C5.64518 9.24953 5.56351 9.33121 5.56351 9.43263V13.6125C5.56351 13.714 5.64518 13.7956 5.74661 13.7956H8.43747ZM18.3886 13.7957H15.6987C15.5973 13.7957 15.5156 13.714 15.5156 13.6126V9.43356C15.5156 9.33214 15.5973 9.25046 15.6987 9.25046H18.3886C18.4892 9.25046 18.5717 9.33303 18.5717 9.43356V10.113C18.5717 10.2144 18.4901 10.2961 18.3886 10.2961H16.5603V11.0016H18.3886C18.4892 11.0016 18.5717 11.0842 18.5717 11.1847V11.8641C18.5717 11.9656 18.4901 12.0472 18.3886 12.0472H16.5603V12.7527H18.3886C18.4892 12.7527 18.5717 12.8353 18.5717 12.9358V13.6153C18.5717 13.7167 18.4901 13.7984 18.3886 13.7984V13.7957ZM9.37811 9.25046H10.0567C10.1578 9.25046 10.2398 9.33244 10.2398 9.43356V13.6126C10.2398 13.7137 10.1578 13.7957 10.0567 13.7957H9.37811C9.27699 13.7957 9.19501 13.7137 9.19501 13.6126V9.43356C9.19501 9.33244 9.27699 9.25046 9.37811 9.25046ZM14.6799 9.25046H14.0005C13.8991 9.25046 13.8174 9.33214 13.8174 9.43356V11.9153L11.9056 9.33303C11.9033 9.32989 11.9009 9.32675 11.8984 9.32361C11.8972 9.32213 11.8961 9.32065 11.8949 9.31917C11.8937 9.31751 11.8924 9.31585 11.8912 9.31419L11.8903 9.31329C11.8885 9.31149 11.8867 9.30947 11.8849 9.30745C11.8832 9.30543 11.8814 9.30341 11.8796 9.30162L11.876 9.29893L11.8661 9.29085C11.8652 9.2904 11.8643 9.28973 11.8634 9.28906C11.8625 9.28839 11.8616 9.28771 11.8607 9.28726C11.858 9.28457 11.8544 9.28277 11.8508 9.28098C11.8499 9.28053 11.849 9.27985 11.8482 9.27918C11.8473 9.27851 11.8464 9.27783 11.8455 9.27739L11.8356 9.272L11.8302 9.26931C11.8266 9.26751 11.823 9.26572 11.8194 9.26482C11.819 9.26482 11.8185 9.2647 11.8181 9.26453C11.8177 9.2644 11.8173 9.26423 11.8169 9.26406C11.8158 9.26357 11.8146 9.26302 11.8131 9.26302C11.8122 9.26279 11.8113 9.26249 11.8103 9.26216C11.8095 9.26187 11.8086 9.26155 11.8078 9.26123C11.806 9.26056 11.8042 9.25988 11.8024 9.25943C11.8006 9.25943 11.7979 9.25854 11.7961 9.25764C11.7937 9.25764 11.7913 9.25684 11.7889 9.25604L11.7853 9.25495C11.7826 9.25495 11.7799 9.25495 11.7772 9.25405C11.7754 9.25405 11.7739 9.25382 11.7723 9.2536C11.7707 9.25338 11.7692 9.25315 11.7674 9.25315H11.0763C10.9757 9.25315 10.8932 9.33483 10.8932 9.43625V13.6153C10.8932 13.7158 10.9748 13.7984 11.0763 13.7984H11.7557C11.8571 13.7984 11.9388 13.7167 11.9388 13.6153V11.1335L13.8533 13.7194C13.8667 13.7382 13.8829 13.7535 13.9009 13.7651C13.9009 13.7651 13.9026 13.766 13.9026 13.7669C13.9039 13.7679 13.9051 13.7687 13.9064 13.7695C13.9088 13.771 13.9114 13.7723 13.9143 13.7741L13.9197 13.7768C13.921 13.7777 13.9226 13.7784 13.9242 13.7791C13.9258 13.7797 13.9273 13.7804 13.9287 13.7813C13.9308 13.7827 13.9336 13.7836 13.936 13.7844C13.9366 13.7845 13.9371 13.7847 13.9377 13.7849C13.9385 13.7849 13.9394 13.7853 13.9403 13.7858C13.9412 13.7862 13.9421 13.7867 13.943 13.7867C13.9475 13.7885 13.9511 13.7894 13.9556 13.7903H13.9583C13.9736 13.7939 13.9897 13.7966 14.0059 13.7966H14.6808C14.7814 13.7966 14.8639 13.7149 14.8639 13.6135V9.43446C14.8639 9.33393 14.7822 9.25136 14.6808 9.25136L14.6799 9.25046Z" fill="#313234"/>
</svg>
