<svg width="24" height="24" viewBox="0 0 24 24" fill="none" xmlns="http://www.w3.org/2000/svg">
<path fill-rule="evenodd" clip-rule="evenodd" d="M19.0002 17.1291L14.1942 14.3781C13.7622 14.1301 13.2712 14.0001 12.7732 14.0001H9.00024V7.97409H12.7732C13.2712 7.97409 13.7622 7.84309 14.1942 7.59609L19.0002 4.84509V17.1291ZM5.00024 14.0001H7.00024V7.97406H5.00024V14.0001ZM20.1382 2.01807C19.9962 2.01807 19.8502 2.05407 19.7112 2.13307L13.2012 5.86007C13.0702 5.93507 12.9232 5.97407 12.7732 5.97407H4.00024C3.44824 5.97407 3.00024 6.42207 3.00024 6.97407V15.0001C3.00024 15.5521 3.44824 16.0001 4.00024 16.0001H4.66824L3.76024 20.3991C3.69624 20.7091 3.93324 21.0001 4.25024 21.0001H6.57124C6.95024 21.0001 7.27824 20.7331 7.35424 20.3621L8.25524 16.0001H12.7732C12.9232 16.0001 13.0702 16.0391 13.2012 16.1141L19.7112 19.8411C19.8502 19.9201 19.9962 19.9561 20.1382 19.9561C20.5872 19.9561 21.0002 19.5961 21.0002 19.0941V2.88007C21.0002 2.37807 20.5872 2.01807 20.1382 2.01807Z" fill="#313234"/>
</svg>
