<svg width="24" height="24" viewBox="0 0 24 24" fill="none" xmlns="http://www.w3.org/2000/svg">
<path fill-rule="evenodd" clip-rule="evenodd" d="M15.4139 15.0855L16.8548 16.5264C17.3897 15.7913 17.7617 14.9299 17.9178 13.9955C18.0087 13.4508 18.4477 13 19 13C19.5523 13 20.0066 13.4495 19.9384 13.9975C19.7539 15.4804 19.1636 16.8374 18.2822 17.9537L21.0919 20.7634C21.4824 21.1539 21.4824 21.7871 21.0919 22.1776C20.7013 22.5682 20.0682 22.5682 19.6776 22.1776L2.70708 5.20708C2.31655 4.81655 2.31655 4.18339 2.70708 3.79286C3.0976 3.40234 3.73077 3.40234 4.12129 3.79286L7.99997 7.67154V6C7.99997 3.79086 9.79083 2 12 2C14.2091 2 16 3.79086 16 6V13C16 13.7642 15.7857 14.4783 15.4139 15.0855ZM14 13V6C14 4.89543 13.1045 4 12 4C10.8954 4 9.99997 4.89543 9.99997 6V9.67154L13.9131 13.5847C13.9696 13.3998 14 13.2034 14 13Z" fill="#313234"/>
<path d="M7.99997 13V12L12.8986 16.8987C12.6098 16.965 12.309 17 12 17C9.79083 17 7.99997 15.2091 7.99997 13Z" fill="#313234"/>
<path d="M12 19C12.8804 19 13.7165 18.8104 14.4697 18.4697L15.9553 19.9554C15.0634 20.4637 14.0641 20.8054 13 20.9381V23H11V20.9381C7.38056 20.4868 4.51201 17.6176 4.0616 13.9979C3.99341 13.4498 4.44769 13 4.99997 13C5.55226 13 5.99124 13.4511 6.08223 13.9958C6.55658 16.8356 9.02551 19 12 19Z" fill="#313234"/>
</svg>
