<svg width="24" height="24" viewBox="0 0 24 24" fill="none" xmlns="http://www.w3.org/2000/svg">
<path fill-rule="evenodd" clip-rule="evenodd" d="M14 13V6C14 4.89543 13.1045 4 12 4C10.8954 4 9.99996 4.89543 9.99996 6V13C9.99996 14.1046 10.8954 15 12 15C13.1045 15 14 14.1046 14 13ZM12 2C9.79082 2 7.99996 3.79086 7.99996 6V13C7.99996 15.2091 9.79082 17 12 17C14.2091 17 16 15.2091 16 13V6C16 3.79086 14.2091 2 12 2ZM11 20.9381C7.38058 20.4868 4.51206 17.6177 4.06161 13.998C3.99341 13.45 4.44768 13 4.99996 13C5.55225 13 5.99123 13.4511 6.08222 13.9958C6.55657 16.8356 9.0255 19 12 19C14.9744 19 17.4434 16.8356 17.9177 13.9958C18.0087 13.4511 18.4477 13 19 13C19.5522 13 20.0065 13.45 19.9383 13.998C19.4879 17.6177 16.6193 20.4868 13 20.9381V23H11V20.9381Z" fill="#313234"/>
</svg>
