<svg width="24" height="24" viewBox="0 0 24 24" fill="none" xmlns="http://www.w3.org/2000/svg">
<path fill-rule="evenodd" clip-rule="evenodd" d="M20.9003 16.5001C20.9003 16.7761 20.6913 17.0001 20.433 17.0001H19.341C19.1541 17.0001 18.9861 16.8811 18.9116 16.6971L17.6337 13.5001L16.3548 16.6971C16.2813 16.8811 16.1123 17.0001 15.9254 17.0001H14.8334C14.5761 17.0001 14.3672 16.7761 14.3672 16.5001V7.50012C14.3672 7.22412 14.5761 7.00012 14.8334 7.00012H15.7668C16.0241 7.00012 16.233 7.22412 16.233 7.50012V13.5001L17.4195 10.5361C17.4993 10.3341 17.7671 10.3341 17.8479 10.5361L19.0334 13.5001V7.50012C19.0334 7.22412 19.2423 7.00012 19.5006 7.00012H20.433C20.6913 7.00012 20.9003 7.22412 20.9003 7.50012V16.5001ZM13.4337 8.50012C13.4337 8.77612 13.2247 9.00012 12.9664 9.00012H11.5668V11.0001H12.9664C13.2247 11.0001 13.4337 11.2241 13.4337 11.5001V12.5001C13.4337 12.7761 13.2247 13.0001 12.9664 13.0001H11.5668V15.0001H12.9664C13.2247 15.0001 13.4337 15.2241 13.4337 15.5001V16.5001C13.4337 16.7761 13.2247 17.0001 12.9664 17.0001H10.1671C9.90884 17.0001 9.69989 16.7761 9.69989 16.5001V7.50012C9.69989 7.22412 9.90884 7.00012 10.1671 7.00012H12.9664C13.2247 7.00012 13.4337 7.22412 13.4337 7.50012V8.50012ZM8.76645 16.5001C8.76645 16.7761 8.5575 17.0001 8.30025 17.0001H7.665C7.4067 17.0001 7.19775 16.7761 7.19775 16.5001L5.96715 11.7691V16.5001C5.96715 16.7761 5.7582 17.0001 5.4999 17.0001H4.56645C4.3092 17.0001 4.10025 16.7761 4.10025 16.5001V7.50012C4.10025 7.22412 4.3092 7.00012 4.56645 7.00012H5.33295C5.5335 7.00012 5.712 7.13812 5.77605 7.34212L6.9006 11.4811V7.50012C6.9006 7.22412 7.10955 7.00012 7.3668 7.00012H8.30025C8.5575 7.00012 8.76645 7.22412 8.76645 7.50012V16.5001ZM20.9002 5.00012H4.10024C2.94104 5.00012 2.00024 5.89612 2.00024 7.00012V17.0001C2.00024 18.1041 2.94104 19.0001 4.10024 19.0001H20.9002C22.0594 19.0001 23.0002 18.1041 23.0002 17.0001V7.00012C23.0002 5.89612 22.0594 5.00012 20.9002 5.00012Z" fill="#313234"/>
</svg>
