<svg width="24" height="24" viewBox="0 0 24 24" fill="none" xmlns="http://www.w3.org/2000/svg">
<path fill-rule="evenodd" clip-rule="evenodd" d="M4.50024 20.9998H11.7922C12.1899 20.9998 12.5724 20.8418 12.8534 20.5609L20.5614 12.8529C20.8421 12.5721 21.0002 12.1907 21.0002 11.7928V4.49976C21.0002 3.67243 20.3285 2.99976 19.5002 2.99976H4.50024C3.67199 2.99976 3.00024 3.67243 3.00024 4.49976V19.4998C3.00024 20.328 3.67196 20.9998 4.50024 20.9998ZM5.00024 18.9998V4.99976H19.0002V10.9998H12.5002C11.672 10.9998 11.0002 11.6724 11.0002 12.4998V18.9998H5.00024ZM13.0002 17.5855L17.586 12.9998H13.0002V17.5855Z" fill="#313234"/>
</svg>
