<svg width="24" height="24" viewBox="0 0 24 24" fill="none" xmlns="http://www.w3.org/2000/svg">
<path fill-rule="evenodd" clip-rule="evenodd" d="M17.385 13.6049L18.879 16.0029H17.801L8.02802 6.22992C8.72302 4.91292 10.09 4.00292 11.68 4.00292C13.965 4.00292 15.825 5.86192 15.825 8.14792C15.825 10.0779 16.364 11.9649 17.385 13.6049ZM4.255 2.45693C3.86454 2.06646 3.23147 2.06646 2.84101 2.45693C2.45054 2.8474 2.45054 3.48047 2.84101 3.87093L19.8116 20.8416C20.2023 21.2322 20.8357 21.232 21.2262 20.8413C21.6165 20.4506 21.6164 19.8175 21.2258 19.4271L19.801 18.0029H20.5C20.9 18.0029 21.268 17.7859 21.462 17.4359C21.655 17.0869 21.645 16.6599 21.433 16.3209L19.083 12.5469C18.26 11.2259 17.825 9.70393 17.825 8.14793C17.825 4.75893 15.068 2.00293 11.68 2.00293C9.542 2.00293 7.665 3.10593 6.566 4.76793L4.255 2.45693ZM13.6798 18.0029C13.6798 19.1059 12.7828 20.0029 11.6798 20.0029C10.5768 20.0029 9.6798 19.1059 9.6798 18.0029H13.6798ZM4.27681 12.5469L1.92681 16.3209C1.71581 16.6589 1.70381 17.0859 1.89781 17.4359C2.09181 17.7859 2.45981 18.0029 2.85981 18.0029H7.67981C7.67981 20.2089 9.47381 22.0029 11.6798 22.0029C13.8478 22.0029 15.6088 20.2669 15.6688 18.1129L13.5588 16.0029H4.48081L5.97381 13.6049C6.69581 12.4469 7.16281 11.1619 7.38381 9.82793L5.54381 7.98693C5.54298 8.0094 5.54128 8.03152 5.53958 8.05366C5.5372 8.08472 5.53481 8.11582 5.53481 8.14793C5.53481 9.70493 5.09981 11.2259 4.27681 12.5469Z" fill="#313234"/>
</svg>
