<svg width="24" height="24" viewBox="0 0 24 24" fill="none" xmlns="http://www.w3.org/2000/svg">
<path fill-rule="evenodd" clip-rule="evenodd" d="M19.9998 6C19.9998 6.55228 20.448 7 21.0003 7C21.5526 7 22.0008 6.55228 22.0008 6V1C22.0008 0.447715 21.5526 0 21.0003 0C20.448 0 19.9998 0.447715 19.9998 1V6ZM21 10.9C21.663 10.9 22.2 10.363 22.2 9.7C22.2 9.037 21.663 8.5 21 8.5C20.337 8.5 19.8 9.037 19.8 9.7C19.8 10.363 20.337 10.9 21 10.9ZM6.29469 13.6021L4.80069 16.0001H19.1987L17.7057 13.6021C16.6837 11.9631 16.1447 10.0761 16.1447 8.14512C16.1447 5.85912 14.2847 4.00012 11.9997 4.00012C9.71469 4.00012 7.85469 5.85912 7.85469 8.14512C7.85469 10.0751 7.31569 11.9621 6.29469 13.6021ZM9.99966 18.0001C9.99966 19.1031 10.8967 20.0001 11.9997 20.0001C13.1027 20.0001 13.9997 19.1031 13.9997 18.0001H9.99966ZM18.1447 8.14512C18.1447 9.70212 18.5797 11.2231 19.4027 12.5441L21.7537 16.3181C21.9647 16.6561 21.9757 17.0831 21.7817 17.4331C21.5887 17.7831 21.2197 18.0001 20.8197 18.0001H15.9997C15.9997 20.2061 14.2057 22.0001 11.9997 22.0001C9.79468 22.0001 7.99968 20.2061 7.99968 18.0001H3.17968C2.77968 18.0001 2.41168 17.7831 2.21768 17.4331C2.02468 17.0841 2.03468 16.6571 2.24668 16.3181L4.59668 12.5441C5.41968 11.2231 5.85468 9.70112 5.85468 8.14512C5.85468 4.75612 8.61168 2.00012 11.9997 2.00012C15.3877 2.00012 18.1447 4.75612 18.1447 8.14512Z" fill="#313234"/>
</svg>
