<svg width="24" height="24" viewBox="0 0 24 24" fill="none" xmlns="http://www.w3.org/2000/svg">
<path fill-rule="evenodd" clip-rule="evenodd" d="M5.8573 8.14424C5.8573 9.69908 5.42134 11.2233 4.59917 12.5451L2.24994 16.3162C1.7906 17.0475 2.3169 18.0002 3.1813 18.0002H20.8223C21.6852 18.0002 22.2112 17.0511 21.7567 16.3196L19.4051 12.5445C18.5824 11.2234 18.1463 9.6994 18.1463 8.14424C18.1463 4.75096 15.3956 2.00024 12.0023 2.00024C8.6082 2.00024 5.8573 4.75077 5.8573 8.14424ZM12.0001 22C10.1362 22 8.57012 20.7252 8.12608 19H15.874C15.43 20.7252 13.8639 22 12.0001 22Z" fill="#313234"/>
</svg>
