<svg width="24" height="24" viewBox="0 0 24 24" fill="none" xmlns="http://www.w3.org/2000/svg">
<path fill-rule="evenodd" clip-rule="evenodd" d="M4.59917 12.5451C5.42134 11.2233 5.8573 9.69908 5.8573 8.14424C5.8573 4.75077 8.6082 2.00024 12.0023 2.00024C15.3956 2.00024 18.1463 4.75096 18.1463 8.14424C18.1463 9.6994 18.5824 11.2234 19.4051 12.5445L21.7567 16.3196C22.2112 17.0511 21.6852 18.0002 20.8223 18.0002H16.0021C16.002 20.2094 14.2113 22.0001 12.0021 22.0001C9.79288 22.0001 8.0022 20.2094 8.00211 18.0002H3.1813C2.3169 18.0002 1.7906 17.0475 2.24994 16.3162L4.59917 12.5451ZM10.0021 18.0002C10.0022 19.1049 10.8975 20.0001 12.0021 20.0001C13.1068 20.0001 14.002 19.1049 14.0021 18.0002H10.0021ZM19.2015 16.0002L17.7074 13.6018C16.6872 11.9635 16.1463 10.0733 16.1463 8.14424C16.1463 5.85553 14.291 4.00024 12.0023 4.00024C9.71271 4.00024 7.8573 5.8554 7.8573 8.14424C7.8573 10.0727 7.31669 11.9629 6.29708 13.602L4.8031 16.0002H19.2015Z" fill="#313234"/>
</svg>
