<svg width="24" height="24" viewBox="0 0 24 24" fill="none" xmlns="http://www.w3.org/2000/svg">
<path fill-rule="evenodd" clip-rule="evenodd" d="M13 2.57728C12.3812 2.22001 11.6188 2.22001 11 2.57728L4 6.61873C3.3812 6.97599 3 7.63625 3 8.35078V16.4337C3 17.1482 3.3812 17.8085 4 18.1657L11 22.2072C11.6188 22.5644 12.3812 22.5644 13 22.2072L20 18.1657C20.6188 17.8085 21 17.1482 21 16.4337V8.35078C21 7.63625 20.6188 6.97599 20 6.61873L13 2.57728ZM9.92926 5.37729L12 4.18175L18.3042 7.82148L16.1982 9.03243L9.92926 5.37729ZM7.94029 6.52562L5.6958 7.82148L12 11.4464L14.2491 10.1532L7.94029 6.52562ZM4.88951 9.66492V16.4975L11.0002 20.0255V13.1786L4.88951 9.66492ZM13.0002 20.0253L19.1105 16.4975V9.66493L16.9932 10.8824C16.9977 10.9209 17 10.9602 17 10.9999V12.9999C17 13.5522 16.5523 13.9999 16 13.9999C15.4477 13.9999 15 13.5522 15 12.9999V12.0285L13.0002 13.1783V20.0253Z" fill="#313234"/>
</svg>
