<svg width="24" height="24" viewBox="0 0 24 24" fill="none" xmlns="http://www.w3.org/2000/svg">
<path fill-rule="evenodd" clip-rule="evenodd" d="M5.00024 20.5V3.5C5.00024 2.67172 5.67196 2 6.50024 2H11.7702C12.2107 2 12.6305 2.19286 12.9085 2.52415L18.6385 9.20821C18.8717 9.48023 19.0002 9.82599 19.0002 10.185V20.5C19.0002 21.3283 18.3285 22 17.5002 22H6.50024C5.67196 22 5.00024 21.3283 5.00024 20.5ZM7.00024 20H17.0002V10.9998H12.3852C11.6199 10.9998 11.0002 10.379 11.0002 9.61478V4H7.00024V20ZM15.8255 8.99978L13.0002 5.70408V8.99978H15.8255Z" fill="#313234"/>
</svg>
