<svg width="24" height="24" viewBox="0 0 24 24" fill="none" xmlns="http://www.w3.org/2000/svg">
<path fill-rule="evenodd" clip-rule="evenodd" d="M7.00024 4V20H12.0002V22H6.50024C5.67196 22 5.00024 21.3283 5.00024 20.5V3.5C5.00024 2.67172 5.67196 2 6.50024 2H11.7702C12.2107 2 12.6305 2.19286 12.9085 2.52415L18.6296 9.19797C18.7446 9.32854 18.8331 9.47651 18.8952 9.63491C19.1524 10.2908 18.6688 11 17.9642 11H12.3852C11.6199 11 11.0002 10.3792 11.0002 9.615V4H7.00024ZM13.0002 9.00002H15.8257L13.0002 5.7041V9.00002ZM19.0002 18.7177V12.9997H17.0002V18.7259L14.6291 16.5391L13.2732 18.0093L17.9894 22.3588L22.7271 18.0132L21.3752 16.5393L19.0002 18.7177Z" fill="#313234"/>
</svg>
