<svg width="24" height="24" viewBox="0 0 24 24" fill="none" xmlns="http://www.w3.org/2000/svg">
<path fill-rule="evenodd" clip-rule="evenodd" d="M7.00024 20H17.0002V10.37L13.0002 5.704V10H11.0002V4H7.00024V20ZM12.9112 2.526L18.6392 9.209C18.8722 9.481 19.0002 9.828 19.0002 10.185V20.5C19.0002 21.327 18.3272 22 17.5002 22H6.50024C5.67324 22 5.00024 21.327 5.00024 20.5V3.5C5.00024 2.673 5.67324 2 6.50024 2H11.7702C12.2102 2 12.6262 2.192 12.9112 2.526ZM11 13.9999H13V11.9999H11V13.9999ZM11 17.9999H13V15.9999H11V17.9999Z" fill="#313234"/>
</svg>
