<svg width="24" height="24" viewBox="0 0 24 24" fill="none" xmlns="http://www.w3.org/2000/svg">
<path fill-rule="evenodd" clip-rule="evenodd" d="M5.50024 21H9.50024C9.77624 21 10.0002 20.776 10.0002 20.5V3.5C10.0002 3.224 9.77624 3 9.50024 3H5.50024C5.22424 3 5.00024 3.224 5.00024 3.5V20.5C5.00024 20.776 5.22424 21 5.50024 21ZM14.5002 21H18.5002C18.7762 21 19.0002 20.776 19.0002 20.5V3.5C19.0002 3.224 18.7762 3 18.5002 3H14.5002C14.2242 3 14.0002 3.224 14.0002 3.5V20.5C14.0002 20.776 14.2242 21 14.5002 21Z" fill="#313234"/>
</svg>
