<svg width="24" height="24" viewBox="0 0 24 24" fill="none" xmlns="http://www.w3.org/2000/svg">
<path fill-rule="evenodd" clip-rule="evenodd" d="M16.7766 10.395L6.67518 20.4964L3.27724 20.4815L3.27723 17.3363L13.5661 7.18447L16.7766 10.395ZM18.1908 8.98074L19.5757 7.59587C20.4571 6.71451 20.4571 5.28554 19.5757 4.40418C18.6985 3.527 17.2778 3.52224 16.3947 4.39352L14.9898 5.77973L18.1908 8.98074ZM20.9899 9.01008L7.49998 22.5L2.27286 22.4771C1.7223 22.4747 1.27725 22.0277 1.27725 21.4771L1.27722 16.5001L14.99 2.96986C16.6556 1.32646 19.3354 1.33544 20.9899 2.98997C22.6523 4.65238 22.6523 7.34767 20.9899 9.01008Z" fill="#313234"/>
</svg>
