<svg width="24" height="24" viewBox="0 0 24 24" fill="none" xmlns="http://www.w3.org/2000/svg">
<path fill-rule="evenodd" clip-rule="evenodd" d="M5.00024 7.00012C6.10424 7.00012 7.00024 6.10412 7.00024 5.00012C7.00024 3.89612 6.10424 3.00012 5.00024 3.00012C3.89524 3.00012 3.00024 3.89612 3.00024 5.00012C3.00024 6.10412 3.89524 7.00012 5.00024 7.00012ZM3.00024 16.0001H4.00024V20.0001C4.00024 20.5524 4.44796 21.0001 5.00024 21.0001C5.55253 21.0001 6.00024 20.5524 6.00024 20.0001V16.0001H7.00024V9.00012C7.00024 8.44784 6.55253 8.00012 6.00024 8.00012H4.00024C3.44796 8.00012 3.00024 8.44784 3.00024 9.00012V16.0001ZM10.0001 5.00003C10.0001 5.55232 10.4478 6.00003 11.0001 6.00003H20.0001C20.5523 6.00003 21.0001 5.55232 21.0001 5.00003C21.0001 4.44775 20.5523 4.00003 20.0001 4.00003H11.0001C10.4478 4.00003 10.0001 4.44775 10.0001 5.00003ZM10.0001 12C10.0001 12.5523 10.4478 13 11.0001 13H20.0001C20.5523 13 21.0001 12.5523 21.0001 12C21.0001 11.4477 20.5523 11 20.0001 11H11.0001C10.4478 11 10.0001 11.4477 10.0001 12ZM11.0001 20C10.4478 20 10.0001 19.5523 10.0001 19C10.0001 18.4477 10.4478 18 11.0001 18H20.0001C20.5523 18 21.0001 18.4477 21.0001 19C21.0001 19.5523 20.5523 20 20.0001 20H11.0001Z" fill="#313234"/>
</svg>
