<svg width="24" height="24" viewBox="0 0 24 24" fill="none" xmlns="http://www.w3.org/2000/svg">
<path fill-rule="evenodd" clip-rule="evenodd" d="M8.00024 5.00012C8.00024 6.10412 7.10424 7.00012 6.00024 7.00012C4.89524 7.00012 4.00024 6.10412 4.00024 5.00012C4.00024 3.89612 4.89524 3.00012 6.00024 3.00012C7.10424 3.00012 8.00024 3.89612 8.00024 5.00012ZM4.00024 16.0001H5.00024V20.0001C5.00024 20.5524 5.44796 21.0001 6.00024 21.0001C6.55253 21.0001 7.00024 20.5524 7.00024 20.0001V16.0001H8.00024V9.00009C8.00024 8.44781 7.55253 8.00009 7.00024 8.00009H5.00024C4.44796 8.00009 4.00024 8.44781 4.00024 9.00009V16.0001ZM10.0002 16.0001H11.0002V20.0001C11.0002 20.5524 11.448 21.0001 12.0002 21.0001C12.5525 21.0001 13.0002 20.5524 13.0002 20.0001V16.0001H14.0002V9.00009C14.0002 8.44781 13.5525 8.00009 13.0002 8.00009H11.0002C10.448 8.00009 10.0002 8.44781 10.0002 9.00009V16.0001ZM17.0002 16.0001H16.0002V9.00009C16.0002 8.44781 16.448 8.00009 17.0002 8.00009H19.0002C19.5525 8.00009 20.0002 8.44781 20.0002 9.00009V16.0001H19.0002V20.0001C19.0002 20.5524 18.5525 21.0001 18.0002 21.0001C17.448 21.0001 17.0002 20.5524 17.0002 20.0001V16.0001ZM12.0002 7.00012C13.1042 7.00012 14.0002 6.10412 14.0002 5.00012C14.0002 3.89612 13.1042 3.00012 12.0002 3.00012C10.8952 3.00012 10.0002 3.89612 10.0002 5.00012C10.0002 6.10412 10.8952 7.00012 12.0002 7.00012ZM20.0002 5.00012C20.0002 6.10412 19.1042 7.00012 18.0002 7.00012C16.8952 7.00012 16.0002 6.10412 16.0002 5.00012C16.0002 3.89612 16.8952 3.00012 18.0002 3.00012C19.1042 3.00012 20.0002 3.89612 20.0002 5.00012Z" fill="#313234"/>
</svg>
