<svg width="24" height="24" viewBox="0 0 24 24" fill="none" xmlns="http://www.w3.org/2000/svg">
<path fill-rule="evenodd" clip-rule="evenodd" d="M12.0002 2.00012C6.47696 2.00012 2.00024 6.47684 2.00024 12.0001C2.00024 17.5234 6.47696 22.0001 12.0002 22.0001C17.5229 22.0001 22.0002 17.5231 22.0002 12.0001C22.0002 6.47717 17.5229 2.00012 12.0002 2.00012ZM12.0002 4.00012C16.4183 4.00012 20.0002 7.58177 20.0002 12.0001C20.0002 14.1689 19.1372 16.136 17.736 17.5769C17.0802 15.1232 14.7516 13.296 12.0003 13.296C9.24881 13.296 6.92011 15.1234 6.26446 17.5773C4.86316 16.1364 4.00024 14.1691 4.00024 12.0001C4.00024 7.58141 7.58153 4.00012 12.0002 4.00012ZM12.0002 12.3018C13.4092 12.3018 14.5512 11.1588 14.5512 9.75082C14.5512 8.34182 13.4092 7.19882 12.0002 7.19882C10.5912 7.19882 9.44824 8.34182 9.44824 9.75082C9.44824 11.1588 10.5912 12.3018 12.0002 12.3018Z" fill="#313234"/>
</svg>
