<svg width="24" height="24" viewBox="0 0 24 24" fill="none" xmlns="http://www.w3.org/2000/svg">
<path fill-rule="evenodd" clip-rule="evenodd" d="M17.9984 4C17.9984 3.44772 18.4461 3 18.9984 3C19.5506 3 19.9984 3.44772 19.9984 4V6H21.9984C22.5506 6 22.9984 6.44772 22.9984 7C22.9984 7.55228 22.5506 8 21.9984 8H19.9984V10C19.9984 10.5523 19.5506 11 18.9984 11C18.4461 11 17.9984 10.5523 17.9984 10V8H15.9984C15.4461 8 14.9984 7.55228 14.9984 7C14.9984 6.44772 15.4461 6 15.9984 6H17.9984V4ZM12.58 8.59969C12.58 9.48313 11.8634 10.1997 10.98 10.1997C10.0966 10.1997 9.38 9.48313 9.38 8.59969C9.38 7.71626 10.0966 6.99969 10.98 6.99969C11.8634 6.99969 12.58 7.71626 12.58 8.59969ZM10.98 12.1997C12.968 12.1997 14.58 10.5877 14.58 8.59969C14.58 6.61169 12.968 4.99969 10.98 4.99969C8.992 4.99969 7.38 6.61169 7.38 8.59969C7.38 10.5877 8.992 12.1997 10.98 12.1997ZM10.984 15C13.5959 15 15.8192 16.6701 16.6427 19H5.32521C6.14876 16.6701 8.37198 15 10.984 15ZM18.461 21C18.746 21 18.985 20.76 18.967 20.476C18.697 16.302 15.226 13 10.984 13C6.74195 13 3.27095 16.302 3.00095 20.476C2.98295 20.76 3.22195 21 3.50695 21H18.461Z" fill="#313234"/>
</svg>
