<svg width="24" height="24" viewBox="0 0 24 24" fill="none" xmlns="http://www.w3.org/2000/svg">
<path fill-rule="evenodd" clip-rule="evenodd" d="M12.0032 2.2179C9.35217 2.2179 6.86017 3.2449 4.97617 5.1069L2.85717 2.9879C2.54217 2.6729 2.00317 2.8959 2.00317 3.3409V8.9679C2.00317 9.2439 2.22717 9.4679 2.50317 9.4679H8.13017C8.57517 9.4679 8.79817 8.9289 8.48317 8.6139L6.39017 6.5209C7.89717 5.0359 9.88617 4.2179 12.0032 4.2179C16.4142 4.2179 20.0032 7.8069 20.0032 12.2179C20.0032 16.6289 16.4142 20.2179 12.0032 20.2179C7.93007 20.2179 4.55786 17.1577 4.06511 13.2159C3.99661 12.6679 3.55546 12.2179 3.00317 12.2179C2.45089 12.2179 1.99791 12.6669 2.05264 13.2165C2.55529 18.2634 6.82613 22.2179 12.0032 22.2179C17.5172 22.2179 22.0032 17.7319 22.0032 12.2179C22.0032 6.7039 17.5172 2.2179 12.0032 2.2179Z" fill="#313234"/>
</svg>
