<svg width="24" height="24" viewBox="0 0 24 24" fill="none" xmlns="http://www.w3.org/2000/svg">
<path fill-rule="evenodd" clip-rule="evenodd" d="M18.0002 10.0001C18.0002 5.58184 14.4185 2.00012 10.0002 2.00012C5.58196 2.00012 2.00024 5.58184 2.00024 10.0001C2.00024 14.4184 5.58196 18.0001 10.0002 18.0001C11.6673 18.0001 13.2152 17.4902 14.4966 16.6179L18.9394 21.0607C19.5252 21.6465 20.4749 21.6465 21.0607 21.0607C21.6465 20.4749 21.6465 19.5252 21.0607 18.9394L16.618 14.4966C17.4903 13.2152 18.0002 11.6672 18.0002 10.0001ZM15.0001 10C15.0001 12.7615 12.7615 15 10.0001 15C7.23864 15 5.00006 12.7615 5.00006 10C5.00006 7.23861 7.23864 5.00003 10.0001 5.00003C12.7615 5.00003 15.0001 7.23861 15.0001 10Z" fill="#313234"/>
</svg>
