<svg width="24" height="24" viewBox="0 0 24 24" fill="none" xmlns="http://www.w3.org/2000/svg">
<path fill-rule="evenodd" clip-rule="evenodd" d="M18.0002 10.0001C18.0002 5.58184 14.4185 2.00012 10.0002 2.00012C5.58196 2.00012 2.00024 5.58184 2.00024 10.0001C2.00024 14.4184 5.58196 18.0001 10.0002 18.0001C11.849 18.0001 13.5512 17.373 14.9059 16.32L20.2931 21.7072C20.6837 22.0978 21.3168 22.0978 21.7073 21.7072C22.0979 21.3167 22.0979 20.6835 21.7073 20.293L16.3201 14.9058C17.3732 13.5511 18.0002 11.8488 18.0002 10.0001ZM16.0002 10.0001C16.0002 13.3138 13.314 16.0001 10.0002 16.0001C6.68653 16.0001 4.00024 13.3138 4.00024 10.0001C4.00024 6.68641 6.68653 4.00012 10.0002 4.00012C13.314 4.00012 16.0002 6.68641 16.0002 10.0001Z" fill="#313234"/>
</svg>
