<svg width="24" height="24" viewBox="0 0 24 24" fill="none" xmlns="http://www.w3.org/2000/svg">
<path d="M12.0007 11.5001C13.1046 11.5001 14 10.6044 14 9.50012C14 8.39582 13.1046 7.50012 12.0007 7.50012C10.8954 7.50012 10 8.39582 10 9.50012C10 10.6044 10.8954 11.5001 12.0007 11.5001Z" fill="#313234"/>
<path d="M8.00049 15.7389C7.99135 15.8804 8.11135 16.0001 8.25421 16.0001H15.7458C15.8887 16.0001 16.0087 15.8804 15.9995 15.7389C15.8646 13.6505 14.1252 12.0001 12.0006 12.0001C9.87481 12.0001 8.13535 13.6505 8.00049 15.7389Z" fill="#313234"/>
<path fill-rule="evenodd" clip-rule="evenodd" d="M21 5.30713L12 1.93213L3 5.30713V10.0001C3 14.669 5.63784 18.9371 9.81378 21.0251L12 22.1182L14.1862 21.0251C18.3622 18.9371 21 14.669 21 10.0001V5.30713ZM5 10.0001V6.69313L12 4.06813L19 6.69313V10.0001C19 13.9114 16.7902 17.487 13.2918 19.2362L12 19.8821L10.7082 19.2362C7.20984 17.487 5 13.9114 5 10.0001Z" fill="#313234"/>
</svg>
