<svg width="24" height="24" viewBox="0 0 24 24" fill="none" xmlns="http://www.w3.org/2000/svg">
<path d="M7.08554 11.6388L8.5 10.2249L10.8603 12.5862L15.5858 7.8607L17 9.27491L10.8601 15.4149L7.08554 11.6388Z" fill="#313234"/>
<path fill-rule="evenodd" clip-rule="evenodd" d="M21 5.30713L12 1.93213L3 5.30713V10.0001C3 14.669 5.63784 18.9371 9.81378 21.0251L12 22.1182L14.1862 21.0251C18.3622 18.9371 21 14.669 21 10.0001V5.30713ZM5 10.0001V6.69313L12 4.06813L19 6.69313V10.0001C19 13.9114 16.7902 17.487 13.2918 19.2362L12 19.8821L10.7082 19.2362C7.20984 17.487 5 13.9114 5 10.0001Z" fill="#313234"/>
</svg>
