<svg width="24" height="24" viewBox="0 0 24 24" fill="none" xmlns="http://www.w3.org/2000/svg">
<path d="M17.7299 10.4638C17.6433 10.6659 17.3569 10.6659 17.2703 10.4638L16.1501 7.85L13.5363 6.72978C13.3342 6.6432 13.3342 6.35679 13.5363 6.27021L16.1501 5.15L17.2703 2.53616C17.3569 2.33414 17.6433 2.33414 17.7299 2.53616L18.8501 5.15L21.4639 6.27021C21.666 6.35679 21.666 6.6432 21.4639 6.72978L18.8501 7.85L17.7299 10.4638Z" fill="#313234"/>
<path d="M10.2277 21.4993C10.1389 21.6947 9.86132 21.6947 9.7725 21.4993L7.5001 16.5L2.5008 14.2276C2.3054 14.1388 2.3054 13.8612 2.5008 13.7724L7.5001 11.5L9.7725 6.5007C9.86132 6.3053 10.1389 6.3053 10.2277 6.5007L12.5001 11.5L17.4994 13.7724C17.6948 13.8612 17.6948 14.1388 17.4994 14.2276L12.5001 16.5L10.2277 21.4993Z" fill="#313234"/>
</svg>
