<svg width="24" height="24" viewBox="0 0 24 24" fill="none" xmlns="http://www.w3.org/2000/svg">
<path fill-rule="evenodd" clip-rule="evenodd" d="M12.0001 4C11.4478 4 11.0001 3.55228 11.0001 3V1C11.0001 0.447715 11.4478 0 12.0001 0C12.5524 0 13.0001 0.447715 13.0001 1V3C13.0001 3.55228 12.5524 4 12.0001 4ZM6.53563 5.53554C6.1451 5.92606 5.51194 5.92606 5.12141 5.53554L3.7072 4.12132C3.31668 3.7308 3.31668 3.09763 3.7072 2.70711C4.09772 2.31658 4.73089 2.31658 5.12141 2.70711L6.53563 4.12132C6.92615 4.51185 6.92615 5.14501 6.53563 5.53554ZM17.7072 4.12132C17.3167 4.51184 17.3167 5.14501 17.7072 5.53553C18.0977 5.92606 18.7309 5.92606 19.1214 5.53553L20.5356 4.12132C20.9261 3.7308 20.9261 3.09763 20.5356 2.70711C20.1451 2.31658 19.5119 2.31658 19.1214 2.70711L17.7072 4.12132ZM12.0072 5.00009C8.14118 5.00009 5.00717 8.1341 5.00717 12.0001V20.0001H4.00717V22.0001H20.0072V20.0001H19.0072V12.0001C19.0072 8.1341 15.8732 5.00009 12.0072 5.00009ZM9.00009 9.99999C8.44781 9.99999 8.00009 10.4477 8.00009 11V17C8.00009 17.5523 8.44781 18 9.00009 18C9.55238 18 10.0001 17.5523 10.0001 17V11C10.0001 10.4477 9.55238 9.99999 9.00009 9.99999Z" fill="#313234"/>
</svg>
