<svg width="24" height="24" viewBox="0 0 24 24" fill="none" xmlns="http://www.w3.org/2000/svg">
<path fill-rule="evenodd" clip-rule="evenodd" d="M6.34315 0.707078C6.73368 1.0976 6.73368 1.73077 6.34315 2.12129L3.51472 4.94972C3.1242 5.34024 2.49103 5.34024 2.10051 4.94972C1.70999 4.55919 1.70999 3.92603 2.10051 3.5355L4.92894 0.707078C5.31946 0.316554 5.95263 0.316553 6.34315 0.707078ZM17.6569 0.707088C18.0474 0.316564 18.6806 0.316564 19.0711 0.707088L21.8995 3.53552C22.29 3.92604 22.29 4.55921 21.8995 4.94973C21.509 5.34025 20.8758 5.34025 20.4853 4.94973L17.6569 2.1213C17.2663 1.73078 17.2663 1.09761 17.6569 0.707088ZM4.00002 12.0208C4.00002 16.4391 7.58174 20.0208 12 20.0208C16.4183 20.0208 20 16.4391 20 12.0208C20 7.60252 16.4183 4.0208 12 4.0208C7.58174 4.0208 4.00002 7.60252 4.00002 12.0208ZM12 2.0208C6.47717 2.0208 2.00002 6.49795 2.00002 12.0208C2.00002 17.5436 6.47717 22.0208 12 22.0208C17.5229 22.0208 22 17.5436 22 12.0208C22 6.49795 17.5229 2.0208 12 2.0208ZM12 6.0208C12.5523 6.0208 13 6.46851 13 7.0208V11.3364L15.6397 12.6879C16.1313 12.9396 16.3257 13.5422 16.074 14.0338C15.8223 14.5254 15.2197 14.7199 14.7282 14.4681L11.5443 12.8379C11.2102 12.6668 11 12.3231 11 11.9478V7.0208C11 6.46851 11.4477 6.0208 12 6.0208Z" fill="#313234"/>
</svg>
