<svg width="24" height="24" viewBox="0 0 24 24" fill="none" xmlns="http://www.w3.org/2000/svg">
<path d="M15.8042 13.2355L12 15.9995L8.19577 13.2355L9.64886 8.76339H14.3511L15.8042 13.2355Z" fill="#313234"/>
<path fill-rule="evenodd" clip-rule="evenodd" d="M12.0005 21.9998C9.4476 21.9998 7.11814 21.0431 5.35102 19.4688C4.70582 18.8941 4.13555 18.2371 3.65675 17.5142C2.71321 16.0893 2.12495 14.4083 2.01811 12.5982C2.00643 12.4003 2 12.2003 2 11.9995C2 11.3095 2.06987 10.6359 2.20292 9.98528C2.33743 9.32749 2.53699 8.69368 2.79376 8.08984C3.13158 7.29527 3.56859 6.55348 4.09037 5.88004C5.22728 4.41284 6.76422 3.27042 8.53664 2.61594C9.33162 2.32246 10.1744 2.12652 11.0498 2.04401C11.3628 2.01449 11.6798 1.99976 12.0005 1.99976C12.3209 1.99976 12.6377 2.01482 12.9504 2.04428C13.8255 2.12677 14.6678 2.3218 15.4626 2.61519C19.2791 4.0237 22.0005 7.694 22.0005 11.9998C22.0005 17.5226 17.5233 21.9998 12.0005 21.9998ZM6.29366 13.9728L4.00459 11.7415C4.05121 10.2717 4.49425 8.90205 5.23033 7.73579L8.47329 7.26456L9.95423 4.26385C10.6074 4.09154 11.2932 3.99976 12.0005 3.99976C12.7074 3.99976 13.3928 4.09143 14.0456 4.26355L15.5267 7.26456L18.7708 7.73595C19.5066 8.90192 19.9496 10.2712 19.9964 11.7405L17.7063 13.9728L18.2291 17.0206C17.3133 18.1553 16.0937 19.0346 14.694 19.535L12 18.1187L9.30638 19.5348C7.9065 19.0342 6.68686 18.1546 5.77109 17.0196L6.29366 13.9728Z" fill="#313234"/>
</svg>
