<svg width="24" height="24" viewBox="0 0 24 24" fill="none" xmlns="http://www.w3.org/2000/svg">
<path fill-rule="evenodd" clip-rule="evenodd" d="M20.5002 3H3.50024C2.67196 3 2.00024 3.67172 2.00024 4.5V9.42673L2.51335 9.91797C2.66927 10.0599 2.83192 10.1907 3.00024 10.3101V19.5L3.00711 19.6444C3.07981 20.405 3.72068 21 4.50024 21H19.5002L19.6447 20.9931C20.4052 20.9204 21.0002 20.2796 21.0002 19.5V10.3092C21.1685 10.1897 21.3313 10.0591 21.4876 9.91722L22.0002 9.42226V4.5C22.0002 3.67172 21.3285 3 20.5002 3ZM19.0002 11.1676C17.668 11.4294 16.2544 11.167 15.0924 10.3814L14.989 10.3079L14.9046 10.3686C13.1512 11.5566 10.8322 11.5556 9.07099 10.3602L8.99304 10.3049L8.90933 10.3652C7.74402 11.1553 6.32974 11.4208 5.00022 11.1638L5.00004 18.9999H8.00003V12.9999H16V18.9999H19L19.0002 11.1676ZM14 18.9999V14.9999H10V18.9999H14ZM20 4.99988V8.55588L19.9742 8.57794C18.8042 9.4968 17.1555 9.49079 16 8.56585V6.99988H14V8.55146C12.8369 9.49136 11.1685 9.49576 10 8.56467V6.99988H8.00003V8.54963C6.8852 9.44099 5.33153 9.48595 4.18219 8.69256L4.00003 8.55588V4.99988H20Z" fill="#313234"/>
</svg>
