<svg width="24" height="24" viewBox="0 0 24 24" fill="none" xmlns="http://www.w3.org/2000/svg">
<path fill-rule="evenodd" clip-rule="evenodd" d="M17.2074 5.28994C14.9169 2.67224 10.9505 2.359 8.24838 4.5207C7.53387 5.09231 6.99109 5.86449 6.70032 6.73678C6.19023 8.26706 6.49915 9.82219 7.33726 11H4C3.44772 11 3 11.4477 3 12C3 12.5523 3.44772 13 4 13H12.7854C14.6682 13 15.9977 14.8446 15.4023 16.6308C15.2349 17.1332 14.9192 17.5841 14.5022 17.9176C12.6218 19.4219 9.87166 19.1919 8.29772 17.3931L8.25258 17.3415C7.88889 16.9259 7.25713 16.8838 6.8415 17.2475C6.42586 17.6111 6.38374 18.2429 6.74742 18.6585L6.79256 18.7101C9.08305 21.3278 13.0495 21.6411 15.7516 19.4794C16.4661 18.9078 17.0089 18.1356 17.2997 17.2633C17.8098 15.733 17.5008 14.1779 16.6627 13H20C20.5523 13 21 12.5523 21 12C21 11.4477 20.5523 11 20 11H11.2146C9.33179 11 8.00229 9.15544 8.59769 7.36923C8.76514 6.8669 9.08082 6.416 9.49777 6.08244C11.3782 4.57812 14.1283 4.80816 15.7023 6.60695L15.7474 6.65854C16.1111 7.07417 16.7429 7.11629 17.1585 6.75261C17.5741 6.38893 17.6163 5.75716 17.2526 5.34153L17.2074 5.28994Z" fill="#313234"/>
</svg>
