<svg width="24" height="24" viewBox="0 0 24 24" fill="none" xmlns="http://www.w3.org/2000/svg">
<path d="M15.8732 9.25H21.5002C21.7762 9.25 22.0002 9.026 22.0002 8.75V3.123C22.0002 2.677 21.4612 2.455 21.1462 2.77L19.0272 4.889C17.1432 3.027 14.6512 2 12.0002 2C6.8232 2 2.55236 5.95447 2.04971 11.0014C1.99498 11.551 2.44796 12 3.00024 12C3.55253 12 3.99368 11.55 4.06218 11.002C4.55493 7.0602 7.92714 4 12.0002 4C14.1172 4 16.1062 4.819 17.6132 6.303L15.5202 8.396C15.2052 8.711 15.4282 9.25 15.8732 9.25Z" fill="#313234"/>
<path d="M8.12724 14.75H2.50024C2.22424 14.75 2.00024 14.974 2.00024 15.25V20.877C2.00024 21.322 2.53924 21.545 2.85424 21.23L4.97324 19.111C6.85624 20.973 9.34924 22 12.0002 22C17.1773 22 21.4481 18.0455 21.9508 12.9986C22.0055 12.449 21.5525 12 21.0002 12C20.448 12 20.0068 12.45 19.9383 12.998C19.4456 16.9398 16.0733 20 12.0002 20C9.88324 20 7.89324 19.181 6.38724 17.697L8.48024 15.604C8.79524 15.289 8.57224 14.75 8.12724 14.75Z" fill="#313234"/>
</svg>
