<svg width="24" height="24" viewBox="0 0 24 24" fill="none" xmlns="http://www.w3.org/2000/svg">
<path fill-rule="evenodd" clip-rule="evenodd" d="M17 8.001H7.00004V7.0001H4.00024V17.0001H8.00024V19.0001H3.50024C2.67196 19.0001 2.00024 18.3284 2.00024 17.5001V6.5001C2.00024 5.67181 2.67196 5.0001 3.50024 5.0001H7.00004V4H17V5.0001H20.5002C21.3285 5.0001 22.0002 5.67181 22.0002 6.5001V8.0001H20.0002V7.0001H17V8.001ZM11.4142 22.0001H10.0002V20.5861L18.4852 12.1011L19.8992 13.5151L11.4142 22.0001ZM19.1917 11.3937L20.6067 12.8077L22.0207 11.3937C22.4116 11.0027 22.4116 10.3697 22.0207 9.9787C21.6297 9.5887 20.9977 9.5887 20.6067 9.9787L19.1917 11.3937Z" fill="#313234"/>
</svg>
