<svg width="24" height="24" viewBox="0 0 24 24" fill="none" xmlns="http://www.w3.org/2000/svg">
<path fill-rule="evenodd" clip-rule="evenodd" d="M12.0002 2.00012H11.0002V6.00012H13.0002V4.06212C16.9412 4.55612 20.0002 7.92812 20.0002 12.0001C20.0002 16.4111 16.4112 20.0001 12.0002 20.0001C7.58924 20.0001 4.00024 16.4111 4.00024 12.0001C4.00024 10.2001 4.59024 8.49112 5.67924 7.09412L10.0742 11.4881C10.0302 11.6521 9.99924 11.8221 9.99924 12.0001C9.99924 13.1041 10.8952 14.0001 11.9992 14.0001C13.1042 14.0001 13.9992 13.1041 13.9992 12.0001C13.9992 10.8961 13.1042 10.0001 11.9992 10.0001C11.8212 10.0001 11.6522 10.0311 11.4882 10.0741L5.63624 4.22112L4.92924 4.92912C3.04024 6.81812 2.00024 9.32912 2.00024 12.0001C2.00024 17.5141 6.48624 22.0001 12.0002 22.0001C17.5142 22.0001 22.0002 17.5141 22.0002 12.0001C22.0002 6.48612 17.5142 2.00012 12.0002 2.00012Z" fill="#313234"/>
</svg>
