<svg width="24" height="24" viewBox="0 0 24 24" fill="none" xmlns="http://www.w3.org/2000/svg">
<path d="M6.66428 6.66411C6.27474 7.05365 5.64379 7.05464 5.25303 6.66707L3.83586 5.2499C3.05483 6.03095 3.05482 7.29728 3.83586 8.07833L4.77866 9.02112C5.64371 9.88618 6.95522 10.0327 7.97148 9.46058L10.3564 12.1436L8.42152 14.0784L9.83573 15.4927L11.6874 13.641L17.3563 20.0185C18.0772 20.8295 19.332 20.8664 20.0993 20.0991C20.8665 19.3319 20.8296 18.0771 20.0187 17.3562L13.6411 11.6873L17.1997 8.1287L17.9068 8.83581L20.7352 4.59317L19.321 3.17896L15.0784 6.00738L15.7855 6.71448L12.1437 10.3562L9.46072 7.97136C10.0328 6.9551 9.88635 5.64357 9.0213 4.77851L8.07851 3.83569C7.29746 3.05464 6.03111 3.05465 5.25006 3.83569L7.60709 6.19269L6.66758 5.25322C7.0548 5.644 7.0537 6.27469 6.66428 6.66411Z" fill="#313234"/>
<path d="M10.5428 16.1998L6.3002 20.4424C5.51915 21.2235 4.25282 21.2235 3.47177 20.4424C2.69072 19.6614 2.69072 18.395 3.47177 17.614L7.71441 13.3713L10.5428 16.1998Z" fill="#313234"/>
</svg>
