<svg width="24" height="24" viewBox="0 0 24 24" fill="none" xmlns="http://www.w3.org/2000/svg">
<path fill-rule="evenodd" clip-rule="evenodd" d="M2.80767 4.21482C2.42367 3.8238 2.42584 3.19552 2.81418 2.80718C3.2047 2.41665 3.83787 2.41665 4.22839 2.80718L7.42125 6.00003H17V3.9314C17 3.21867 17.8617 2.86174 18.3657 3.36571L21.2929 6.29292C21.6834 6.68344 21.6834 7.31661 21.2929 7.70713L18.3657 10.6343C17.8617 11.1383 17 10.7814 17 10.0687V8.00003H9.42125L21.199 19.7777C21.5895 20.1683 21.5895 20.8014 21.199 21.192C20.8106 21.5803 20.1823 21.5825 19.7913 21.1985L2.80767 4.21482ZM13.1787 16H6.99997V13.9312C6.99997 13.2184 6.13826 12.8615 5.63429 13.3655L2.70708 16.2927C2.31655 16.6832 2.31655 17.3164 2.70708 17.7069L5.63429 20.6341C6.13826 21.1381 6.99997 20.7812 6.99997 20.0684V18H15.1787L13.1787 16Z" fill="#313234"/>
</svg>
