<svg width="24" height="24" viewBox="0 0 24 24" fill="none" xmlns="http://www.w3.org/2000/svg">
<path fill-rule="evenodd" clip-rule="evenodd" d="M17 10.0686V8H4.99997C4.44769 8 3.99997 7.55228 3.99997 7C3.99997 6.44772 4.44769 6 4.99997 6H17V3.93137C17 3.21864 17.8617 2.86171 18.3657 3.36568L21.2929 6.29289C21.6834 6.68341 21.6834 7.31658 21.2929 7.7071L18.3657 10.6343C17.8617 11.1383 17 10.7813 17 10.0686ZM6.99997 18V20.0684C6.99997 20.7811 6.13826 21.138 5.63429 20.6341L2.70708 17.7069C2.31655 17.3163 2.31655 16.6832 2.70708 16.2927L5.63429 13.3654C6.13826 12.8615 6.99997 13.2184 6.99997 13.9311V16H19C19.5523 16 20 16.4477 20 17C20 17.5523 19.5523 18 19 18H6.99997Z" fill="#313234"/>
</svg>
