<svg width="24" height="24" viewBox="0 0 24 24" fill="none" xmlns="http://www.w3.org/2000/svg">
<path fill-rule="evenodd" clip-rule="evenodd" d="M4.00024 12.0001C4.00024 16.4111 7.58924 20.0001 12.0002 20.0001C16.4112 20.0001 20.0002 16.4111 20.0002 12.0001C20.0002 7.58912 16.4112 4.00012 12.0002 4.00012C7.58924 4.00012 4.00024 7.58912 4.00024 12.0001ZM2.00024 12.0001C2.00024 6.47712 6.47724 2.00012 12.0002 2.00012C17.5232 2.00012 22.0002 6.47712 22.0002 12.0001C22.0002 17.5231 17.5232 22.0001 12.0002 22.0001C6.47724 22.0001 2.00024 17.5231 2.00024 12.0001ZM7.85254 10.0001H16.5715C16.8255 10.0001 16.9645 10.2961 16.8015 10.4921L12.4425 15.7231C12.3225 15.8671 12.1015 15.8671 11.9815 15.7231L7.62154 10.4921C7.45954 10.2961 7.59754 10.0001 7.85254 10.0001Z" fill="#313234"/>
</svg>
