<svg width="24" height="24" viewBox="0 0 24 24" fill="none" xmlns="http://www.w3.org/2000/svg">
<path fill-rule="evenodd" clip-rule="evenodd" d="M13.8082 7.35559C13.8232 7.35559 13.8362 7.36159 13.8512 7.36359C13.9052 7.36959 13.9552 7.38959 13.9982 7.42159C14.0132 7.43259 14.0272 7.44259 14.0392 7.45659C14.0862 7.50759 14.1222 7.57159 14.1222 7.65159V16.3706C14.1222 16.4506 14.0862 16.5146 14.0392 16.5656C14.0272 16.5786 14.0132 16.5896 13.9992 16.6006C13.9552 16.6326 13.9052 16.6526 13.8512 16.6586C13.8362 16.6606 13.8232 16.6676 13.8082 16.6666C13.7462 16.6636 13.6842 16.6466 13.6302 16.6016L8.39923 12.2416C8.25523 12.1216 8.25523 11.9006 8.39923 11.7806L13.6302 7.42059C13.6842 7.37659 13.7462 7.35859 13.8082 7.35559ZM12.0002 2.00061C6.47724 2.00061 2.00024 6.47761 2.00024 12.0006C2.00024 17.5226 6.47724 22.0006 12.0002 22.0006C17.5222 22.0006 22.0002 17.5226 22.0002 12.0006C22.0002 6.47761 17.5222 2.00061 12.0002 2.00061Z" fill="#313234"/>
</svg>
