<svg width="24" height="24" viewBox="0 0 24 24" fill="none" xmlns="http://www.w3.org/2000/svg">
<path fill-rule="evenodd" clip-rule="evenodd" d="M18.8162 4.00012C18.4022 2.83812 17.3022 2.00012 16.0002 2.00012C14.6982 2.00012 13.5992 2.83812 13.1852 4.00012H4.00024C3.44796 4.00012 3.00024 4.44784 3.00024 5.00012C3.00024 5.55241 3.44796 6.00012 4.00025 6.00012H13.1842C13.5992 7.16212 14.6982 8.00012 16.0002 8.00012C17.3022 8.00012 18.4022 7.16212 18.8162 6.00012H20.0002C20.5525 6.00012 21.0002 5.55241 21.0002 5.00012C21.0002 4.44784 20.5525 4.00012 20.0002 4.00012H18.8162ZM16.0002 6.00012C15.4492 6.00012 15.0002 5.55112 15.0002 5.00012C15.0002 4.44912 15.4492 4.00012 16.0002 4.00012C16.5512 4.00012 17.0002 4.44912 17.0002 5.00012C17.0002 5.55112 16.5512 6.00012 16.0002 6.00012Z" fill="#313234"/>
<path fill-rule="evenodd" clip-rule="evenodd" d="M8.00024 9.00012C6.69824 9.00012 5.59924 9.83812 5.18524 11.0001H4.00024C3.44796 11.0001 3.00024 11.4478 3.00024 12.0001C3.00024 12.5524 3.44796 13.0001 4.00024 13.0001H5.18424C5.59924 14.1621 6.69824 15.0001 8.00024 15.0001C9.30224 15.0001 10.4022 14.1621 10.8162 13.0001H20.0002C20.5525 13.0001 21.0002 12.5524 21.0002 12.0001C21.0002 11.4478 20.5525 11.0001 20.0002 11.0001H10.8162C10.4022 9.83812 9.30224 9.00012 8.00024 9.00012ZM8.00024 13.0001C7.44924 13.0001 7.00024 12.5511 7.00024 12.0001C7.00024 11.4491 7.44924 11.0001 8.00024 11.0001C8.55124 11.0001 9.00024 11.4491 9.00024 12.0001C9.00024 12.5511 8.55124 13.0001 8.00024 13.0001Z" fill="#313234"/>
<path fill-rule="evenodd" clip-rule="evenodd" d="M13.1852 18.0001C13.5992 16.8381 14.6982 16.0001 16.0002 16.0001C17.3022 16.0001 18.4022 16.8381 18.8162 18.0001H20.0002C20.5525 18.0001 21.0002 18.4478 21.0002 19.0001C21.0002 19.5524 20.5525 20.0001 20.0002 20.0001H18.8162C18.4022 21.1621 17.3022 22.0001 16.0002 22.0001C14.6982 22.0001 13.5992 21.1621 13.1842 20.0001H4.00024C3.44796 20.0001 3.00024 19.5524 3.00024 19.0001C3.00024 18.4478 3.44796 18.0001 4.00024 18.0001H13.1852ZM15.0002 19.0001C15.0002 19.5511 15.4492 20.0001 16.0002 20.0001C16.5512 20.0001 17.0002 19.5511 17.0002 19.0001C17.0002 18.4491 16.5512 18.0001 16.0002 18.0001C15.4492 18.0001 15.0002 18.4491 15.0002 19.0001Z" fill="#313234"/>
</svg>
