<svg width="24" height="24" viewBox="0 0 24 24" fill="none" xmlns="http://www.w3.org/2000/svg">
<path fill-rule="evenodd" clip-rule="evenodd" d="M8.28976 20.1251C15.8368 20.1251 19.9648 13.8731 19.9648 8.45009C19.9648 8.27209 19.9648 8.09609 19.9528 7.92009C20.7558 7.33909 21.4488 6.62009 21.9998 5.79609C21.2508 6.12809 20.4568 6.34609 19.6438 6.44109C20.4998 5.92909 21.1408 5.12209 21.4478 4.17209C20.6418 4.64909 19.7608 4.98609 18.8418 5.16809C17.2878 3.51609 14.6878 3.43609 13.0358 4.98909C11.9708 5.99209 11.5188 7.48509 11.8488 8.91009C8.54976 8.74509 5.47576 7.18709 3.39176 4.62309C2.30276 6.49809 2.85876 8.89609 4.66276 10.1011C4.00976 10.0811 3.37076 9.90509 2.79976 9.58709V9.63909C2.80076 11.5931 4.17776 13.2741 6.09176 13.6611C5.48776 13.8261 4.85376 13.8511 4.23976 13.7311C4.77676 15.4031 6.31676 16.5491 8.07276 16.5811C6.61976 17.7241 4.82476 18.3441 2.97676 18.3421C2.65076 18.3411 2.32476 18.3211 1.99976 18.2821C3.87676 19.4861 6.05976 20.1251 8.28976 20.1221" fill="#313234"/>
</svg>
