<svg width="24" height="24" viewBox="0 0 24 24" fill="none" xmlns="http://www.w3.org/2000/svg">
<path fill-rule="evenodd" clip-rule="evenodd" d="M4.00024 3.00012C3.44796 3.00012 3.00024 3.44784 3.00024 4.00012V7.00012C3.00024 7.55241 3.44796 8.00012 4.00024 8.00012C4.55253 8.00012 5.00024 7.55241 5.00024 7.00012V6.00012C5.00024 5.44712 5.44824 5.00012 6.00024 5.00012H9.00024C9.55224 5.00012 10.0002 5.44712 10.0002 6.00012V18.0001C10.0002 18.5531 9.55224 19.0001 9.00024 19.0001H8.00024C7.44796 19.0001 7.00024 19.4478 7.00024 20.0001C7.00024 20.5524 7.44796 21.0001 8.00024 21.0001H16.0002C16.5525 21.0001 17.0002 20.5524 17.0002 20.0001C17.0002 19.4478 16.5525 19.0001 16.0002 19.0001H15.0002C14.4482 19.0001 14.0002 18.5531 14.0002 18.0001V6.00012C14.0002 5.44712 14.4482 5.00012 15.0002 5.00012H18.0002C18.5522 5.00012 19.0002 5.44712 19.0002 6.00012V7.00012C19.0002 7.55241 19.448 8.00012 20.0002 8.00012C20.5525 8.00012 21.0002 7.55241 21.0002 7.00012V4.00012C21.0002 3.44784 20.5525 3.00012 20.0002 3.00012H4.00024Z" fill="#313234"/>
</svg>
