<svg width="24" height="24" viewBox="0 0 24 24" fill="none" xmlns="http://www.w3.org/2000/svg">
<path fill-rule="evenodd" clip-rule="evenodd" d="M10.0483 19.6064L13.6202 16.0344L15.0342 17.4484L11.1082 21.3744C10.8252 21.6574 10.4482 21.8134 10.0483 21.8134H10.0472C9.64625 21.8134 9.27025 21.6574 8.98725 21.3744L2.62625 15.0124C2.04125 14.4274 2.04125 13.4764 2.62625 12.8914L6.55192 8.96606L7.96624 10.3804L4.39426 13.9524L10.0483 19.6064ZM10.3805 7.96617L14.3463 4.00037H20.0003V9.65437L16.0345 13.6202L10.3805 7.96617ZM17.4485 15.0342L22.0002 10.4824V2.00037H13.5183L8.96624 6.55195L4.91426 2.49997C4.52373 2.10944 3.89057 2.10944 3.50005 2.49997C3.10952 2.89049 3.10952 3.52366 3.50004 3.91418L20.0858 20.5C20.4764 20.8905 21.1095 20.8905 21.5 20.5C21.8906 20.1094 21.8906 19.4763 21.5 19.0858L17.4485 15.0342ZM18.6149 7.02937C18.6149 7.85837 17.9439 8.52937 17.1149 8.52937C16.2869 8.52937 15.6149 7.85837 15.6149 7.02937C15.6149 6.20037 16.2869 5.52937 17.1149 5.52937C17.9439 5.52937 18.6149 6.20037 18.6149 7.02937Z" fill="#313234"/>
</svg>
