<svg width="24" height="24" viewBox="0 0 24 24" fill="none" xmlns="http://www.w3.org/2000/svg">
<path fill-rule="evenodd" clip-rule="evenodd" d="M15.9983 8.00007V13.8771L22.2533 20.1321L20.8393 21.5461L2.4543 3.16107L3.8683 1.74707L8.1213 6.00007H13.9983C15.1023 6.00007 15.9983 6.89607 15.9983 8.00007ZM2.0022 8.00017V16.0002C2.0022 17.1042 2.8982 18.0002 4.0022 18.0002H13.9982C14.5202 18.0002 14.9912 17.7952 15.3472 17.4682L3.8902 6.01117C2.8382 6.07017 2.0022 6.93417 2.0022 8.00017ZM21.1878 17.3498C21.5148 17.6128 21.9998 17.3788 21.9998 16.9598V7.03977C21.9998 6.62077 21.5148 6.38777 21.1878 6.64977L17.1878 9.84977C17.0688 9.94477 17.0008 10.0878 17.0008 10.2408V13.7598C17.0008 13.9118 17.0688 14.0548 17.1878 14.1508L21.1878 17.3498Z" fill="#313234"/>
</svg>
