<svg width="24" height="24" viewBox="0 0 24 24" fill="none" xmlns="http://www.w3.org/2000/svg">
<path fill-rule="evenodd" clip-rule="evenodd" d="M13.9982 6H4.0022C2.8972 6 2.0022 6.896 2.0022 8V16C2.0022 17.104 2.8972 18 4.0022 18H13.9982C15.1032 18 15.9982 17.104 15.9982 16V8C15.9982 6.896 15.1032 6 13.9982 6ZM21.1878 17.3494L17.1878 14.1504C17.0688 14.0544 17.0008 13.9114 17.0008 13.7594V10.2404C17.0008 10.0884 17.0688 9.94439 17.1878 9.84939L21.1878 6.64939C21.5148 6.38739 21.9998 6.62139 21.9998 7.04039V16.9604C21.9998 17.3794 21.5148 17.6124 21.1878 17.3494Z" fill="#313234"/>
</svg>
