<svg width="24" height="24" viewBox="0 0 24 24" fill="none" xmlns="http://www.w3.org/2000/svg">
<path fill-rule="evenodd" clip-rule="evenodd" d="M4.39021 12.5139C4.0907 12.9779 3.48769 13.1675 3.0003 12.9077C2.51291 12.648 2.32579 12.0388 2.61935 11.571C7.28063 4.14301 17.161 4.14301 21.8222 11.571C22.1158 12.0388 21.9287 12.648 21.4413 12.9077C20.9539 13.1675 20.3509 12.9779 20.0514 12.5139C16.1667 6.49536 8.27491 6.49536 4.39021 12.5139ZM12.221 9.39695C14.489 9.39695 16.328 11.2359 16.328 13.5039C16.328 15.7729 14.489 17.6109 12.221 17.6109C9.95296 17.6109 8.11396 15.7729 8.11396 13.5039C8.11396 11.2359 9.95296 9.39695 12.221 9.39695Z" fill="#313234"/>
</svg>
