<svg width="24" height="24" viewBox="0 0 24 24" fill="none" xmlns="http://www.w3.org/2000/svg">
<path fill-rule="evenodd" clip-rule="evenodd" d="M21.5461 19.425C21.9366 19.8155 21.9366 20.4485 21.5461 20.839C21.1557 21.2295 20.5226 21.2295 20.1321 20.839L3.16114 3.868C2.77068 3.47753 2.77068 2.84447 3.16114 2.454C3.55161 2.06353 4.18468 2.06353 4.57514 2.454L8.35414 6.233L12.2931 2.293C12.4811 2.106 12.7351 2 13.0001 2H14.0001C14.5521 2 15.0001 2.448 15.0001 3V12.879L21.5461 19.425ZM2.00024 8.00011C2.00024 7.44811 2.44824 7.00011 3.00024 7.00011H4.87924L15.0002 17.1211V21.0001C15.0002 21.5521 14.5522 22.0001 14.0002 22.0001H13.0002C12.7352 22.0001 12.4802 21.8951 12.2932 21.7071L7.58624 17.0001H3.00024C2.44824 17.0001 2.00024 16.5521 2.00024 16.0001V8.00011Z" fill="#313234"/>
</svg>
