<svg width="24" height="24" viewBox="0 0 24 24" fill="none" xmlns="http://www.w3.org/2000/svg">
<path fill-rule="evenodd" clip-rule="evenodd" d="M13.0002 2L12.8688 2.00867C12.6521 2.0374 12.4494 2.13661 12.2931 2.29289L7.58504 6.9999L3.00024 7C2.44796 7 2.00024 7.44772 2.00024 8V16L2.00697 16.1166C2.06474 16.614 2.48741 17 3.00024 17L7.58604 16.9999L12.2931 21.7071C12.4807 21.8946 12.735 22 13.0002 22H14.0002C14.5525 22 15.0002 21.5523 15.0002 21V3C15.0002 2.44772 14.5525 2 14.0002 2H13.0002ZM13.0001 4.41388V19.5849L8.70737 15.2929L8.60829 15.2061C8.43475 15.0731 8.22127 15 8.00026 15L4.00006 14.9999V8.99988L8.00026 8.99998C8.26548 8.99998 8.51983 8.89462 8.70737 8.70709L13.0001 4.41388ZM19.8815 8.52204C19.5672 8.06786 18.9249 8.07159 18.5343 8.46211L18.4971 8.49931C18.1215 8.875 18.1174 9.47532 18.3742 9.94042C19.0742 11.2081 19.1224 12.8097 18.418 14.0537C18.1515 14.5243 18.1372 15.141 18.5197 15.5234C18.9133 15.9171 19.563 15.9062 19.8673 15.44C21.2254 13.3594 21.2874 10.5543 19.8815 8.52204Z" fill="#313234"/>
</svg>
