<svg width="24" height="24" viewBox="0 0 24 24" fill="none" xmlns="http://www.w3.org/2000/svg">
<path fill-rule="evenodd" clip-rule="evenodd" d="M9.76824 7.64705L13.0002 10.8791V4.41405L9.76824 7.64705ZM21.5459 19.4246C21.9365 19.8153 21.9363 20.4488 21.5455 20.8392C21.1549 21.2295 20.5218 21.2296 20.1314 20.8391L3.16121 3.86801C2.77076 3.47754 2.77077 2.84447 3.16123 2.45401C3.5517 2.06354 4.18478 2.06354 4.57525 2.45401L8.35424 6.233L12.2932 2.293C12.4802 2.106 12.7352 2 13.0002 2H14.0002C14.5522 2 15.0002 2.448 15.0002 3V12.879L21.5459 19.4246ZM8.70724 15.2931L13.0002 19.5861V15.1211L15.0002 17.1211V21.0001C15.0002 21.5521 14.5522 22.0001 14.0002 22.0001H13.0002C12.7352 22.0001 12.4802 21.8951 12.2932 21.7071L7.58624 17.0001H3.00024C2.44824 17.0001 2.00024 16.5521 2.00024 16.0001V8.00005C2.00024 7.44805 2.44824 7.00005 3.00024 7.00005H4.87924L6.87924 9.00005H4.00024V15.0001H8.00024C8.26524 15.0001 8.52024 15.1061 8.70724 15.2931Z" fill="#313234"/>
</svg>
