<svg width="24" height="24" viewBox="0 0 24 24" fill="none" xmlns="http://www.w3.org/2000/svg">
<path d="M8.98036 16.0145C8.73841 16.1981 8.73065 16.5489 8.93954 16.7694L11.6371 19.6169C11.8343 19.825 12.1658 19.825 12.363 19.6169L15.0606 16.7694C15.2695 16.5489 15.2617 16.1981 15.0198 16.0145C14.1808 15.3778 13.1345 15 12.0001 15C10.8656 15 9.81937 15.3778 8.98036 16.0145Z" fill="#313234"/>
<path d="M16.4394 14.5875C16.6528 14.7628 16.9683 14.7558 17.1582 14.5553L18.4993 13.1397C18.7082 12.9192 18.6998 12.5698 18.4683 12.3733C16.7245 10.893 14.4666 10 12.0001 10C9.53356 10 7.27561 10.893 5.53189 12.3733C5.30035 12.5698 5.29192 12.9192 5.50081 13.1397L6.84192 14.5553C7.03186 14.7558 7.3473 14.7628 7.56074 14.5875C8.76881 13.5955 10.3149 13 12.0001 13C13.6852 13 15.2313 13.5955 16.4394 14.5875Z" fill="#313234"/>
<path d="M19.883 10.9522C20.0912 11.1337 20.407 11.126 20.597 10.9255L21.9381 9.50989C22.1469 9.28941 22.1382 8.94052 21.9103 8.73978C19.2675 6.412 15.7987 5 12.0001 5C8.20146 5 4.73263 6.412 2.08983 8.73978C1.86191 8.94053 1.85319 9.28941 2.06207 9.50989L3.40319 10.9255C3.59313 11.126 3.90897 11.1337 4.11712 10.9522C6.22564 9.11358 8.98281 8 12.0001 8C15.0173 8 17.7745 9.11358 19.883 10.9522Z" fill="#313234"/>
</svg>
