<svg width="24" height="24" viewBox="0 0 24 24" fill="none" xmlns="http://www.w3.org/2000/svg">
<path d="M3.8143 1.80705C3.42378 2.19758 3.42378 2.83074 3.8143 3.22127L19.7849 19.1918C20.1754 19.5824 20.8086 19.5824 21.1991 19.1918C21.5896 18.8013 21.5896 18.1681 21.1991 17.7776L17.5564 14.1349L18.4993 13.1395C18.7082 12.9191 18.6998 12.5697 18.4683 12.3732C17.0945 11.207 15.4016 10.4053 13.539 10.1176L11.4344 8.01297C11.6219 8.00428 11.8105 7.99988 12.0001 7.99988C15.0173 7.99988 17.7745 9.11346 19.883 10.952C20.0912 11.1336 20.407 11.1259 20.597 10.9254L21.9381 9.50977C22.1469 9.28928 22.1382 8.9404 21.9103 8.73965C19.2675 6.41188 15.7987 4.99988 12.0001 4.99988C10.8912 4.99988 9.81035 5.12021 8.76999 5.34853L5.22851 1.80705C4.83799 1.41653 4.20483 1.41653 3.8143 1.80705Z" fill="#313234"/>
<path d="M2.08983 8.73965C3.14149 7.81335 4.32396 7.03206 5.60596 6.42706L7.89815 8.71925C6.49767 9.22862 5.21885 9.99136 4.11712 10.952C3.90897 11.1336 3.59313 11.1259 3.40319 10.9254L2.06207 9.50977C1.85319 9.28928 1.86191 8.9404 2.08983 8.73965Z" fill="#313234"/>
<path d="M5.53189 12.3732C6.66407 11.412 8.01303 10.6985 9.49511 10.3162L12.1811 13.0022C12.1209 13.0006 12.0606 12.9999 12.0001 12.9999C10.3149 12.9999 8.76881 13.5954 7.56074 14.5874C7.3473 14.7626 7.03186 14.7557 6.84192 14.5552L5.50081 13.1395C5.29192 12.9191 5.30035 12.5697 5.53189 12.3732Z" fill="#313234"/>
<path d="M8.93954 16.7693C8.73065 16.5488 8.73841 16.198 8.98036 16.0144C9.81937 15.3777 10.8656 14.9999 12.0001 14.9999C13.1345 14.9999 14.1808 15.3777 15.0198 16.0144C15.2617 16.198 15.2695 16.5488 15.0606 16.7693L12.363 19.6167C12.1658 19.8249 11.8343 19.8249 11.6371 19.6167L8.93954 16.7693Z" fill="#313234"/>
</svg>
