<svg width="24" height="24" viewBox="0 0 24 24" fill="none" xmlns="http://www.w3.org/2000/svg">
<path fill-rule="evenodd" clip-rule="evenodd" d="M18.2198 8H12.2198H11.2198V10H12.2198H18.2198C18.2198 11.103 17.3228 12 16.2198 12H10.2198H9.21977V14H10.2198H15.2198C15.2198 15.103 14.3228 16 13.2198 16H9.12777C8.33577 16 7.56777 16.232 6.90877 16.672L5.42077 17.664C5.12677 17.86 4.79077 17.974 4.44077 17.996L4.64577 16.969C4.87777 15.809 5.03477 14.633 5.18777 13.496L5.32077 12.521C5.87377 8.56 8.58177 6 12.2198 6H20.2198C20.2198 7.103 19.3228 8 18.2198 8ZM12.2198 4C7.52476 4 4.03876 7.236 3.33976 12.244L3.20576 13.23C3.05676 14.336 2.90376 15.479 2.68476 16.577L1.99976 20H4.31076C5.10376 20 5.87076 19.768 6.52976 19.328L8.01876 18.336C8.34776 18.116 8.73176 18 9.12776 18H13.2198C15.4258 18 17.2198 16.206 17.2198 14V13.858C18.9398 13.411 20.2198 11.858 20.2198 10V9.443C21.4098 8.75 22.2198 7.474 22.2198 6V4H12.2198Z" fill="#313234"/>
</svg>
